<svg width="113" height="40" viewBox="0 0 113 40" fill="none" xmlns="http://www.w3.org/2000/svg">
<g clip-path="url(#clip0_338_1109)">
<path d="M10.4893 8.22754C11.3812 8.22754 12.4451 8.49357 13.6835 9.02562C14.1086 9.20777 14.4231 9.29884 14.6221 9.29884C14.8874 9.29884 15.1282 9.13587 15.3395 8.81232C15.4722 8.57985 15.6123 8.46241 15.7597 8.46241C16.0005 8.46241 16.084 8.67092 16.1184 9.08554C16.3076 11.2569 16.7376 14.2311 16.7376 14.478C16.7376 14.7248 16.6246 14.8471 16.3985 14.8471C16.1848 14.8471 15.9661 14.5882 15.74 14.0682C15.2069 12.8746 14.7081 11.9663 14.2437 11.3432C13.2584 10.0466 12.0545 9.3971 10.6318 9.3971C9.79397 9.3971 9.1281 9.70867 8.63669 10.3318C8.13054 10.9669 7.87746 11.7913 7.87746 12.8051C7.87746 13.9867 8.25093 15.1946 8.99542 16.4265C9.63426 17.4786 10.7915 18.931 12.4672 20.786C13.3174 21.7206 15.0816 23.4606 17.7573 26.0035C19.3003 27.4822 20.2045 28.3474 20.4723 28.5918C20.7377 28.8387 20.9171 28.9609 21.0104 28.9609C21.2242 28.9609 21.4158 28.6374 21.5903 27.9879C21.777 27.2881 21.8704 26.5355 21.8704 25.7302C21.8704 24.7836 21.6444 23.9783 21.1923 23.3168C20.6738 22.5643 19.976 22.0322 19.0964 21.7206C18.6713 21.5649 18.4231 21.4618 18.3593 21.4091C18.2659 21.33 18.2192 21.2413 18.2192 21.1359C18.2192 20.9274 18.3716 20.8243 18.6787 20.8243C18.9318 20.8243 24.8778 21.1359 25.1457 21.1359C25.4135 21.1359 25.5634 21.2389 25.5634 21.4474C25.5634 21.6416 25.3692 21.8045 24.9835 21.9339C24.3569 22.1688 23.9663 22.478 23.8066 22.8686C23.6075 23.3096 23.4601 24.0813 23.3667 25.1862C23.2734 26.212 23.1333 27.0292 22.9466 27.638C22.8262 28.067 22.6149 28.611 22.3078 29.2725C22.2144 29.4666 22.1677 29.6296 22.1677 29.759C22.1677 29.9675 22.3938 30.2599 22.8459 30.6362C24.7746 32.2323 26.3914 33.3947 27.6961 34.1209C28.8927 34.7824 30.3841 35.1538 32.1679 35.2305C32.4726 35.2305 32.6274 35.3144 32.6274 35.4846C32.6274 35.6667 32.48 35.8297 32.1876 35.9711C31.561 36.2827 30.6298 36.4384 29.3939 36.4384C26.4405 36.4384 23.6321 35.3935 20.9711 33.3036C20.664 33.0568 20.4527 32.9345 20.3323 32.9345C20.1996 32.9345 19.8728 33.1239 19.3544 33.5002C16.7204 35.3959 13.966 36.3426 11.0913 36.3426C9.77431 36.3426 8.46716 36.1317 7.16983 35.7099C5.8725 35.2881 4.74472 34.7081 3.78646 33.9675C2.56285 33.0328 1.639 31.8465 1.01245 30.4037C0.454696 29.1311 0.174591 27.7746 0.174591 26.3342C0.174591 24.4648 0.732343 22.8303 1.8503 21.4283C2.74221 20.3114 3.87246 19.4822 5.2435 18.9357C5.87005 18.6769 6.18209 18.4564 6.18209 18.2743C6.18209 18.2359 6.03467 17.9555 5.74228 17.4378C5.07642 16.2563 4.74472 15.0364 4.74472 13.7782C4.74472 12.1556 5.29755 10.8255 6.40077 9.78775C7.50645 8.75001 8.87011 8.22994 10.4918 8.22994L10.4893 8.22754ZM6.7767 19.6356C6.445 19.6356 6.02239 19.7818 5.50886 20.0742C4.99779 20.3665 4.54815 20.7069 4.16239 21.0975C3.2582 22.0442 2.8061 23.1994 2.8061 24.5631C2.8061 26.5619 3.47687 28.4121 4.82088 30.1113C6.84304 32.6805 9.46472 33.9651 12.6835 33.9651C14.799 33.9651 16.5828 33.4858 18.0325 32.5247C18.6173 32.1365 18.9121 31.8441 18.9121 31.6499C18.9121 31.5061 18.5583 31.1251 17.8531 30.502C15.8826 28.8027 14.2142 27.2449 12.8432 25.8285C11.4721 24.4121 9.92173 22.6553 8.19197 20.5535C7.68581 19.9423 7.21406 19.638 6.77424 19.638L6.7767 19.6356Z" fill="white"/>
<path d="M19.7256 14.5813V3.45365C19.7256 2.67713 19.5807 2.10434 19.2883 1.73286C19.0057 1.42129 18.5192 1.1984 17.8288 1.0594C17.5732 1.00667 17.443 0.913204 17.443 0.774198C17.443 0.611226 17.5536 0.527344 17.7747 0.527344H23.3203C23.5316 0.527344 23.6373 0.618416 23.6373 0.798165C23.6373 0.927583 23.4702 1.03064 23.1336 1.10733C22.7183 1.21039 22.421 1.42369 22.2441 1.74244C22.077 2.0612 21.991 2.53573 21.991 3.16605V13.335C21.991 14.9647 21.9935 16.0816 22.2441 16.5944C22.8559 17.8527 27.8069 17.3853 28.9592 16.7718C29.4384 16.5178 30.5956 15.2451 30.7996 14.8737C30.8708 14.7442 30.9544 14.6795 31.0527 14.6795C31.2197 14.6795 31.3057 14.7994 31.3057 15.0414C31.3057 15.7772 30.2738 17.3614 29.8684 17.9557C29.7701 18.0995 29.603 18.1858 29.4261 18.1858H18.4013C18.2072 18.1858 18.1089 18.1091 18.1089 17.9533C18.1089 17.8239 18.2195 17.7257 18.4406 17.6562C18.7944 17.5531 19.045 17.4405 19.1974 17.3206C19.4529 17.0953 19.6077 16.6783 19.6617 16.0648C19.706 15.6598 19.7281 15.1637 19.7281 14.5765L19.7256 14.5813Z" fill="white"/>
<path d="M31.5342 18.1905C31.2861 18.1905 31.1632 18.109 31.1632 17.9436C31.1632 17.8238 31.2689 17.7447 31.4826 17.7112C32.0306 17.6345 32.3844 17.4212 32.5441 17.076C32.6596 16.81 32.7161 16.2396 32.7161 15.3672V9.29893C32.7161 8.64465 32.6325 8.23722 32.463 8.08144C32.3131 7.95202 31.9937 7.88731 31.5072 7.88731C31.3844 7.88731 31.259 7.8921 31.1362 7.89929C30.9937 7.90888 30.8831 7.91128 30.8045 7.91128C30.6006 7.91128 30.4998 7.83938 30.4998 7.69079C30.4998 7.56856 30.5711 7.48228 30.716 7.43195C30.7652 7.41517 34.6375 5.98438 34.6916 5.98438C34.8685 5.98438 34.9569 6.05867 34.9569 6.20487C34.9569 6.28156 34.9471 6.37742 34.9299 6.49007C34.8316 7.0413 34.7751 7.91367 34.7579 9.10481V15.3672C34.7579 16.0575 34.7972 16.5272 34.8783 16.7765C35.0011 17.112 35.264 17.3636 35.6621 17.5266C35.8931 17.5961 36.2542 17.6656 36.7506 17.7327C36.9619 17.7591 37.07 17.8286 37.07 17.9388C37.07 18.1018 36.9275 18.1857 36.6449 18.1857" fill="white"/>
<path d="M49.4216 9.38042V3.31212C49.4216 2.65783 49.3381 2.2504 49.1685 2.09462C49.0187 1.9652 48.6992 1.90049 48.2127 1.90049C48.0899 1.90049 47.9646 1.90529 47.8417 1.91248C47.6992 1.92206 47.5887 1.92446 47.51 1.92446C47.3061 1.92446 47.2054 1.85256 47.2054 1.70397C47.2054 1.58174 47.2766 1.49546 47.4216 1.44513C47.4707 1.42836 51.343 -0.00244141 51.3971 -0.00244141C51.574 -0.00244141 51.6625 0.0718546 51.6625 0.21805C51.6625 0.294743 51.6526 0.390608 51.6354 0.503251C51.5371 1.05448 51.4806 1.92686 51.4634 3.11799V9.38042" fill="white"/>
<path d="M75.5696 17.7138C74.7465 17.661 74.233 17.3471 74.0315 16.7695C73.889 16.3716 73.8153 15.5448 73.8054 14.2842V11.2045C73.8054 10.4112 73.7489 9.7545 73.6334 9.23682C73.3951 8.21825 72.8767 7.42975 72.0806 6.86894C71.3459 6.36085 70.5056 6.10441 69.5597 6.10441C67.9945 6.10441 66.6628 6.73472 65.5669 7.99296C65.3188 8.26858 65.1787 8.40758 65.1419 8.40758C65.0534 8.40758 65.0092 8.33568 65.0092 8.18709C65.0092 8.12717 65.0141 8.02652 65.0215 7.88991C65.051 7.23802 65.0976 6.71315 65.1615 6.34407C65.1787 6.23143 65.1885 6.13796 65.1885 6.05887C65.1885 5.91267 65.1001 5.83838 64.9232 5.83838C64.8691 5.83838 60.9968 7.26918 60.9477 7.28595C60.8027 7.33628 60.7314 7.42256 60.7314 7.54479C60.7314 7.69099 60.8322 7.76528 61.0361 7.76528C61.1147 7.76528 61.2253 7.76049 61.3678 7.7533C61.4907 7.74371 61.616 7.74131 61.7388 7.74131C62.2253 7.74131 62.5423 7.80602 62.6946 7.93544C62.8617 8.09122 62.9477 8.49626 62.9477 9.15294L62.9551 15.6526C62.9625 16.386 62.9231 16.8893 62.8347 17.1673C62.702 17.4693 62.4538 17.6538 62.0927 17.7233C61.8985 17.7665 61.8003 17.8528 61.8003 17.9822C61.8003 18.1212 61.901 18.1883 62.1049 18.1883H66.9331C67.2156 18.1883 67.3581 18.1068 67.3581 17.9414C67.3581 17.7857 67.2132 17.7138 66.9208 17.7209C66.1689 17.7209 65.6431 17.4957 65.3409 17.0475C65.1468 16.7455 65.0313 16.0888 64.9969 15.0798V12.5562C64.9969 11.5136 65.0903 10.6101 65.2745 9.85276C65.4171 9.23922 65.7389 8.6808 66.2426 8.17031C66.9331 7.48967 67.7513 7.14695 68.6972 7.14695C69.9356 7.14695 70.8005 7.73412 71.2968 8.90608C71.6064 9.62987 71.7612 10.6652 71.7612 12.0121V14.277C71.7513 15.3291 71.744 15.9235 71.7341 16.0625C71.6899 16.7263 71.5892 17.1673 71.4295 17.383C71.3042 17.5556 71.0806 17.673 70.7538 17.7329C70.5498 17.7665 70.4491 17.8504 70.4491 17.9798C70.4491 18.1188 70.5425 18.1859 70.7268 18.1859H75.5672C75.8595 18.1859 76.0045 18.0948 76.0045 17.9151C76.0045 17.7761 75.8595 17.709 75.5672 17.709L75.5696 17.7138Z" fill="white"/>
<path d="M111.733 17.7138C110.909 17.661 110.396 17.3471 110.194 16.7695C110.052 16.3716 109.978 15.5448 109.968 14.2842V11.2045C109.968 10.4112 109.912 9.7545 109.796 9.23682C109.558 8.21825 109.04 7.42975 108.244 6.86894C107.509 6.36085 106.669 6.10441 105.723 6.10441C104.157 6.10441 102.826 6.73472 101.73 7.99296C101.482 8.26858 101.342 8.40758 101.305 8.40758C101.216 8.40758 101.172 8.33568 101.172 8.18709C101.172 8.12717 101.177 8.02652 101.184 7.88991C101.214 7.23802 101.261 6.71315 101.324 6.34407C101.342 6.23143 101.352 6.13796 101.352 6.05887C101.352 5.91267 101.263 5.83838 101.086 5.83838C101.032 5.83838 97.1598 7.26918 97.1106 7.28595C96.9657 7.33628 96.8944 7.42256 96.8944 7.54479C96.8944 7.69099 96.9951 7.76528 97.1991 7.76528C97.2777 7.76528 97.3883 7.76049 97.5308 7.7533C97.6536 7.74371 97.779 7.74131 97.9018 7.74131C98.3883 7.74131 98.7053 7.80602 98.8576 7.93544C99.0247 8.09122 99.1107 8.49626 99.1107 9.15294L99.118 15.6526C99.1254 16.386 99.0861 16.8893 98.9976 17.1673C98.865 17.4693 98.6168 17.6538 98.2556 17.7233C98.0615 17.7665 97.9632 17.8528 97.9632 17.9822C97.9632 18.1212 98.064 18.1883 98.2679 18.1883H103.096C103.379 18.1883 103.521 18.1068 103.521 17.9414C103.521 17.7857 103.376 17.7138 103.084 17.7209C102.332 17.7209 101.806 17.4957 101.504 17.0475C101.31 16.7455 101.194 16.0888 101.16 15.0798V12.5562C101.16 11.5136 101.253 10.6101 101.438 9.85276C101.58 9.23922 101.902 8.6808 102.406 8.17031C103.096 7.48967 103.914 7.14695 104.86 7.14695C106.099 7.14695 106.963 7.73412 107.46 8.90608C107.769 9.62987 107.924 10.6652 107.924 12.0121V14.277C107.914 15.3291 107.907 15.9235 107.897 16.0625C107.853 16.7263 107.752 17.1673 107.592 17.383C107.467 17.5556 107.244 17.673 106.917 17.7329C106.713 17.7665 106.612 17.8504 106.612 17.9798C106.612 18.1188 106.705 18.1859 106.89 18.1859H111.73C112.023 18.1859 112.167 18.0948 112.167 17.9151C112.167 17.7761 112.023 17.709 111.73 17.709L111.733 17.7138Z" fill="white"/>
<path d="M51.4757 3.49414V7.85364C51.4929 8.25867 51.5322 8.46239 51.5961 8.46239C51.6502 8.46239 51.7681 8.36652 51.9548 8.17719C52.6084 7.48695 53.2055 6.99085 53.746 6.68887C54.4537 6.30061 55.2276 6.10648 56.0679 6.10648C57.1368 6.10648 58.0483 6.42524 58.8002 7.06514C59.5348 7.68587 59.9845 8.55825 60.154 9.67988C60.2155 10.1017 60.2474 10.8566 60.2474 11.9447V15.5684C60.2572 16.448 60.4513 17.04 60.8322 17.342C61.1246 17.5672 61.5275 17.6823 62.0386 17.6919C62.3383 17.7015 62.4907 17.7781 62.4907 17.9243C62.4907 18.1065 62.3531 18.1952 62.0804 18.1952H57.1048C56.8837 18.1952 56.7731 18.1233 56.7731 17.9747C56.7731 17.8453 56.8935 17.759 57.1318 17.7158C57.4758 17.6463 57.7019 17.5768 57.8075 17.5097C58.0188 17.3635 58.1442 17.0735 58.1785 16.6421C58.2056 16.3761 58.2179 16.0957 58.2179 15.8009V12.2035C58.2179 10.72 58.0729 9.66311 57.7805 9.03279C57.24 7.8776 56.3308 7.30001 55.0483 7.30001C54.2251 7.30001 53.4831 7.61397 52.8197 8.24429C51.9253 9.08072 51.4806 10.315 51.4806 11.9447V15.2041C51.4806 16.1796 51.6133 16.8267 51.8787 17.1454C52.144 17.5073 52.5912 17.7015 53.2178 17.7278C53.5814 17.7278 53.7608 17.8141 53.7608 17.9867C53.7608 18.1257 53.6625 18.1928 53.4684 18.1928H53.348C52.719 18.176 48.3921 18.1928 48.2668 18.1928C48.0727 18.1928 47.9744 18.1233 47.9744 17.9867C47.9744 17.874 48.0727 17.7829 48.2668 17.7158C48.7361 17.5696 49.0481 17.3372 49.2078 17.0184C49.3577 16.7068 49.4339 16.1053 49.4339 15.2065V3.81769" fill="white"/>
<path d="M83.3093 7.11552L83.3487 8.73326V9.04482C83.3388 9.21738 83.2651 9.30366 83.1226 9.30366C83.0071 9.30366 82.9187 9.15746 82.8572 8.86268C82.7319 8.31864 82.4887 7.88485 82.1275 7.5565C81.5427 7.04842 80.8719 6.79198 80.1103 6.79198C79.3952 6.79198 78.8375 6.9909 78.4394 7.38634C78.12 7.69791 77.9628 8.08377 77.9628 8.55111C77.9628 9.01846 78.1495 9.40911 78.5205 9.7039C78.8645 9.96274 79.3461 10.2216 79.9653 10.4804L81.5427 11.1395C82.4273 11.5014 83.0735 11.9112 83.4789 12.369C83.9383 12.8866 84.1693 13.5889 84.1693 14.478C84.1693 15.7794 83.7148 16.786 82.8032 17.493C82.0243 18.1137 81.0783 18.4253 79.9653 18.4253C79.0463 18.4253 78.2011 18.2479 77.4321 17.8956C76.7687 17.5937 76.4419 17.2366 76.4517 16.8219L76.4787 14.7512C76.4886 14.466 76.5844 14.3246 76.7711 14.3246C76.8694 14.3246 76.9382 14.3798 76.9824 14.4924C76.9996 14.5188 77.0438 14.6697 77.1151 14.9454C77.3264 15.7315 77.6851 16.369 78.1888 16.8603C78.808 17.4379 79.5009 17.7279 80.2724 17.7279C81.1299 17.7279 81.8032 17.4427 82.2897 16.8747C82.6508 16.46 82.8327 15.9831 82.8327 15.4391C82.8327 14.895 82.6435 14.4205 82.2626 14.0418C82.0145 13.783 81.582 13.5122 80.9629 13.227L79.3314 12.4768C78.437 12.0622 77.8154 11.6667 77.4615 11.2857C76.9578 10.7512 76.7048 10.1089 76.7048 9.35878C76.7048 8.12451 77.2846 7.21618 78.4419 6.629C79.1323 6.28389 79.8793 6.11133 80.6827 6.11133C81.4862 6.11133 82.3044 6.28389 83.0317 6.629C83.1742 6.69851 83.2602 6.7752 83.2971 6.86148C83.3069 6.9142 83.3093 7.00048 83.3093 7.12032V7.11552Z" fill="white"/>
<path d="M91.3955 6.1064C92.5798 6.1064 93.6953 6.42995 94.7371 7.07704C95.7273 7.69058 96.4791 8.49586 96.9927 9.49765C97.4693 10.4299 97.7077 11.3527 97.7077 12.2658C97.7077 13.3874 97.3538 14.4731 96.6462 15.5252C95.9558 16.5342 95.0467 17.3059 93.914 17.8404C93.0663 18.2286 92.1375 18.4228 91.1277 18.4228C89.3856 18.4228 87.877 17.7637 86.6042 16.4431C85.5084 15.2951 84.9604 13.9938 84.9604 12.5366C84.9604 11.8296 85.0808 11.1082 85.3241 10.3748C85.5673 9.64145 85.8966 9.01593 86.3118 8.49825C86.8696 7.79124 87.5625 7.22563 88.3954 6.80382C89.2972 6.33888 90.2972 6.104 91.393 6.104L91.3955 6.1064ZM90.8795 6.77986C89.4372 6.77986 88.3463 7.4653 87.6042 8.83618C87.216 9.5336 87.0195 10.3293 87.0195 11.216C87.0195 12.5797 87.3585 13.8524 88.0416 15.0339C88.5183 15.8607 89.0908 16.5006 89.7517 16.9488C90.4151 17.397 91.1178 17.6223 91.8599 17.6223C92.796 17.6223 93.6142 17.2867 94.3145 16.6133C95.1892 15.7601 95.6265 14.5642 95.6265 13.0303C95.6265 11.4965 95.2015 10.1376 94.3538 8.87692C93.8845 8.18669 93.3685 7.66182 92.8009 7.29753C92.2604 6.95242 91.6215 6.77986 90.877 6.77986H90.8795Z" fill="white"/>
<path d="M33.866 1.1792C34.0601 1.1792 35.3107 2.61239 35.3107 2.75859C35.3107 2.93115 34.1338 4.59681 33.8783 4.59681C33.5687 4.59681 32.3918 3.04858 32.3918 2.79933C32.3918 2.61 33.6596 1.1816 33.8635 1.1816L33.866 1.1792Z" fill="white"/>
<path d="M38.9644 7.51572C38.3354 8.15083 37.9201 8.98486 37.9152 9.86683C37.9152 9.87402 37.9152 9.87881 37.9152 9.886C37.9152 10.327 38.0504 10.5451 38.3231 10.5451C38.532 10.5451 40.048 9.7422 40.048 9.43303C40.048 9.30361 40.0283 9.13106 39.9939 8.91536C39.957 8.69007 39.9398 8.50074 39.9398 8.34496C39.9398 7.91356 40.0627 7.4558 40.4681 7.2425C40.4902 7.23052 40.5025 7.21374 40.5246 7.20415C41.9989 6.57623 43.2004 7.54448 43.7778 8.91536C43.9301 9.27006 44.0972 9.71104 44.1512 10.2215C44.166 10.3653 44.1758 10.5115 44.1709 10.6649C44.1635 10.8662 44.0431 11.0148 43.9522 11.0963C43.795 11.2353 43.1832 11.3935 42.161 11.626C40.6942 11.9711 39.7089 12.2731 39.2027 12.5319C38.6597 12.8075 38.2371 13.2101 37.9324 13.735C37.6302 14.2623 37.4779 14.8518 37.4779 15.5085C37.4779 16.2155 37.6548 16.7859 38.0061 17.2173C38.5664 17.9148 39.3403 18.2647 40.3281 18.2647C41.2052 18.2647 42.075 18.0154 42.935 17.5145C43.2397 17.3348 43.6869 17.0711 44.1586 16.6062C44.1758 16.5894 44.2225 16.5439 44.2225 16.5439C44.2495 16.9897 44.2962 17.3228 44.3625 17.5121C44.4952 17.8908 44.8171 18.1137 45.3036 18.1928H48.0506C48.343 18.1928 48.4879 18.1017 48.4879 17.9219C48.4879 17.7829 48.343 17.7158 48.0506 17.7158C47.2275 17.6631 46.714 17.3492 46.5125 16.7716C46.37 16.3737 46.2963 15.5469 46.2864 14.2862C46.2864 14.2862 46.2815 11.4127 46.2815 11.9447C46.2815 11.4151 46.2741 10.9645 46.2594 10.593C46.2373 10.2695 46.2053 9.91955 46.1709 9.60319C45.994 8.51991 45.5518 7.6715 44.8343 7.06515C44.1758 6.50673 43.3871 6.20715 42.4829 6.13765C42.3551 6.12806 42.2347 6.10889 42.1021 6.10889C41.5984 6.10889 41.1168 6.17839 40.6598 6.31979C40.1241 6.48276 39.6597 6.8135 39.2715 7.20895L38.9644 7.51811V7.51572ZM44.1832 14.4612C44.1832 14.7967 44.1611 15.1131 44.1144 15.4055C44.0505 15.8273 43.7925 16.2155 43.3404 16.5702C42.618 17.1287 41.7974 17.3396 40.8784 17.203C40.849 17.1982 40.8023 17.1814 40.7802 17.1646C40.134 16.7188 39.8121 16.0909 39.8121 15.2785C39.8121 14.7176 39.9693 14.1832 40.2863 13.6751C40.5664 13.2269 40.9743 12.865 41.5074 12.5894C42.3306 12.158 43.1316 11.9423 43.9104 11.9423C44.0087 11.9423 44.08 11.9687 44.1119 12.0286C44.1955 12.1892 44.1807 14.4636 44.1807 14.4636L44.1832 14.4612Z" fill="white"/>
<path d="M39.0578 21.3349C40.306 21.3349 41.5664 21.6633 42.8367 22.3175C43.3945 22.6099 43.7507 22.7561 43.908 22.7561C44.0652 22.7561 44.1783 22.689 44.2716 22.5572C44.2938 22.5356 44.3527 22.4398 44.4535 22.2648C44.51 22.1737 44.5788 22.1282 44.6574 22.1282C44.7852 22.1282 44.849 22.1905 44.849 22.3151C44.849 22.3775 44.9129 25.7016 44.9129 25.7927C44.9129 25.9389 44.8319 26.0132 44.6672 26.0132C44.5542 26.0132 44.4633 25.9533 44.3994 25.8358C44.3773 25.8142 44.306 25.668 44.1856 25.3972C43.7507 24.4793 43.2225 23.7579 42.6008 23.2355C41.5591 22.3655 40.4018 21.9293 39.1315 21.9293C37.8612 21.9293 36.7162 22.308 35.7162 23.0677C34.78 23.7771 34.0945 24.7286 33.6596 25.9197C33.323 26.8256 33.1559 27.734 33.1559 28.6447C33.1559 30.0851 33.5761 31.4128 34.4188 32.6231C35.1265 33.6465 36.0454 34.387 37.1806 34.8472C37.9447 35.154 38.758 35.3074 39.6229 35.3074C40.7728 35.3074 41.8146 35.015 42.7507 34.4302C43.3724 34.0395 43.8539 33.6393 44.1955 33.2295C44.3601 33.0353 44.5001 32.9371 44.6132 32.9371C44.7631 32.9371 44.8368 32.9922 44.8368 33.1048C44.8368 33.3757 44.6033 33.7256 44.1414 34.1498C43.3355 34.8879 42.478 35.4176 41.5713 35.7364C40.7998 36.0144 39.9055 36.1534 38.8833 36.1534C37.6843 36.1534 36.6105 35.9473 35.6646 35.5374C34.7186 35.1276 33.8636 34.4925 33.0994 33.6369C31.9004 32.2852 31.3008 30.6627 31.3008 28.7693C31.3008 27.2307 31.7407 25.8166 32.6178 24.5296C34.0749 22.399 36.2199 21.3325 39.0529 21.3325L39.0578 21.3349Z" fill="white"/>
<path d="M50.7337 26.1187C51.6895 26.1187 52.5888 26.3799 53.4316 26.9024C54.2301 27.3961 54.837 28.048 55.2522 28.8556C55.638 29.6082 55.8296 30.3535 55.8296 31.0917C55.8296 31.9976 55.5446 32.8748 54.9721 33.7232C54.4144 34.5381 53.6797 35.1612 52.7657 35.5926C52.0802 35.9065 51.3308 36.0623 50.5175 36.0623C49.1096 36.0623 47.8934 35.5303 46.8663 34.4638C45.9818 33.5387 45.5395 32.4865 45.5395 31.3098C45.5395 30.7394 45.6378 30.157 45.8343 29.565C46.0309 28.9731 46.2963 28.4674 46.6329 28.0503C47.0825 27.4799 47.6427 27.0222 48.3135 26.6819C49.0408 26.3056 49.8492 26.1187 50.7337 26.1187ZM50.316 26.6627C49.1514 26.6627 48.2717 27.2163 47.6722 28.3236C47.3577 28.8868 47.2005 29.5291 47.2005 30.2457C47.2005 31.3457 47.4757 32.3739 48.0236 33.3278C48.4093 33.9964 48.8688 34.5117 49.4044 34.8736C49.9401 35.2355 50.5077 35.4176 51.1072 35.4176C51.864 35.4176 52.5249 35.1468 53.0876 34.6028C53.7952 33.9125 54.1466 32.9491 54.1466 31.71C54.1466 30.471 53.805 29.3733 53.1195 28.3571C52.7411 27.8011 52.3234 27.3745 51.8664 27.0821C51.4315 26.8041 50.9131 26.6651 50.3136 26.6651L50.316 26.6627Z" fill="white"/>
<path d="M82.4027 27.4248C81.6042 26.5548 80.5599 26.1186 79.2749 26.1186C78.5034 26.1186 77.8252 26.3176 77.2404 26.713C76.9628 26.8951 76.6262 27.1971 76.2331 27.6213C76.1249 27.7268 76.0439 27.7771 75.9873 27.7771C75.9112 27.7771 75.8719 27.7268 75.8596 27.6453C75.8841 27.13 75.9185 26.713 75.9726 26.4206C75.9873 26.3295 75.9947 26.2528 75.9947 26.1905C75.9947 26.0731 75.9235 26.0132 75.781 26.0132C75.7392 26.0132 72.6114 27.1684 72.572 27.1827C72.4566 27.2235 72.3976 27.293 72.3976 27.3913C72.3976 27.5087 72.4787 27.5686 72.6433 27.5686C72.7072 27.5686 72.7956 27.5662 72.9111 27.559C73.0118 27.5518 73.1101 27.5494 73.2109 27.5494C73.604 27.5494 73.8595 27.6022 73.9824 27.7052C74.1175 27.8298 74.233 28.6591 74.233 28.6591C74.2404 28.8053 74.2453 28.9635 74.2453 29.1576V37.3781C74.2379 38.2337 74.1839 38.7849 74.0856 39.0294C73.9848 39.281 73.7686 39.4464 73.432 39.5303C73.0954 39.6141 72.9283 39.7052 72.9283 39.8011C72.9283 39.9329 73.0168 40 73.1961 40H77.7368C77.9014 40 77.9825 39.9377 77.9825 39.8131C77.9825 39.6884 77.8891 39.6141 77.7048 39.5926C77.0193 39.5087 76.5549 39.3865 76.3117 39.2259C76.0389 39.0246 75.9013 38.6052 75.894 37.9724V35.6022C75.894 35.42 75.8964 35.3194 75.9063 35.3002C75.9136 35.2235 75.9456 35.1851 76.0021 35.1851C76.0463 35.1851 76.1372 35.2259 76.2797 35.3098C77.1643 35.8107 77.9997 36.0623 78.7859 36.0623C79.9776 36.0623 81.0415 35.6165 81.9777 34.725C83.0907 33.6657 83.6484 32.3188 83.6484 30.6842C83.6484 29.4092 83.2332 28.3235 82.4052 27.4248H82.4027ZM80.84 34.6411C80.2675 35.2475 79.6189 35.5494 78.8916 35.5494C78.4198 35.5494 77.9776 35.4272 77.5648 35.1827C77.0586 34.8904 76.6679 34.4973 76.3977 34.0036C76.0488 33.3709 75.8719 32.3883 75.8719 31.0581C75.8719 30.2289 75.9456 29.5506 76.0979 29.021C76.2822 28.3739 76.609 27.873 77.0709 27.5159C77.5549 27.1396 78.0906 26.9527 78.6778 26.9527C79.4837 26.9527 80.1668 27.2594 80.7221 27.8706C81.5649 28.8101 81.985 30.0084 81.985 31.4632C81.985 32.7645 81.6042 33.8238 80.84 34.6387V34.6411Z" fill="white"/>
<path d="M103.585 35.4871C102.922 35.4463 102.506 35.1923 102.344 34.7249C102.229 34.4038 102.17 33.7351 102.162 32.7189V30.2336C102.162 29.5937 102.116 29.0641 102.022 28.647C101.831 27.825 101.413 27.1875 100.769 26.7345C100.177 26.3247 99.4989 26.1186 98.7347 26.1186C97.4718 26.1186 96.3956 26.6267 95.5111 27.6428C95.3121 27.8657 95.1966 27.976 95.1696 27.976C95.0983 27.976 95.0615 27.9161 95.0615 27.7986C95.0615 27.7507 95.0639 27.6692 95.0713 27.559C95.0958 27.0317 95.1327 26.6099 95.1843 26.3127C95.199 26.2216 95.2064 26.1449 95.2064 26.0826C95.2064 25.9652 95.1352 25.9053 94.9927 25.9053C94.9509 25.9053 91.823 27.0605 91.7837 27.0748C91.6683 27.1156 91.6093 27.1851 91.6093 27.2833C91.6093 27.4008 91.6904 27.4607 91.855 27.4607C91.9189 27.4607 92.0073 27.4583 92.1228 27.4511C92.2235 27.4439 92.3218 27.4415 92.4226 27.4415C92.8157 27.4415 93.0712 27.4943 93.1941 27.5973C93.3292 27.7219 93.398 28.0503 93.398 28.5799L93.4054 33.8262C93.4128 34.4182 93.3808 34.8256 93.3096 35.0485C93.2015 35.2929 93.0024 35.4415 92.71 35.4966C92.5528 35.5326 92.4742 35.6021 92.4742 35.7052C92.4742 35.8178 92.5553 35.8729 92.7199 35.8729H96.6168C96.8453 35.8729 96.9583 35.8058 96.9583 35.674C96.9583 35.5494 96.8404 35.4895 96.6045 35.4966C95.9976 35.4966 95.5725 35.3169 95.3293 34.9526C95.172 34.7081 95.0786 34.1785 95.0516 33.366V31.3289C95.0516 30.4877 95.1253 29.7591 95.2777 29.1455C95.3907 28.6518 95.6511 28.1989 96.059 27.789C96.6168 27.2378 97.2753 26.9646 98.0394 26.9646C99.0394 26.9646 99.7372 27.4391 100.138 28.3858C100.388 28.9706 100.514 29.807 100.514 30.8927V32.7213C100.506 33.5721 100.499 34.0515 100.492 34.1617C100.455 34.6986 100.374 35.0533 100.246 35.2282C100.145 35.3672 99.9633 35.4607 99.7004 35.511C99.5357 35.5398 99.4547 35.6045 99.4547 35.7099C99.4547 35.8226 99.5284 35.8777 99.6807 35.8777H103.59C103.826 35.8777 103.944 35.8058 103.944 35.6572C103.944 35.547 103.826 35.4895 103.59 35.4895L103.585 35.4871Z" fill="white"/>
<path d="M111.944 26.3608H108.828C108.649 26.3608 108.561 26.416 108.561 26.5286C108.561 26.6412 108.642 26.7107 108.806 26.7371C109.155 26.7994 109.401 26.8689 109.546 26.9456C109.816 27.0918 109.954 27.3554 109.954 27.7389C109.954 28.2254 109.86 28.7311 109.676 29.2536L108.391 32.8366C108.199 33.2823 108.062 33.5052 107.983 33.5052C107.868 33.5052 107.691 33.2272 107.447 32.6688L106.013 29.3998C105.642 28.5634 105.43 28.0816 105.381 27.9474C105.295 27.703 105.253 27.5088 105.253 27.3626C105.253 27.0559 105.499 26.8498 105.993 26.7467C106.192 26.706 106.293 26.6365 106.293 26.5382C106.293 26.4208 106.214 26.3608 106.057 26.3608H102.246C102.032 26.3608 101.924 26.4208 101.924 26.5382C101.924 26.6484 102.017 26.7251 102.202 26.7683C102.587 26.8593 102.868 27.0127 103.047 27.2284C103.167 27.389 103.369 27.7677 103.646 28.3668L106.634 34.5909C106.87 35.0846 106.988 35.4921 106.988 35.8132C106.988 36.3501 106.767 36.9468 106.443 37.661C105.673 39.3507 102.521 39.5616 102.17 39.6239C102.005 39.6526 101.924 39.7221 101.924 39.8324C101.924 39.9426 102.012 40.0001 102.192 40.0001H106.187C106.359 40.0001 106.47 39.8947 106.519 39.6862C106.568 39.4992 106.882 38.5717 107.46 36.9085L110.448 29.2224C110.784 28.3812 111.04 27.7844 111.219 27.4369C111.411 27.0894 111.639 26.8593 111.905 26.7467C112.081 26.67 112.172 26.5933 112.172 26.5166C112.172 26.4112 112.099 26.3608 111.949 26.3608H111.944Z" fill="white"/>
<path d="M85.3438 27.257C84.8377 27.7699 84.501 28.441 84.4986 29.1552C84.4986 29.1599 84.4986 29.1647 84.4986 29.1719C84.4986 29.5266 84.6092 29.704 84.8278 29.704C84.9949 29.704 86.221 29.0569 86.221 28.8052C86.221 28.6998 86.2062 28.5608 86.1768 28.3882C86.1473 28.2085 86.1325 28.0551 86.1325 27.9281C86.1325 27.5806 86.2308 27.2115 86.5601 27.0389C86.5773 27.0293 86.5871 27.015 86.6067 27.0078C87.796 26.4997 88.7665 27.2834 89.2333 28.3882C89.3562 28.6758 89.4913 29.0305 89.5356 29.4428C89.5478 29.5578 89.5552 29.6776 89.5528 29.8022C89.5454 29.9652 89.4496 30.0851 89.3758 30.1498C89.2481 30.26 88.7542 30.3894 87.9286 30.5788C86.7443 30.8568 85.9483 31.1012 85.5404 31.3097C85.103 31.5326 84.7615 31.8562 84.5158 32.2804C84.2725 32.7046 84.1497 33.1815 84.1497 33.7112C84.1497 34.2816 84.2922 34.7417 84.5772 35.0892C85.0293 35.6525 85.6559 35.9353 86.4519 35.9353C87.1596 35.9353 87.8623 35.7339 88.5552 35.3289C88.8009 35.1851 89.1621 34.9718 89.5429 34.5955C89.5552 34.5836 89.5945 34.5452 89.5945 34.5452C89.6166 34.9047 89.6535 35.1755 89.7076 35.3265C89.8157 35.6333 90.0737 35.8106 90.4668 35.8753H92.683C92.9189 35.8753 93.0369 35.8034 93.0369 35.6549C93.0369 35.5446 92.9189 35.4871 92.683 35.4871C92.0196 35.4463 91.6044 35.1923 91.4422 34.725C91.3268 34.4038 91.2678 33.7351 91.2604 32.719C91.2604 32.719 91.258 30.399 91.258 30.828C91.258 30.399 91.2506 30.0371 91.2408 29.7375C91.2236 29.4763 91.1965 29.1935 91.1695 28.9395C91.027 28.0647 90.6683 27.3816 90.0909 26.8903C89.5601 26.4398 88.9213 26.1977 88.194 26.1402C88.0908 26.133 87.9925 26.1162 87.8869 26.1162C87.479 26.1162 87.0908 26.1737 86.7222 26.2864C86.2898 26.4182 85.9139 26.6866 85.6018 27.003L85.3536 27.2522L85.3438 27.257ZM89.5577 32.8628C89.5577 33.1336 89.538 33.3876 89.5036 33.6249C89.452 33.9652 89.2432 34.2792 88.8795 34.5644C88.2972 35.015 87.6338 35.1851 86.8918 35.0749C86.8672 35.0725 86.8303 35.0557 86.8107 35.0437C86.2898 34.6842 86.0293 34.1761 86.0293 33.5218C86.0293 33.0689 86.1571 32.6375 86.4126 32.2277C86.6387 31.8658 86.9679 31.5734 87.3979 31.3505C88.0638 31.003 88.71 30.828 89.339 30.828C89.4176 30.828 89.4766 30.8496 89.5012 30.8975C89.57 31.0269 89.5577 32.8628 89.5577 32.8628Z" fill="white"/>
<path d="M73.3411 35.4993C72.8349 35.4658 72.4664 35.2764 72.2379 34.9361C72.088 34.7276 72.0093 34.2435 72.002 33.4838V30.162C72.002 29.4598 71.9455 28.8942 71.83 28.47C71.658 27.8085 71.3042 27.2645 70.771 26.8403C70.1641 26.3609 69.4196 26.1189 68.5326 26.1189C67.6456 26.1189 66.8372 26.3969 66.1444 26.9553C65.766 27.2621 65.4515 27.6767 65.2033 28.1991C65.0829 27.878 64.9674 27.6287 64.8618 27.4466C64.6824 27.1326 64.4219 26.8618 64.0804 26.6317C63.5522 26.2914 62.9453 26.1189 62.2597 26.1189C61.4243 26.1189 60.6921 26.3633 60.0656 26.8498C59.9329 26.9649 59.7806 27.1255 59.4636 27.4706C59.3555 27.576 59.2744 27.6263 59.2179 27.6263C59.1417 27.6263 59.1024 27.576 59.0901 27.4945V27.473C59.0901 27.3939 59.0951 27.322 59.1 27.2501C59.1221 26.9217 59.1516 26.6437 59.1884 26.4328C59.2032 26.3417 59.2105 26.2651 59.2105 26.2027C59.2105 26.0853 59.1393 26.0254 58.9968 26.0254C58.955 26.0254 55.8272 27.1806 55.7879 27.195C55.6724 27.2357 55.6134 27.3052 55.6134 27.4035C55.6134 27.5209 55.6945 27.5808 55.8591 27.5808C55.923 27.5808 56.0114 27.5784 56.1269 27.5712C56.2277 27.564 56.326 27.5616 56.4267 27.5616C56.8198 27.5616 57.0754 27.6144 57.1982 27.7174C57.3112 27.8277 57.3383 27.9882 57.3383 27.9882C57.3727 28.1392 57.3899 28.3789 57.3899 28.7096V33.316C57.3899 33.8169 57.3727 34.2627 57.3358 34.6533C57.294 35.1063 57.1147 35.3699 56.8002 35.4466C56.4586 35.5161 56.2866 35.6 56.2866 35.6982C56.2866 35.8157 56.3751 35.8756 56.5545 35.8756H60.6012C60.7511 35.8756 60.8248 35.8157 60.8248 35.6982C60.8248 35.5808 60.7364 35.5137 60.557 35.4993C60.1442 35.4586 59.8371 35.3819 59.6356 35.2693C59.3702 35.1302 59.2007 34.8666 59.1221 34.476C59.0582 34.1836 59.0263 33.6611 59.0263 32.9086V30.6413C59.0263 29.1099 59.4145 28.0194 60.1934 27.3723C60.643 27.0104 61.1221 26.8283 61.6283 26.8283C61.9919 26.8283 62.3457 26.9217 62.6873 27.1063C63.0313 27.2908 63.2892 27.5329 63.4686 27.8325C63.7684 28.3118 63.9183 29.026 63.9183 29.9727V32.9086C63.9256 33.2848 63.9109 33.7546 63.8765 34.3178C63.8396 34.7707 63.7561 35.0775 63.6185 35.2357C63.5178 35.3412 63.3433 35.4274 63.0927 35.4969C62.9354 35.5377 62.8568 35.6096 62.8568 35.7054C62.8568 35.8181 62.9428 35.8732 63.1148 35.8732H67.0436C67.2205 35.8732 67.3115 35.8109 67.3115 35.6863C67.3115 35.5688 67.2033 35.5065 66.9896 35.4993C66.7979 35.4921 66.5793 35.4514 66.336 35.3747C66.0731 35.298 65.879 35.135 65.7586 34.8834C65.6456 34.6677 65.5817 34.0733 65.5669 33.0979V29.9751C65.5669 27.8924 66.3557 26.8522 67.9331 26.8522C68.454 26.8522 68.911 26.984 69.3041 27.2501C69.6309 27.473 69.8815 27.7821 70.0535 28.18C70.255 28.6593 70.3533 29.3208 70.3533 30.1644V33.4861C70.3533 33.7785 70.3508 34.1117 70.3435 34.4879C70.3287 34.7875 70.2869 34.996 70.2157 35.1159C70.0732 35.3172 69.8545 35.4442 69.5621 35.4921C69.3852 35.5209 69.2943 35.5856 69.2943 35.6911C69.2943 35.8157 69.3828 35.878 69.5621 35.878H73.4074C73.5499 35.878 73.6212 35.8109 73.6212 35.6791C73.6212 35.5736 73.5278 35.5161 73.3435 35.5017L73.3411 35.4993Z" fill="white"/>
</g>
<defs>
<clipPath id="clip0_338_1109">
<rect width="112" height="40" fill="white" transform="translate(0.169922)"/>
</clipPath>
</defs>
</svg>
