<svg width="303" height="36" viewBox="0 0 303 36" fill="none" xmlns="http://www.w3.org/2000/svg">
<g clip-path="url(#clip0_282_398)">
<path d="M144.626 -0.00139893C145.456 -0.00139893 146.441 0.263064 147.592 0.803009C147.986 0.990337 148.276 1.07849 148.463 1.07849C148.711 1.07849 148.929 0.913202 149.126 0.582623C149.251 0.351218 149.375 0.230006 149.52 0.230006C149.738 0.230006 149.821 0.439372 149.852 0.858105C150.028 3.06196 150.422 6.07023 150.422 6.31265C150.422 6.55508 150.318 6.68731 150.111 6.68731C149.914 6.68731 149.707 6.42284 149.499 5.89392C149.002 4.6818 148.546 3.7672 148.11 3.1391C147.198 1.8278 146.078 1.16665 144.751 1.16665C143.973 1.16665 143.351 1.4862 142.895 2.1143C142.428 2.75342 142.19 3.59089 142.19 4.61568C142.19 5.80576 142.532 7.0289 143.227 8.2851C143.818 9.35397 144.896 10.8195 146.451 12.6928C147.239 13.6405 148.877 15.4036 151.366 17.9711C152.796 19.4697 153.636 20.3402 153.885 20.5936C154.134 20.8471 154.3 20.9683 154.383 20.9683C154.58 20.9683 154.756 20.6377 154.922 19.9876C155.098 19.2823 155.181 18.522 155.181 17.7066C155.181 16.7479 154.974 15.9325 154.549 15.2603C154.072 14.5 153.419 13.96 152.599 13.6405C152.205 13.4862 151.977 13.376 151.915 13.3209C151.832 13.2438 151.78 13.1446 151.78 13.0454C151.78 12.8361 151.926 12.7259 152.205 12.7259C152.444 12.7259 157.96 13.0454 158.209 13.0454C158.458 13.0454 158.603 13.1556 158.603 13.365C158.603 13.5633 158.426 13.7286 158.064 13.8609C157.483 14.0923 157.12 14.4118 156.975 14.8085C156.788 15.2603 156.653 16.0317 156.57 17.1556C156.488 18.1914 156.353 19.0179 156.177 19.635C156.062 20.0647 155.865 20.6157 155.586 21.2879C155.503 21.4862 155.451 21.6515 155.451 21.7837C155.451 21.9931 155.658 22.2906 156.083 22.6653C157.877 24.2851 159.38 25.4531 160.583 26.1914C161.692 26.8636 163.082 27.2383 164.741 27.3154C165.021 27.3154 165.166 27.4036 165.166 27.5689C165.166 27.7562 165.031 27.9215 164.761 28.0647C164.181 28.3843 163.32 28.5385 162.169 28.5385C159.422 28.5385 156.819 27.4807 154.341 25.365C154.061 25.1116 153.854 24.9903 153.75 24.9903C153.626 24.9903 153.325 25.1777 152.838 25.5633C150.391 27.4807 147.83 28.4394 145.165 28.4394C143.942 28.4394 142.729 28.23 141.526 27.8003C140.324 27.3705 139.276 26.7865 138.385 26.0372C137.244 25.0895 136.394 23.8884 135.803 22.4339C135.285 21.1446 135.025 19.7782 135.025 18.3127C135.025 16.4173 135.544 14.7644 136.581 13.343C137.41 12.219 138.457 11.3705 139.733 10.8195C140.313 10.5551 140.603 10.3347 140.603 10.1474C140.603 10.1033 140.469 9.8278 140.199 9.29888C139.577 8.10879 139.276 6.87463 139.276 5.5964C139.276 3.95452 139.784 2.61017 140.811 1.55232C141.837 0.505488 143.102 -0.0234375 144.616 -0.0234375L144.626 -0.00139893ZM141.174 11.5468C140.863 11.5468 140.469 11.6901 139.992 11.9876C139.515 12.2851 139.1 12.6267 138.737 13.0234C137.897 13.9821 137.472 15.1501 137.472 16.5275C137.472 18.5551 138.094 20.4173 139.349 22.1474C141.226 24.7479 143.662 26.0482 146.648 26.0482C148.618 26.0482 150.267 25.5633 151.614 24.5936C152.154 24.197 152.434 23.8994 152.434 23.7121C152.434 23.5689 152.102 23.1832 151.449 22.5551C149.624 20.8361 148.069 19.2603 146.793 17.8278C145.518 16.3953 144.077 14.6212 142.47 12.4835C142.003 11.8664 141.557 11.5578 141.153 11.5578L141.174 11.5468Z" fill="white"/>
<path d="M3.1934 22.7237V5.77601C3.1934 4.59695 2.98604 3.7154 2.58168 3.15342C2.18769 2.67959 1.50339 2.33799 0.539146 2.12863C0.176259 2.05149 0 1.90824 0 1.69887C0 1.44543 0.155523 1.32422 0.466569 1.32422H8.21161C8.51229 1.32422 8.65744 1.45645 8.65744 1.74295C8.65744 1.9413 8.41897 2.09557 7.9524 2.21678C7.37178 2.37105 6.95706 2.70163 6.70822 3.18648C6.46975 3.67133 6.3557 4.3986 6.3557 5.35728V20.8394C6.3557 23.3187 6.3557 25.0267 6.70822 25.8091C7.55841 27.7264 14.4844 27.0102 16.0914 26.0735C16.7654 25.6879 18.3828 23.7485 18.6627 23.1865C18.7664 22.9881 18.8805 22.889 19.0153 22.889C19.2537 22.889 19.3678 23.0763 19.3678 23.4399C19.3678 24.5639 17.9266 26.9771 17.3564 27.8807C17.2216 28.1011 16.9831 28.2333 16.7343 28.2333H1.3375C1.06792 28.2333 0.933137 28.1121 0.933137 27.8807C0.933137 27.6823 1.08866 27.5281 1.39971 27.4289C1.89738 27.2746 2.2499 27.0983 2.45726 26.922C2.82015 26.5804 3.02751 25.9413 3.11046 25.0157C3.17267 24.3986 3.20377 23.6383 3.20377 22.7457L3.1934 22.7237Z" fill="white"/>
<path d="M19.6889 28.2113C19.3467 28.2113 19.1704 28.0901 19.1704 27.8367C19.1704 27.6493 19.3156 27.5391 19.6163 27.4841C20.3835 27.3628 20.8812 27.0433 21.0989 26.5144C21.2648 26.1066 21.3374 25.2361 21.3374 23.9138V14.6686C21.3374 13.6659 21.2233 13.0488 20.9849 12.8174C20.7775 12.619 20.3317 12.5199 19.6474 12.5199C19.4711 12.5199 19.3052 12.5199 19.129 12.5419C18.932 12.5529 18.7765 12.5639 18.6624 12.5639C18.3825 12.5639 18.2373 12.4537 18.2373 12.2334C18.2373 12.046 18.341 11.9138 18.538 11.8367C18.6002 11.8146 24.0228 9.63281 24.0953 9.63281C24.3442 9.63281 24.4686 9.74301 24.4686 9.96339C24.4686 10.0846 24.4582 10.2279 24.4271 10.3931C24.2923 11.2306 24.2094 12.5639 24.1886 14.3711V23.9028C24.1886 24.9496 24.2405 25.6659 24.3545 26.0515C24.5308 26.5584 24.8937 26.9441 25.4432 27.1976C25.7646 27.3077 26.2727 27.4069 26.9673 27.5171C27.268 27.5612 27.4132 27.6604 27.4132 27.8367C27.4132 28.0901 27.2162 28.2113 26.8222 28.2113" fill="white"/>
<path d="M44.6977 14.8005V5.55534C44.6977 4.55259 44.5837 3.93551 44.3452 3.7041C44.1379 3.50576 43.692 3.40658 43.0077 3.40658C42.8315 3.40658 42.6656 3.40658 42.4893 3.42862C42.2923 3.43964 42.1368 3.45066 42.0228 3.45066C41.7428 3.45066 41.5977 3.34047 41.5977 3.12008C41.5977 2.93275 41.7013 2.80052 41.8983 2.72339C41.9605 2.70135 47.3831 0.519531 47.4557 0.519531C47.7045 0.519531 47.8289 0.629724 47.8289 0.85011C47.8289 0.971322 47.8186 1.11457 47.7875 1.27986C47.6527 2.11733 47.5697 3.45066 47.549 5.25782V14.7895" fill="white"/>
<path d="M81.2352 27.4818C80.0843 27.4046 79.3689 26.9198 79.089 26.0383C78.892 25.4322 78.7883 24.176 78.7779 22.2586V17.5644C78.7779 16.3523 78.695 15.3606 78.5394 14.5672C78.2077 13.0135 77.4819 11.8124 76.3725 10.9639C75.346 10.1925 74.1744 9.80685 72.8473 9.80685C70.6596 9.80685 68.8037 10.7655 67.2692 12.6829C66.9271 13.1016 66.7301 13.311 66.6782 13.311C66.5538 13.311 66.4916 13.2008 66.4916 12.9804C66.4916 12.8923 66.4916 12.738 66.5123 12.5286C66.5538 11.5369 66.616 10.7325 66.7093 10.1705C66.7301 10.0052 66.7508 9.85093 66.7508 9.74073C66.7508 9.52035 66.6264 9.41016 66.3776 9.41016C66.305 9.41016 60.8928 11.592 60.8202 11.614C60.6232 11.6911 60.5195 11.8234 60.5195 12.0107C60.5195 12.2311 60.6647 12.3413 60.9446 12.3413C61.0587 12.3413 61.2142 12.3413 61.4112 12.3192C61.5875 12.3082 61.7533 12.2972 61.9296 12.2972C62.6139 12.2972 63.0494 12.3964 63.2671 12.5947C63.5056 12.8261 63.6196 13.4542 63.6196 14.446V24.3413C63.6404 25.4542 63.5885 26.2256 63.4641 26.6443C63.2775 27.1071 62.9353 27.3826 62.4273 27.4928C62.1577 27.5589 62.0229 27.6912 62.0229 27.8895C62.0229 28.0989 62.1681 28.2091 62.448 28.2091H69.1977C69.5917 28.2091 69.7887 28.0878 69.7887 27.8344C69.7887 27.603 69.5813 27.4818 69.177 27.5038C68.1298 27.5038 67.3936 27.1622 66.9685 26.479C66.699 26.0162 66.5331 25.0245 66.4916 23.4818V19.6361C66.4916 18.0493 66.6264 16.6719 66.8856 15.5148C67.0826 14.5782 67.5388 13.7297 68.2438 12.9584C69.2081 11.9226 70.3486 11.4046 71.6757 11.4046C73.4072 11.4046 74.6203 12.2972 75.3046 14.0823C75.74 15.1843 75.9578 16.76 75.9578 18.8096V22.2586C75.9474 23.8564 75.937 24.771 75.9163 24.9804C75.8541 25.9942 75.7089 26.6664 75.4912 26.9859C75.3149 27.2504 75.0039 27.4267 74.5477 27.5148C74.2678 27.5699 74.1226 27.6912 74.1226 27.8895C74.1226 28.0989 74.2574 28.2091 74.5166 28.2091H81.287C81.6914 28.2091 81.8987 28.0768 81.8987 27.7903C81.8987 27.581 81.6914 27.4708 81.287 27.4708L81.2352 27.4818Z" fill="white"/>
<path d="M131.78 27.4818C130.629 27.4046 129.914 26.9198 129.634 26.0383C129.437 25.4322 129.333 24.176 129.323 22.2586V17.5644C129.323 16.3523 129.24 15.3606 129.084 14.5672C128.753 13.0135 128.027 11.8124 126.917 10.9639C125.891 10.1925 124.719 9.80685 123.392 9.80685C121.205 9.80685 119.349 10.7655 117.814 12.6829C117.472 13.1016 117.275 13.311 117.223 13.311C117.099 13.311 117.037 13.2008 117.037 12.9804C117.037 12.8923 117.037 12.738 117.057 12.5286C117.099 11.5369 117.161 10.7325 117.254 10.1705C117.275 10.0052 117.296 9.85093 117.296 9.74073C117.296 9.52035 117.171 9.41016 116.922 9.41016C116.85 9.41016 111.438 11.592 111.365 11.614C111.168 11.6911 111.064 11.8234 111.064 12.0107C111.064 12.2311 111.21 12.3413 111.49 12.3413C111.604 12.3413 111.759 12.3413 111.956 12.3192C112.132 12.3082 112.298 12.2972 112.475 12.2972C113.159 12.2972 113.594 12.3964 113.812 12.5947C114.05 12.8261 114.165 13.4542 114.165 14.446V24.3413C114.185 25.4542 114.133 26.2256 114.009 26.6443C113.822 27.1071 113.48 27.3826 112.972 27.4928C112.703 27.5589 112.568 27.6912 112.568 27.8895C112.568 28.0989 112.713 28.2091 112.993 28.2091H119.743C120.137 28.2091 120.334 28.0878 120.334 27.8344C120.334 27.603 120.126 27.4818 119.722 27.5038C118.675 27.5038 117.939 27.1622 117.513 26.479C117.244 26.0162 117.078 25.0245 117.037 23.4818V19.6361C117.037 18.0493 117.171 16.6719 117.431 15.5148C117.628 14.5782 118.084 13.7297 118.789 12.9584C119.753 11.9226 120.893 11.4046 122.221 11.4046C123.952 11.4046 125.165 12.2972 125.849 14.0823C126.285 15.1843 126.503 16.76 126.503 18.8096V22.2586C126.492 23.8564 126.482 24.771 126.461 24.9804C126.399 25.9942 126.254 26.6664 126.036 26.9859C125.86 27.2504 125.549 27.4267 125.093 27.5148C124.813 27.5699 124.668 27.6912 124.668 27.8895C124.668 28.0989 124.802 28.2091 125.062 28.2091H131.832C132.236 28.2091 132.444 28.0768 132.444 27.7903C132.444 27.581 132.236 27.4708 131.832 27.4708L131.78 27.4818Z" fill="white"/>
<path d="M47.5588 5.83203V12.4767C47.5796 13.0937 47.6418 13.4023 47.7247 13.4023C47.7973 13.4023 47.9632 13.259 48.2224 12.9725C49.1348 11.9257 49.9746 11.1654 50.7211 10.7026C51.7061 10.1075 52.7948 9.82101 53.9664 9.82101C55.4594 9.82101 56.7347 10.3059 57.7819 11.2756C58.8083 12.2232 59.4408 13.5455 59.6689 15.2535C59.7518 15.8926 59.8037 17.0497 59.8037 18.7026V24.2232C59.814 25.5676 60.0836 26.4601 60.6227 26.9229C61.0271 27.2645 61.5974 27.4408 62.3128 27.4519C62.7275 27.4629 62.9452 27.5841 62.9452 27.8045C62.9452 28.08 62.7482 28.2232 62.375 28.2232H55.4179C55.1069 28.2232 54.9513 28.113 54.9513 27.8926C54.9513 27.6943 55.1172 27.5621 55.449 27.4959C55.926 27.3858 56.2474 27.2866 56.3925 27.1764C56.6932 26.956 56.8591 26.5152 56.9109 25.8541C56.9524 25.4464 56.9628 25.0166 56.9628 24.5758V19.0993C56.9628 16.8403 56.7554 15.2315 56.351 14.2728C55.5942 12.5097 54.3189 11.6282 52.5356 11.6282C51.3847 11.6282 50.3479 12.113 49.4251 13.0717C48.1809 14.3499 47.5485 16.2232 47.5485 18.7026V23.6723C47.5485 25.1599 47.7351 26.1406 48.1083 26.6254C48.4816 27.1764 49.1037 27.4739 49.985 27.507C50.493 27.507 50.7419 27.6392 50.7419 27.9037C50.7419 28.113 50.6071 28.2232 50.3375 28.2232H50.1716C49.2903 28.2012 43.2457 28.2232 43.0694 28.2232C42.7998 28.2232 42.665 28.124 42.665 27.9037C42.665 27.7384 42.7998 27.5951 43.0694 27.4849C43.7226 27.2645 44.1581 26.9119 44.3862 26.4161C44.5935 25.9422 44.6972 25.0276 44.6972 23.6612V6.3279" fill="white"/>
<path d="M92.0594 11.3527L92.1112 13.81V14.2838C92.1009 14.5483 91.9972 14.6805 91.8002 14.6805C91.6343 14.6805 91.5202 14.4601 91.4269 14.0083C91.2507 13.1819 90.9085 12.5207 90.4108 12.0138C89.5917 11.2425 88.6586 10.8568 87.5907 10.8568C86.585 10.8568 85.8074 11.1543 85.2579 11.7604C84.812 12.2342 84.5943 12.8293 84.5943 13.5345C84.5943 14.2397 84.8535 14.8458 85.3719 15.2866C85.8488 15.6833 86.5228 16.0689 87.3937 16.4656L89.6021 17.4684C90.8359 18.0194 91.738 18.6475 92.3082 19.3417C92.951 20.124 93.2725 21.2039 93.2725 22.5483C93.2725 24.5318 92.64 26.0634 91.3647 27.1433C90.2761 28.091 88.9593 28.5648 87.3937 28.5648C86.108 28.5648 84.9261 28.3004 83.8478 27.7604C82.925 27.2976 82.4584 26.7577 82.4792 26.1296L82.5206 22.978C82.531 22.5483 82.6658 22.3279 82.925 22.3279C83.0598 22.3279 83.1635 22.4161 83.2257 22.5813C83.2464 22.6254 83.3086 22.8458 83.4123 23.2756C83.713 24.4656 84.2107 25.4464 84.9157 26.1957C85.7763 27.0772 86.7509 27.518 87.8292 27.518C89.0319 27.518 89.965 27.0882 90.6493 26.2177C91.1573 25.5896 91.4062 24.8623 91.4062 24.0359C91.4062 23.2094 91.1366 22.4822 90.6078 21.9092C90.2657 21.5125 89.654 21.1048 88.7934 20.664L86.5124 19.518C85.2682 18.8899 84.3973 18.2838 83.8996 17.7108C83.1946 16.8954 82.8421 15.9147 82.8421 14.7797C82.8421 12.9064 83.6508 11.518 85.2682 10.6254C86.2325 10.0965 87.2796 9.83203 88.3994 9.83203C89.5192 9.83203 90.67 10.0965 91.6758 10.6254C91.8728 10.7356 91.9972 10.8458 92.049 10.978C92.0594 11.0552 92.0698 11.1874 92.0698 11.3747L92.0594 11.3527Z" fill="white"/>
<path d="M103.361 9.80789C105.02 9.80789 106.575 10.3038 108.037 11.2845C109.426 12.2211 110.473 13.4443 111.189 14.9649C111.852 16.3864 112.194 17.7859 112.194 19.1853C112.194 20.8933 111.697 22.5462 110.712 24.155C109.747 25.6867 108.472 26.8657 106.896 27.6812C105.714 28.2762 104.408 28.5627 103.008 28.5627C100.572 28.5627 98.4669 27.56 96.6836 25.5434C95.1491 23.7914 94.3818 21.8079 94.3818 19.593C94.3818 18.5131 94.5477 17.4222 94.8899 16.2983C95.232 15.1853 95.6882 14.2266 96.2688 13.4443C97.0465 12.3644 98.0211 11.5049 99.1823 10.8657C100.447 10.1605 101.837 9.79688 103.371 9.79688L103.361 9.80789ZM102.635 10.8327C100.623 10.8327 99.089 11.8795 98.0522 13.9622C97.513 15.031 97.2331 16.2321 97.2331 17.5875C97.2331 19.6591 97.71 21.5985 98.6639 23.3947C99.3275 24.6509 100.126 25.6316 101.059 26.3148C101.982 26.998 102.967 27.3396 104.004 27.3396C105.31 27.3396 106.461 26.8327 107.435 25.8079C108.659 24.5076 109.271 22.6894 109.271 20.3533C109.271 18.0173 108.68 15.9456 107.487 14.0283C106.834 12.9814 106.108 12.177 105.32 11.6261C104.563 11.0972 103.672 10.8327 102.635 10.8327Z" fill="white"/>
<path d="M22.9552 2.31571C23.2248 2.31571 24.977 4.49753 24.977 4.71791C24.977 4.98237 23.3285 7.51681 22.976 7.51681C22.5405 7.51681 20.9023 5.15868 20.9023 4.77301C20.9023 4.48651 22.6753 2.30469 22.9552 2.30469V2.31571Z" fill="white"/>
<path d="M30.0785 11.9585C29.1972 12.9282 28.6166 14.1954 28.6166 15.5397C28.6166 15.5397 28.6166 15.5618 28.6166 15.5728C28.6166 16.245 28.8032 16.5755 29.1869 16.5755C29.4772 16.5755 31.5923 15.3524 31.5923 14.8786C31.5923 14.6802 31.5612 14.4158 31.5197 14.0852C31.4679 13.7436 31.4471 13.4571 31.4471 13.2147C31.4471 12.5535 31.6234 11.8593 32.1833 11.5397C32.2144 11.5177 32.2351 11.4957 32.2662 11.4846C34.3295 10.526 36.0091 12.0025 36.8178 14.0852C37.0252 14.6251 37.2637 15.2973 37.3363 16.0797C37.357 16.3001 37.3674 16.5204 37.3674 16.7519C37.357 17.0604 37.1911 17.2808 37.0563 17.402C36.8386 17.6114 35.978 17.8538 34.5472 18.2064C32.4943 18.7353 31.1153 19.1871 30.4103 19.5838C29.6534 20.0025 29.0624 20.6196 28.6373 21.413C28.2122 22.2174 28.0049 23.11 28.0049 24.1127C28.0049 25.1926 28.2537 26.0521 28.741 26.7133C29.529 27.7822 30.6073 28.3111 31.9863 28.3111C33.2097 28.3111 34.4228 27.9254 35.6255 27.1651C36.0506 26.8896 36.6727 26.4929 37.3363 25.7766C37.357 25.7546 37.4296 25.6775 37.4296 25.6775C37.471 26.3607 37.5332 26.8676 37.6266 27.1541C37.8132 27.7271 38.259 28.0687 38.9433 28.1899H42.7796C43.1839 28.1899 43.3913 28.0576 43.3913 27.7711C43.3913 27.5618 43.1839 27.4516 42.7796 27.4516C41.6287 27.3744 40.9133 26.8896 40.6333 26.0081C40.4363 25.402 40.3327 24.1458 40.3223 22.2284C40.3223 22.2284 40.3223 17.8538 40.3223 18.6582C40.3223 17.8538 40.3119 17.1706 40.2912 16.5976C40.2601 16.1017 40.2186 15.5728 40.1668 15.0879C39.9179 13.435 39.2958 12.1458 38.3005 11.2202C37.3777 10.3717 36.2787 9.90888 35.0138 9.8097C34.8375 9.79868 34.6613 9.76562 34.485 9.76562C33.78 9.76562 33.106 9.87582 32.4736 10.0852C31.7271 10.3386 31.0739 10.8345 30.5347 11.4406L30.1096 11.9144L30.0785 11.9585ZM37.3674 22.537C37.3674 23.0549 37.3363 23.5287 37.274 23.9805C37.1807 24.6196 36.8282 25.2147 36.1958 25.7546C35.19 26.6031 34.0392 26.9227 32.7535 26.7133C32.712 26.7133 32.6498 26.6802 32.6187 26.6582C31.7167 25.975 31.2605 25.0163 31.2605 23.7822C31.2605 22.9337 31.4782 22.1182 31.9241 21.3359C32.3181 20.6527 32.8883 20.1017 33.6348 19.683C34.7857 19.0218 35.9054 18.7023 36.9941 18.7023C37.1289 18.7023 37.2326 18.7463 37.274 18.8345C37.3881 19.0769 37.3674 22.548 37.3674 22.548V22.537Z" fill="white"/>
<path d="M176.415 0.78125C178.582 0.78125 180.759 1.39833 182.957 2.63249C183.921 3.18345 184.544 3.45894 184.813 3.45894C185.083 3.45894 185.28 3.33772 185.446 3.08428C185.487 3.0402 185.591 2.86389 185.757 2.53332C185.86 2.36803 185.974 2.27987 186.109 2.27987C186.327 2.27987 186.441 2.40108 186.441 2.63249C186.441 2.7537 186.555 9.02367 186.555 9.18896C186.555 9.46445 186.41 9.6077 186.13 9.6077C185.933 9.6077 185.777 9.4975 185.663 9.27712C185.622 9.23304 185.508 8.95756 185.29 8.45067C184.533 6.72064 183.621 5.35425 182.542 4.37354C180.738 2.73166 178.737 1.90522 176.539 1.90522C174.341 1.90522 172.351 2.62147 170.629 4.05398C169.012 5.39833 167.82 7.18345 167.073 9.43139C166.492 11.1394 166.202 12.8584 166.202 14.5774C166.202 17.2992 166.928 19.8005 168.39 22.0815C169.613 24.0099 171.21 25.4093 173.17 26.2799C174.497 26.8529 175.896 27.1504 177.4 27.1504C179.391 27.1504 181.195 26.5994 182.812 25.4975C183.89 24.7592 184.72 24.0099 185.311 23.2275C185.591 22.8639 185.84 22.6766 186.037 22.6766C186.296 22.6766 186.431 22.7868 186.431 22.9961C186.431 23.503 186.026 24.1642 185.228 24.9686C183.828 26.357 182.345 27.3598 180.78 27.9658C179.442 28.4947 177.898 28.7592 176.125 28.7592C174.051 28.7592 172.195 28.3735 170.557 27.6022C168.919 26.8308 167.436 25.6297 166.119 24.0209C164.046 21.4755 163.009 18.4121 163.009 14.8419C163.009 11.9438 163.766 9.27712 165.29 6.84186C167.809 2.81982 171.521 0.814308 176.436 0.814308L176.415 0.78125Z" fill="white"/>
<path d="M196.633 9.80789C198.292 9.80789 199.847 10.3038 201.309 11.2845C202.698 12.2211 203.745 13.4443 204.461 14.9649C205.124 16.3864 205.456 17.7859 205.456 19.1853C205.456 20.8933 204.958 22.5462 203.973 24.155C203.009 25.6867 201.734 26.8657 200.158 27.6812C198.976 28.2762 197.67 28.5627 196.27 28.5627C193.833 28.5627 191.729 27.56 189.945 25.5434C188.411 23.7914 187.644 21.8079 187.644 19.593C187.644 18.5131 187.809 17.4222 188.152 16.2983C188.494 15.1853 188.95 14.2266 189.531 13.4443C190.308 12.3644 191.283 11.5049 192.444 10.8657C193.709 10.1605 195.098 9.79688 196.633 9.79688V9.80789ZM195.907 10.8327C193.896 10.8327 192.361 11.8795 191.324 13.9622C190.785 15.031 190.505 16.2321 190.505 17.5875C190.505 19.6591 190.982 21.5985 191.936 23.3947C192.6 24.6509 193.398 25.6316 194.331 26.3148C195.254 26.998 196.239 27.3396 197.276 27.3396C198.582 27.3396 199.733 26.8327 200.707 25.8079C201.931 24.5076 202.543 22.6894 202.543 20.3533C202.543 18.0173 201.952 15.9456 200.759 14.0283C200.106 12.9814 199.38 12.177 198.592 11.6261C197.835 11.0972 196.944 10.8327 195.907 10.8327Z" fill="white"/>
<path d="M251.459 12.2728C250.07 10.631 248.266 9.80452 246.047 9.80452C244.71 9.80452 243.538 10.1792 242.522 10.9285C242.045 11.2701 241.454 11.8431 240.78 12.6475C240.594 12.8458 240.448 12.945 240.355 12.945C240.22 12.945 240.158 12.8458 240.137 12.6916C240.179 11.7219 240.241 10.9285 240.334 10.3775C240.355 10.2122 240.376 10.058 240.376 9.94777C240.376 9.72738 240.251 9.61719 240.003 9.61719C239.93 9.61719 234.518 11.799 234.445 11.821C234.248 11.8982 234.145 12.0304 234.145 12.2177C234.145 12.4381 234.29 12.5483 234.57 12.5483C234.684 12.5483 234.839 12.5483 235.036 12.5263C235.212 12.5153 235.378 12.5042 235.555 12.5042C236.239 12.5042 236.674 12.6034 236.892 12.8018C237.131 13.0332 237.328 14.5979 237.328 14.5979C237.338 14.8734 237.348 15.1709 237.348 15.5345V31.0387C237.338 32.6585 237.245 33.6943 237.068 34.1571C236.892 34.631 236.519 34.9505 235.938 35.1048C235.358 35.2591 235.067 35.4354 235.067 35.6227C235.067 35.8761 235.223 35.9974 235.534 35.9974H243.393C243.673 35.9974 243.818 35.8761 243.818 35.6447C243.818 35.4133 243.652 35.2701 243.341 35.226C242.159 35.0717 241.35 34.8403 240.936 34.5318C240.469 34.1461 240.22 33.3637 240.21 32.1626V27.6888C240.21 27.3472 240.21 27.1599 240.231 27.1158C240.241 26.9726 240.303 26.8954 240.397 26.8954C240.469 26.8954 240.635 26.9726 240.873 27.1268C242.408 28.0745 243.849 28.5483 245.207 28.5483C247.271 28.5483 249.116 27.7109 250.734 26.0249C252.662 24.0304 253.626 21.485 253.626 18.3996C253.626 15.9974 252.911 13.9478 251.48 12.2508L251.459 12.2728ZM248.753 25.8927C247.768 27.0387 246.638 27.6117 245.384 27.6117C244.565 27.6117 243.797 27.3803 243.082 26.9175C242.201 26.3665 241.527 25.6282 241.06 24.6916C240.459 23.5015 240.148 21.6392 240.148 19.1379C240.148 17.5731 240.282 16.2949 240.542 15.2921C240.863 14.069 241.423 13.1213 242.232 12.4491C243.072 11.7439 243.994 11.3803 245.01 11.3803C246.41 11.3803 247.592 11.9533 248.556 13.1103C250.018 14.8844 250.744 17.1434 250.744 19.8872C250.744 22.3445 250.08 24.339 248.764 25.8817L248.753 25.8927Z" fill="white"/>
<path d="M288.132 27.4818C286.981 27.4046 286.265 26.9198 285.985 26.0383C285.788 25.4322 285.685 24.176 285.674 22.2586V17.5644C285.674 16.3523 285.591 15.3606 285.436 14.5672C285.104 13.0135 284.378 11.8124 283.269 10.9639C282.243 10.1925 281.071 9.80685 279.744 9.80685C277.556 9.80685 275.7 10.7655 274.166 12.6829C273.824 13.1016 273.627 13.311 273.575 13.311C273.45 13.311 273.388 13.2008 273.388 12.9804C273.388 12.8923 273.388 12.738 273.409 12.5286C273.45 11.5369 273.513 10.7325 273.606 10.1705C273.627 10.0052 273.647 9.85093 273.647 9.74073C273.647 9.52035 273.523 9.41016 273.274 9.41016C273.201 9.41016 267.789 11.592 267.717 11.614C267.52 11.6911 267.416 11.8234 267.416 12.0107C267.416 12.2311 267.561 12.3413 267.841 12.3413C267.955 12.3413 268.111 12.3413 268.308 12.3192C268.484 12.3082 268.65 12.2972 268.826 12.2972C269.51 12.2972 269.946 12.3964 270.164 12.5947C270.402 12.8261 270.516 13.4542 270.516 14.446V24.3413C270.537 25.4542 270.485 26.2256 270.361 26.6443C270.174 27.1071 269.832 27.3826 269.324 27.4928C269.054 27.5589 268.919 27.6912 268.919 27.8895C268.919 28.0989 269.065 28.2091 269.344 28.2091H276.094C276.488 28.2091 276.685 28.0878 276.685 27.8344C276.685 27.603 276.478 27.4818 276.073 27.5038C275.026 27.5038 274.29 27.1622 273.865 26.479C273.595 26.0162 273.43 25.0245 273.388 23.4818V19.6361C273.388 18.0493 273.523 16.6719 273.782 15.5148C273.979 14.5782 274.435 13.7297 275.14 12.9584C276.105 11.9226 277.245 11.4046 278.572 11.4046C280.304 11.4046 281.517 12.2972 282.201 14.0823C282.636 15.1843 282.854 16.76 282.854 18.8096V22.2586C282.844 23.8564 282.833 24.771 282.813 24.9804C282.751 25.9942 282.605 26.6664 282.388 26.9859C282.211 27.2504 281.9 27.4267 281.444 27.5148C281.164 27.5699 281.019 27.6912 281.019 27.8895C281.019 28.0989 281.144 28.2091 281.413 28.2091H288.184C288.588 28.2091 288.795 28.0768 288.795 27.7903C288.795 27.581 288.588 27.4708 288.184 27.4708L288.132 27.4818Z" fill="white"/>
<path d="M302.606 10.1712H297.215C296.903 10.1712 296.748 10.2814 296.748 10.4907C296.748 10.7001 296.893 10.8323 297.173 10.8874C297.774 11.0086 298.2 11.1409 298.448 11.2841C298.915 11.5596 299.153 12.0555 299.153 12.7827C299.153 13.6973 298.988 14.656 298.676 15.6367L296.447 22.3916C296.116 23.229 295.877 23.6478 295.742 23.6478C295.545 23.6478 295.234 23.1188 294.819 22.072L292.331 15.9012C291.688 14.3254 291.325 13.4108 291.232 13.1574C291.087 12.6946 291.014 12.331 291.014 12.0555C291.014 11.4825 291.439 11.0858 292.29 10.8984C292.632 10.8213 292.808 10.6891 292.808 10.5018C292.808 10.2814 292.673 10.1712 292.404 10.1712H285.799C285.426 10.1712 285.239 10.2814 285.239 10.5018C285.239 10.7111 285.405 10.8544 285.727 10.9315C286.39 11.1078 286.877 11.3943 287.188 11.802C287.396 12.0996 287.748 12.8158 288.225 13.9508L293.399 25.6973C293.803 26.634 294.011 27.3943 294.011 28.0004C294.011 29.0142 293.627 30.1381 293.067 31.4825C291.73 34.667 286.276 35.0637 285.675 35.185C285.395 35.24 285.25 35.3723 285.25 35.5816C285.25 35.791 285.405 35.9012 285.716 35.9012H292.632C292.932 35.9012 293.119 35.7029 293.202 35.3062C293.285 34.9535 293.834 33.2015 294.83 30.061L300.004 15.5596C300.584 13.9728 301.03 12.8489 301.341 12.1877C301.673 11.5265 302.067 11.0968 302.523 10.8874C302.834 10.7442 302.99 10.6009 302.99 10.4577C302.99 10.2593 302.855 10.1602 302.596 10.1602L302.606 10.1712Z" fill="white"/>
<path d="M256.551 11.9546C255.669 12.9243 255.089 14.1915 255.089 15.5358C255.089 15.5358 255.089 15.5579 255.089 15.5689C255.089 16.2411 255.275 16.5716 255.659 16.5716C255.949 16.5716 258.064 15.3485 258.064 14.8747C258.064 14.6763 258.033 14.4119 257.992 14.0813C257.94 13.7397 257.919 13.4532 257.919 13.2108C257.919 12.5496 258.095 11.8554 258.655 11.5358C258.686 11.5138 258.707 11.4917 258.738 11.4807C260.802 10.522 262.481 11.9986 263.29 14.0813C263.497 14.6212 263.736 15.2934 263.808 16.0758C263.829 16.2962 263.839 16.5165 263.839 16.7479C263.829 17.0565 263.663 17.2769 263.539 17.3981C263.321 17.6075 262.46 17.8499 261.03 18.2025C258.977 18.7314 257.598 19.1832 256.893 19.5799C256.136 19.9986 255.545 20.6157 255.12 21.4091C254.695 22.2135 254.487 23.1061 254.487 24.1088C254.487 25.1887 254.736 26.0482 255.223 26.7094C256.011 27.7783 257.09 28.3072 258.469 28.3072C259.692 28.3072 260.905 27.9215 262.108 27.1612C262.533 26.8857 263.155 26.489 263.819 25.7727C263.839 25.7507 263.912 25.6736 263.912 25.6736C263.953 26.3568 264.016 26.8636 264.109 27.1502C264.296 27.7232 264.741 28.0648 265.426 28.186H269.262C269.666 28.186 269.874 28.0537 269.874 27.7672C269.874 27.5579 269.666 27.4477 269.262 27.4477C268.111 27.3705 267.396 26.8857 267.116 26.0041C266.919 25.3981 266.815 24.1419 266.805 22.2245C266.805 22.2245 266.805 17.8499 266.805 18.6543C266.805 17.8499 266.794 17.1667 266.774 16.5937C266.742 16.0978 266.701 15.5689 266.649 15.084C266.4 13.4311 265.789 12.1419 264.783 11.2163C263.86 10.3678 262.761 9.90497 261.496 9.8058C261.32 9.79478 261.144 9.76172 260.967 9.76172C260.262 9.76172 259.588 9.87191 258.956 10.0813C258.209 10.3347 257.556 10.8306 257.017 11.4367L256.592 11.9105L256.551 11.9546ZM263.839 22.5331C263.839 23.051 263.808 23.5248 263.746 23.9766C263.653 24.6157 263.3 25.2108 262.668 25.7507C261.662 26.5992 260.511 26.9187 259.226 26.7094C259.184 26.7094 259.122 26.6763 259.091 26.6543C258.189 25.9711 257.733 25.0124 257.733 23.7783C257.733 22.9298 257.95 22.1143 258.396 21.332C258.79 20.6488 259.36 20.0978 260.107 19.6791C261.258 19.0179 262.378 18.6984 263.466 18.6984C263.601 18.6984 263.705 18.7424 263.746 18.8306C263.86 19.073 263.839 22.5441 263.839 22.5441V22.5331Z" fill="white"/>
<path d="M235.772 27.5015C234.891 27.4354 234.259 27.0828 233.865 26.4326C233.606 26.0359 233.471 25.1213 233.46 23.6888V17.4188C233.46 16.0965 233.357 15.0277 233.16 14.2232C232.859 12.9781 232.247 11.9533 231.325 11.1489C230.277 10.2453 228.981 9.7935 227.447 9.7935C225.912 9.7935 224.513 10.3224 223.31 11.3693C222.657 11.9423 222.107 12.7246 221.682 13.7164C221.475 13.1103 221.278 12.6365 221.091 12.2949C220.78 11.6998 220.334 11.1929 219.733 10.7632C218.82 10.1241 217.763 9.7935 216.581 9.7935C215.129 9.7935 213.864 10.2563 212.776 11.1709C212.548 11.3913 212.289 11.6888 211.729 12.339C211.542 12.5373 211.397 12.6365 211.304 12.6365C211.169 12.6365 211.107 12.5373 211.086 12.383V12.339C211.086 12.1957 211.086 12.0524 211.107 11.9202C211.148 11.3031 211.2 10.7742 211.262 10.3775C211.283 10.2122 211.304 10.058 211.304 9.94777C211.304 9.72738 211.179 9.61719 210.93 9.61719C210.858 9.61719 205.446 11.799 205.373 11.821C205.176 11.8982 205.072 12.0304 205.072 12.2177C205.072 12.4381 205.217 12.5483 205.497 12.5483C205.611 12.5483 205.767 12.5483 205.964 12.5263C206.14 12.5153 206.306 12.5042 206.482 12.5042C207.167 12.5042 207.602 12.6034 207.82 12.8018C208.017 13.0111 208.058 13.3197 208.058 13.3197C208.121 13.6062 208.152 14.058 208.152 14.675V23.3693C208.152 24.3169 208.121 25.1544 208.058 25.8927C207.986 26.7522 207.675 27.248 207.136 27.3913C206.545 27.5235 206.244 27.6778 206.244 27.8651C206.244 28.0855 206.399 28.1957 206.71 28.1957H213.719C213.979 28.1957 214.113 28.0855 214.113 27.8651C214.113 27.6447 213.958 27.5125 213.647 27.4905C212.931 27.4133 212.403 27.2701 212.05 27.0607C211.594 26.7963 211.293 26.3004 211.158 25.5621C211.044 25.0111 210.993 24.0304 210.993 22.6089V18.3334C210.993 15.4464 211.666 13.3858 213.014 12.1626C213.792 11.4794 214.621 11.1378 215.503 11.1378C216.135 11.1378 216.747 11.3142 217.338 11.6558C217.929 12.0084 218.385 12.4602 218.696 13.0221C219.214 13.9257 219.474 15.2701 219.474 17.0662V22.5979C219.484 23.3031 219.463 24.1957 219.401 25.2536C219.339 26.1131 219.194 26.6861 218.955 26.9836C218.779 27.1819 218.478 27.3472 218.043 27.4794C217.773 27.5566 217.639 27.6888 217.639 27.8761C217.639 28.0855 217.784 28.1957 218.084 28.1957H224.886C225.197 28.1957 225.352 28.0745 225.352 27.8431C225.352 27.6227 225.166 27.5015 224.793 27.4905C224.461 27.4794 224.077 27.4023 223.662 27.2591C223.206 27.1158 222.874 26.8073 222.657 26.3334C222.46 25.9257 222.346 24.8018 222.325 22.9615V17.0662C222.325 13.1434 223.694 11.1709 226.42 11.1709C227.322 11.1709 228.11 11.4244 228.795 11.9202C229.365 12.339 229.79 12.923 230.091 13.6723C230.433 14.5759 230.609 15.821 230.609 17.4188V23.6888C230.609 24.2398 230.609 24.8679 230.588 25.5841C230.568 26.1461 230.485 26.5428 230.371 26.7632C230.122 27.1489 229.749 27.3803 229.241 27.4684C228.929 27.5235 228.774 27.6447 228.774 27.8431C228.774 28.0745 228.929 28.1957 229.241 28.1957H235.897C236.146 28.1957 236.27 28.0745 236.27 27.821C236.27 27.6227 236.104 27.5125 235.793 27.4905L235.772 27.5015Z" fill="white"/>
</g>
<defs>
<clipPath id="clip0_282_398">
<rect width="303" height="36" fill="white"/>
</clipPath>
</defs>
</svg>
