<svg width="112" height="40" viewBox="0 0 112 40" fill="none" xmlns="http://www.w3.org/2000/svg">
<g clip-path="url(#clip0_350_2606)">
<path d="M10.3194 8.22754C11.2113 8.22754 12.2752 8.49357 13.5135 9.02562C13.9386 9.20777 14.2531 9.29884 14.4521 9.29884C14.7175 9.29884 14.9583 9.13587 15.1696 8.81232C15.3023 8.57985 15.4423 8.46241 15.5897 8.46241C15.8305 8.46241 15.9141 8.67092 15.9485 9.08554C16.1377 11.2569 16.5677 14.2311 16.5677 14.478C16.5677 14.7248 16.4546 14.8471 16.2286 14.8471C16.0148 14.8471 15.7961 14.5882 15.5701 14.0682C15.0369 12.8746 14.5381 11.9663 14.0737 11.3432C13.0885 10.0466 11.8845 9.3971 10.4619 9.3971C9.62401 9.3971 8.95815 9.70867 8.46674 10.3318C7.96059 10.9669 7.70751 11.7913 7.70751 12.8051C7.70751 13.9867 8.08098 15.1946 8.82547 16.4265C9.4643 17.4786 10.6216 18.931 12.2973 20.786C13.1474 21.7206 14.9116 23.4606 17.5873 26.0035C19.1304 27.4822 20.0346 28.3474 20.3024 28.5918C20.5677 28.8387 20.7471 28.9609 20.8405 28.9609C21.0542 28.9609 21.2459 28.6374 21.4203 27.9879C21.6071 27.2881 21.7004 26.5355 21.7004 25.7302C21.7004 24.7836 21.4744 23.9783 21.0223 23.3168C20.5039 22.5643 19.8061 22.0322 18.9264 21.7206C18.5014 21.5649 18.2532 21.4618 18.1893 21.4091C18.0959 21.33 18.0493 21.2413 18.0493 21.1359C18.0493 20.9274 18.2016 20.8243 18.5087 20.8243C18.7618 20.8243 24.7079 21.1359 24.9757 21.1359C25.2435 21.1359 25.3934 21.2389 25.3934 21.4474C25.3934 21.6416 25.1993 21.8045 24.8135 21.9339C24.187 22.1688 23.7963 22.478 23.6366 22.8686C23.4376 23.3096 23.2902 24.0813 23.1968 25.1862C23.1034 26.212 22.9634 27.0292 22.7766 27.638C22.6562 28.067 22.4449 28.611 22.1378 29.2725C22.0444 29.4666 21.9978 29.6296 21.9978 29.759C21.9978 29.9675 22.2238 30.2599 22.6759 30.6362C24.6047 32.2323 26.2214 33.3947 27.5261 34.1209C28.7227 34.7824 30.2141 35.1538 31.998 35.2305C32.3026 35.2305 32.4574 35.3144 32.4574 35.4846C32.4574 35.6667 32.31 35.8297 32.0176 35.9711C31.3911 36.2827 30.4599 36.4384 29.224 36.4384C26.2706 36.4384 23.4622 35.3935 20.8012 33.3036C20.494 33.0568 20.2827 32.9345 20.1623 32.9345C20.0296 32.9345 19.7029 33.1239 19.1844 33.5002C16.5505 35.3959 13.7961 36.3426 10.9213 36.3426C9.60436 36.3426 8.2972 36.1317 6.99988 35.7099C5.70255 35.2881 4.57476 34.7081 3.61651 33.9675C2.3929 33.0328 1.46904 31.8465 0.842495 30.4037C0.284743 29.1311 0.00463867 27.7746 0.00463867 26.3342C0.00463867 24.4648 0.56239 22.8303 1.68035 21.4283C2.57226 20.3114 3.70251 19.4822 5.07355 18.9357C5.7001 18.6769 6.01214 18.4564 6.01214 18.2743C6.01214 18.2359 5.86472 17.9555 5.57233 17.4378C4.90647 16.2563 4.57476 15.0364 4.57476 13.7782C4.57476 12.1556 5.1276 10.8255 6.23082 9.78775C7.33649 8.75001 8.70016 8.22994 10.3218 8.22994L10.3194 8.22754ZM6.60675 19.6356C6.27505 19.6356 5.85243 19.7818 5.33891 20.0742C4.82784 20.3665 4.3782 20.7069 3.99244 21.0975C3.08824 22.0442 2.63615 23.1994 2.63615 24.5631C2.63615 26.5619 3.30692 28.4121 4.65093 30.1113C6.67309 32.6805 9.29477 33.9651 12.5135 33.9651C14.629 33.9651 16.4129 33.4858 17.8625 32.5247C18.4473 32.1365 18.7422 31.8441 18.7422 31.6499C18.7422 31.5061 18.3883 31.1251 17.6832 30.502C15.7126 28.8027 14.0443 27.2449 12.6732 25.8285C11.3022 24.4121 9.75178 22.6553 8.02201 20.5535C7.51586 19.9423 7.0441 19.638 6.60429 19.638L6.60675 19.6356Z" fill="#581123"/>
<path d="M19.5557 14.5813V3.45365C19.5557 2.67713 19.4107 2.10434 19.1183 1.73286C18.8358 1.42129 18.3493 1.1984 17.6588 1.0594C17.4033 1.00667 17.2731 0.913204 17.2731 0.774198C17.2731 0.611226 17.3836 0.527344 17.6048 0.527344H23.1504C23.3617 0.527344 23.4673 0.618416 23.4673 0.798165C23.4673 0.927583 23.3002 1.03064 22.9636 1.10733C22.5484 1.21039 22.2511 1.42369 22.0742 1.74244C21.9071 2.0612 21.8211 2.53573 21.8211 3.16605V13.335C21.8211 14.9647 21.8235 16.0816 22.0742 16.5944C22.686 17.8527 27.6369 17.3853 28.7893 16.7718C29.2684 16.5178 30.4257 15.2451 30.6296 14.8737C30.7009 14.7442 30.7844 14.6795 30.8827 14.6795C31.0498 14.6795 31.1358 14.7994 31.1358 15.0414C31.1358 15.7772 30.1038 17.3614 29.6984 17.9557C29.6001 18.0995 29.433 18.1858 29.2561 18.1858H18.2313C18.0372 18.1858 17.9389 18.1091 17.9389 17.9533C17.9389 17.8239 18.0495 17.7257 18.2706 17.6562C18.6245 17.5531 18.8751 17.4405 19.0274 17.3206C19.2829 17.0953 19.4377 16.6783 19.4918 16.0648C19.536 15.6598 19.5581 15.1637 19.5581 14.5765L19.5557 14.5813Z" fill="#581123"/>
<path d="M31.3643 18.1905C31.1161 18.1905 30.9932 18.109 30.9932 17.9436C30.9932 17.8238 31.0989 17.7447 31.3127 17.7112C31.8606 17.6345 32.2144 17.4212 32.3741 17.076C32.4896 16.81 32.5461 16.2396 32.5461 15.3672V9.29893C32.5461 8.64465 32.4626 8.23722 32.293 8.08144C32.1431 7.95202 31.8237 7.88731 31.3372 7.88731C31.2144 7.88731 31.0891 7.8921 30.9662 7.89929C30.8237 7.90888 30.7131 7.91128 30.6345 7.91128C30.4306 7.91128 30.3298 7.83938 30.3298 7.69079C30.3298 7.56856 30.4011 7.48228 30.5461 7.43195C30.5952 7.41517 34.4675 5.98438 34.5216 5.98438C34.6985 5.98438 34.7869 6.05867 34.7869 6.20487C34.7869 6.28156 34.7771 6.37742 34.7599 6.49007C34.6616 7.0413 34.6051 7.91367 34.5879 9.10481V15.3672C34.5879 16.0575 34.6272 16.5272 34.7083 16.7765C34.8312 17.112 35.0941 17.3636 35.4921 17.5266C35.7231 17.5961 36.0843 17.6656 36.5806 17.7327C36.7919 17.7591 36.9 17.8286 36.9 17.9388C36.9 18.1018 36.7575 18.1857 36.4749 18.1857" fill="#581123"/>
<path d="M49.2517 9.38042V3.31212C49.2517 2.65783 49.1681 2.2504 48.9986 2.09462C48.8487 1.9652 48.5293 1.90049 48.0428 1.90049C47.9199 1.90049 47.7946 1.90529 47.6718 1.91248C47.5293 1.92206 47.4187 1.92446 47.3401 1.92446C47.1361 1.92446 47.0354 1.85256 47.0354 1.70397C47.0354 1.58174 47.1067 1.49546 47.2516 1.44513C47.3008 1.42836 51.1731 -0.00244141 51.2271 -0.00244141C51.404 -0.00244141 51.4925 0.0718546 51.4925 0.21805C51.4925 0.294743 51.4827 0.390608 51.4655 0.503251C51.3672 1.05448 51.3107 1.92686 51.2935 3.11799V9.38042" fill="#581123"/>
<path d="M75.3997 17.7138C74.5766 17.661 74.063 17.3471 73.8616 16.7695C73.7191 16.3716 73.6454 15.5448 73.6355 14.2842V11.2045C73.6355 10.4112 73.579 9.7545 73.4635 9.23682C73.2252 8.21825 72.7068 7.42975 71.9107 6.86894C71.176 6.36085 70.3357 6.10441 69.3897 6.10441C67.8246 6.10441 66.4929 6.73472 65.397 7.99296C65.1488 8.26858 65.0088 8.40758 64.9719 8.40758C64.8835 8.40758 64.8393 8.33568 64.8393 8.18709C64.8393 8.12717 64.8442 8.02652 64.8515 7.88991C64.881 7.23802 64.9277 6.71315 64.9916 6.34407C65.0088 6.23143 65.0186 6.13796 65.0186 6.05887C65.0186 5.91267 64.9302 5.83838 64.7533 5.83838C64.6992 5.83838 60.8269 7.26918 60.7777 7.28595C60.6328 7.33628 60.5615 7.42256 60.5615 7.54479C60.5615 7.69099 60.6623 7.76528 60.8662 7.76528C60.9448 7.76528 61.0554 7.76049 61.1979 7.7533C61.3208 7.74371 61.4461 7.74131 61.5689 7.74131C62.0554 7.74131 62.3724 7.80602 62.5247 7.93544C62.6918 8.09122 62.7778 8.49626 62.7778 9.15294L62.7852 15.6526C62.7925 16.386 62.7532 16.8893 62.6648 17.1673C62.5321 17.4693 62.2839 17.6538 61.9227 17.7233C61.7286 17.7665 61.6303 17.8528 61.6303 17.9822C61.6303 18.1212 61.7311 18.1883 61.935 18.1883H66.7631C67.0457 18.1883 67.1882 18.1068 67.1882 17.9414C67.1882 17.7857 67.0432 17.7138 66.7509 17.7209C65.999 17.7209 65.4732 17.4957 65.171 17.0475C64.9769 16.7455 64.8614 16.0888 64.827 15.0798V12.5562C64.827 11.5136 64.9203 10.6101 65.1046 9.85276C65.2471 9.23922 65.569 8.6808 66.0727 8.17031C66.7631 7.48967 67.5813 7.14695 68.5273 7.14695C69.7657 7.14695 70.6305 7.73412 71.1269 8.90608C71.4365 9.62987 71.5912 10.6652 71.5912 12.0121V14.277C71.5814 15.3291 71.5741 15.9235 71.5642 16.0625C71.52 16.7263 71.4193 17.1673 71.2595 17.383C71.1342 17.5556 70.9106 17.673 70.5839 17.7329C70.3799 17.7665 70.2792 17.8504 70.2792 17.9798C70.2792 18.1188 70.3726 18.1859 70.5568 18.1859H75.3972C75.6896 18.1859 75.8346 18.0948 75.8346 17.9151C75.8346 17.7761 75.6896 17.709 75.3972 17.709L75.3997 17.7138Z" fill="#581123"/>
<path d="M111.563 17.7138C110.74 17.661 110.226 17.3471 110.025 16.7695C109.882 16.3716 109.808 15.5448 109.798 14.2842V11.2045C109.798 10.4112 109.742 9.7545 109.626 9.23682C109.388 8.21825 108.87 7.42975 108.074 6.86894C107.339 6.36085 106.499 6.10441 105.553 6.10441C103.988 6.10441 102.656 6.73472 101.56 7.99296C101.312 8.26858 101.172 8.40758 101.135 8.40758C101.046 8.40758 101.002 8.33568 101.002 8.18709C101.002 8.12717 101.007 8.02652 101.015 7.88991C101.044 7.23802 101.091 6.71315 101.155 6.34407C101.172 6.23143 101.182 6.13796 101.182 6.05887C101.182 5.91267 101.093 5.83838 100.916 5.83838C100.862 5.83838 96.9899 7.26918 96.9407 7.28595C96.7957 7.33628 96.7245 7.42256 96.7245 7.54479C96.7245 7.69099 96.8252 7.76528 97.0292 7.76528C97.1078 7.76528 97.2184 7.76049 97.3609 7.7533C97.4837 7.74371 97.609 7.74131 97.7319 7.74131C98.2184 7.74131 98.5353 7.80602 98.6877 7.93544C98.8548 8.09122 98.9407 8.49626 98.9407 9.15294L98.9481 15.6526C98.9555 16.386 98.9162 16.8893 98.8277 17.1673C98.695 17.4693 98.4469 17.6538 98.0857 17.7233C97.8916 17.7665 97.7933 17.8528 97.7933 17.9822C97.7933 18.1212 97.894 18.1883 98.098 18.1883H102.926C103.209 18.1883 103.351 18.1068 103.351 17.9414C103.351 17.7857 103.206 17.7138 102.914 17.7209C102.162 17.7209 101.636 17.4957 101.334 17.0475C101.14 16.7455 101.024 16.0888 100.99 15.0798V12.5562C100.99 11.5136 101.083 10.6101 101.268 9.85276C101.41 9.23922 101.732 8.6808 102.236 8.17031C102.926 7.48967 103.744 7.14695 104.69 7.14695C105.929 7.14695 106.794 7.73412 107.29 8.90608C107.599 9.62987 107.754 10.6652 107.754 12.0121V14.277C107.744 15.3291 107.737 15.9235 107.727 16.0625C107.683 16.7263 107.582 17.1673 107.423 17.383C107.297 17.5556 107.074 17.673 106.747 17.7329C106.543 17.7665 106.442 17.8504 106.442 17.9798C106.442 18.1188 106.536 18.1859 106.72 18.1859H111.56C111.853 18.1859 111.998 18.0948 111.998 17.9151C111.998 17.7761 111.853 17.709 111.56 17.709L111.563 17.7138Z" fill="#581123"/>
<path d="M51.3057 3.49414V7.85364C51.3229 8.25867 51.3623 8.46239 51.4261 8.46239C51.4802 8.46239 51.5981 8.36652 51.7849 8.17719C52.4385 7.48695 53.0355 6.99085 53.5761 6.68887C54.2837 6.30061 55.0577 6.10648 55.898 6.10648C56.9668 6.10648 57.8784 6.42524 58.6302 7.06514C59.3649 7.68587 59.8145 8.55825 59.9841 9.67988C60.0455 10.1017 60.0774 10.8566 60.0774 11.9447V15.5684C60.0873 16.448 60.2814 17.04 60.6622 17.342C60.9546 17.5672 61.3576 17.6823 61.8686 17.6919C62.1684 17.7015 62.3207 17.7781 62.3207 17.9243C62.3207 18.1065 62.1831 18.1952 61.9104 18.1952H56.9349C56.7137 18.1952 56.6032 18.1233 56.6032 17.9747C56.6032 17.8453 56.7236 17.759 56.9619 17.7158C57.3059 17.6463 57.5319 17.5768 57.6376 17.5097C57.8489 17.3635 57.9742 17.0735 58.0086 16.6421C58.0356 16.3761 58.0479 16.0957 58.0479 15.8009V12.2035C58.0479 10.72 57.9029 9.66311 57.6106 9.03279C57.07 7.8776 56.1609 7.30001 54.8783 7.30001C54.0552 7.30001 53.3132 7.61397 52.6498 8.24429C51.7554 9.08072 51.3107 10.315 51.3107 11.9447V15.2041C51.3107 16.1796 51.4433 16.8267 51.7087 17.1454C51.9741 17.5073 52.4213 17.7015 53.0478 17.7278C53.4114 17.7278 53.5908 17.8141 53.5908 17.9867C53.5908 18.1257 53.4925 18.1928 53.2984 18.1928H53.178C52.549 18.176 48.2221 18.1928 48.0968 18.1928C47.9027 18.1928 47.8044 18.1233 47.8044 17.9867C47.8044 17.874 47.9027 17.7829 48.0968 17.7158C48.5661 17.5696 48.8782 17.3372 49.0379 17.0184C49.1878 16.7068 49.2639 16.1053 49.2639 15.2065V3.81769" fill="#581123"/>
<path d="M83.1394 7.11552L83.1787 8.73326V9.04482C83.1688 9.21738 83.0951 9.30366 82.9526 9.30366C82.8371 9.30366 82.7487 9.15746 82.6873 8.86268C82.5619 8.31864 82.3187 7.88485 81.9575 7.5565C81.3727 7.04842 80.702 6.79198 79.9403 6.79198C79.2253 6.79198 78.6675 6.9909 78.2695 7.38634C77.95 7.69791 77.7928 8.08377 77.7928 8.55111C77.7928 9.01846 77.9795 9.40911 78.3506 9.7039C78.6945 9.96274 79.1761 10.2216 79.7953 10.4804L81.3727 11.1395C82.2573 11.5014 82.9035 11.9112 83.3089 12.369C83.7684 12.8866 83.9993 13.5889 83.9993 14.478C83.9993 15.7794 83.5448 16.786 82.6332 17.493C81.8543 18.1137 80.9084 18.4253 79.7953 18.4253C78.8764 18.4253 78.0311 18.2479 77.2621 17.8956C76.5987 17.5937 76.2719 17.2366 76.2817 16.8219L76.3087 14.7512C76.3186 14.466 76.4144 14.3246 76.6011 14.3246C76.6994 14.3246 76.7682 14.3798 76.8124 14.4924C76.8296 14.5188 76.8739 14.6697 76.9451 14.9454C77.1564 15.7315 77.5152 16.369 78.0188 16.8603C78.638 17.4379 79.3309 17.7279 80.1024 17.7279C80.9599 17.7279 81.6332 17.4427 82.1197 16.8747C82.4809 16.46 82.6627 15.9831 82.6627 15.4391C82.6627 14.895 82.4735 14.4205 82.0926 14.0418C81.8445 13.783 81.412 13.5122 80.7929 13.227L79.1614 12.4768C78.267 12.0622 77.6454 11.6667 77.2916 11.2857C76.7879 10.7512 76.5348 10.1089 76.5348 9.35878C76.5348 8.12451 77.1147 7.21618 78.2719 6.629C78.9624 6.28389 79.7093 6.11133 80.5128 6.11133C81.3162 6.11133 82.1344 6.28389 82.8617 6.629C83.0042 6.69851 83.0902 6.7752 83.1271 6.86148C83.1369 6.9142 83.1394 7.00048 83.1394 7.12032V7.11552Z" fill="#581123"/>
<path d="M91.2256 6.1064C92.4099 6.1064 93.5254 6.42995 94.5672 7.07704C95.5574 7.69058 96.3092 8.49586 96.8227 9.49765C97.2994 10.4299 97.5377 11.3527 97.5377 12.2658C97.5377 13.3874 97.1839 14.4731 96.4763 15.5252C95.7859 16.5342 94.8767 17.3059 93.744 17.8404C92.8964 18.2286 91.9676 18.4228 90.9577 18.4228C89.2157 18.4228 87.7071 17.7637 86.4343 16.4431C85.3385 15.2951 84.7905 13.9938 84.7905 12.5366C84.7905 11.8296 84.9109 11.1082 85.1542 10.3748C85.3974 9.64145 85.7267 9.01593 86.1419 8.49825C86.6997 7.79124 87.3926 7.22563 88.2255 6.80382C89.1272 6.33888 90.1273 6.104 91.2231 6.104L91.2256 6.1064ZM90.7096 6.77986C89.2673 6.77986 88.1764 7.4653 87.4343 8.83618C87.0461 9.5336 86.8495 10.3293 86.8495 11.216C86.8495 12.5797 87.1886 13.8524 87.8717 15.0339C88.3483 15.8607 88.9208 16.5006 89.5818 16.9488C90.2452 17.397 90.9479 17.6223 91.6899 17.6223C92.6261 17.6223 93.4443 17.2867 94.1445 16.6133C95.0193 15.7601 95.4566 14.5642 95.4566 13.0303C95.4566 11.4965 95.0315 10.1376 94.1839 8.87692C93.7146 8.18669 93.1986 7.66182 92.631 7.29753C92.0904 6.95242 91.4516 6.77986 90.7071 6.77986H90.7096Z" fill="#581123"/>
<path d="M33.696 1.1792C33.8901 1.1792 35.1408 2.61239 35.1408 2.75859C35.1408 2.93115 33.9639 4.59681 33.7083 4.59681C33.3987 4.59681 32.2218 3.04858 32.2218 2.79933C32.2218 2.61 33.4896 1.1816 33.6936 1.1816L33.696 1.1792Z" fill="#581123"/>
<path d="M38.7944 7.51572C38.1654 8.15083 37.7501 8.98486 37.7452 9.86683C37.7452 9.87402 37.7452 9.87881 37.7452 9.886C37.7452 10.327 37.8804 10.5451 38.1531 10.5451C38.3619 10.5451 39.8779 9.7422 39.8779 9.43303C39.8779 9.30361 39.8583 9.13106 39.8239 8.91536C39.787 8.69007 39.7698 8.50074 39.7698 8.34496C39.7698 7.91356 39.8927 7.4558 40.2981 7.2425C40.3202 7.23052 40.3325 7.21374 40.3546 7.20415C41.8288 6.57623 43.0303 7.54448 43.6078 8.91536C43.7601 9.27006 43.9272 9.71104 43.9812 10.2215C43.996 10.3653 44.0058 10.5115 44.0009 10.6649C43.9935 10.8662 43.8731 11.0148 43.7822 11.0963C43.625 11.2353 43.0131 11.3935 41.991 11.626C40.5241 11.9711 39.5389 12.2731 39.0327 12.5319C38.4897 12.8075 38.0671 13.2101 37.7624 13.735C37.4602 14.2623 37.3079 14.8518 37.3079 15.5085C37.3079 16.2155 37.4848 16.7859 37.8361 17.2173C38.3963 17.9148 39.1703 18.2647 40.158 18.2647C41.0352 18.2647 41.905 18.0154 42.765 17.5145C43.0697 17.3348 43.5168 17.0711 43.9886 16.6062C44.0058 16.5894 44.0525 16.5439 44.0525 16.5439C44.0795 16.9897 44.1262 17.3228 44.1925 17.5121C44.3252 17.8908 44.6471 18.1137 45.1336 18.1928H47.8806C48.173 18.1928 48.3179 18.1017 48.3179 17.9219C48.3179 17.7829 48.173 17.7158 47.8806 17.7158C47.0575 17.6631 46.5439 17.3492 46.3425 16.7716C46.1999 16.3737 46.1262 15.5469 46.1164 14.2862C46.1164 14.2862 46.1115 11.4127 46.1115 11.9447C46.1115 11.4151 46.1041 10.9645 46.0894 10.593C46.0673 10.2695 46.0353 9.91955 46.0009 9.60319C45.824 8.51991 45.3817 7.6715 44.6643 7.06515C44.0058 6.50673 43.2171 6.20715 42.3129 6.13765C42.1851 6.12806 42.0647 6.10889 41.932 6.10889C41.4283 6.10889 40.9468 6.17839 40.4897 6.31979C39.9541 6.48276 39.4897 6.8135 39.1015 7.20895L38.7944 7.51811V7.51572ZM44.0132 14.4612C44.0132 14.7967 43.9911 15.1131 43.9444 15.4055C43.8805 15.8273 43.6225 16.2155 43.1704 16.5702C42.448 17.1287 41.6274 17.3396 40.7084 17.203C40.6789 17.1982 40.6323 17.1814 40.6101 17.1646C39.9639 16.7188 39.6421 16.0909 39.6421 15.2785C39.6421 14.7176 39.7993 14.1832 40.1163 13.6751C40.3964 13.2269 40.8043 12.865 41.3374 12.5894C42.1605 12.158 42.9615 11.9423 43.7404 11.9423C43.8387 11.9423 43.91 11.9687 43.9419 12.0286C44.0255 12.1892 44.0107 14.4636 44.0107 14.4636L44.0132 14.4612Z" fill="#581123"/>
<path d="M38.8878 21.3349C40.136 21.3349 41.3964 21.6633 42.6667 22.3175C43.2245 22.6099 43.5808 22.7561 43.738 22.7561C43.8953 22.7561 44.0083 22.689 44.1017 22.5572C44.1238 22.5356 44.1827 22.4398 44.2835 22.2648C44.34 22.1737 44.4088 22.1282 44.4874 22.1282C44.6152 22.1282 44.6791 22.1905 44.6791 22.3151C44.6791 22.3775 44.743 25.7016 44.743 25.7927C44.743 25.9389 44.6619 26.0132 44.4972 26.0132C44.3842 26.0132 44.2933 25.9533 44.2294 25.8358C44.2073 25.8142 44.1361 25.668 44.0157 25.3972C43.5808 24.4793 43.0525 23.7579 42.4309 23.2355C41.3891 22.3655 40.2318 21.9293 38.9615 21.9293C37.6912 21.9293 36.5462 22.308 35.5462 23.0677C34.6101 23.7771 33.9245 24.7286 33.4896 25.9197C33.153 26.8256 32.9859 27.734 32.9859 28.6447C32.9859 30.0851 33.4061 31.4128 34.2489 32.6231C34.9565 33.6465 35.8754 34.387 37.0106 34.8472C37.7747 35.154 38.588 35.3074 39.4529 35.3074C40.6028 35.3074 41.6446 35.015 42.5807 34.4302C43.2024 34.0395 43.684 33.6393 44.0255 33.2295C44.1901 33.0353 44.3302 32.9371 44.4432 32.9371C44.5931 32.9371 44.6668 32.9922 44.6668 33.1048C44.6668 33.3757 44.4334 33.7256 43.9714 34.1498C43.1655 34.8879 42.308 35.4176 41.4014 35.7364C40.6298 36.0144 39.7355 36.1534 38.7133 36.1534C37.5143 36.1534 36.4406 35.9473 35.4946 35.5374C34.5486 35.1276 33.6936 34.4925 32.9294 33.6369C31.7304 32.2852 31.1309 30.6627 31.1309 28.7693C31.1309 27.2307 31.5707 25.8166 32.4478 24.5296C33.9049 22.399 36.0499 21.3325 38.8829 21.3325L38.8878 21.3349Z" fill="#581123"/>
<path d="M50.5637 26.1187C51.5195 26.1187 52.4188 26.3799 53.2616 26.9024C54.0601 27.3961 54.667 28.048 55.0823 28.8556C55.468 29.6082 55.6597 30.3535 55.6597 31.0917C55.6597 31.9976 55.3746 32.8748 54.8021 33.7232C54.2444 34.5381 53.5097 35.1612 52.5957 35.5926C51.9102 35.9065 51.1608 36.0623 50.3475 36.0623C48.9396 36.0623 47.7234 35.5303 46.6963 34.4638C45.8118 33.5387 45.3695 32.4865 45.3695 31.3098C45.3695 30.7394 45.4678 30.157 45.6644 29.565C45.8609 28.9731 46.1263 28.4674 46.4629 28.0503C46.9125 27.4799 47.4727 27.0222 48.1435 26.6819C48.8708 26.3056 49.6792 26.1187 50.5637 26.1187ZM50.146 26.6627C48.9814 26.6627 48.1018 27.2163 47.5022 28.3236C47.1877 28.8868 47.0305 29.5291 47.0305 30.2457C47.0305 31.3457 47.3057 32.3739 47.8536 33.3278C48.2393 33.9964 48.6988 34.5117 49.2345 34.8736C49.7701 35.2355 50.3377 35.4176 50.9372 35.4176C51.694 35.4176 52.3549 35.1468 52.9176 34.6028C53.6252 33.9125 53.9766 32.9491 53.9766 31.71C53.9766 30.471 53.635 29.3733 52.9495 28.3571C52.5711 27.8011 52.1534 27.3745 51.6964 27.0821C51.2615 26.8041 50.7431 26.6651 50.1436 26.6651L50.146 26.6627Z" fill="#581123"/>
<path d="M82.2327 27.4248C81.4341 26.5548 80.3899 26.1186 79.1048 26.1186C78.3333 26.1186 77.6552 26.3176 77.0704 26.713C76.7928 26.8951 76.4561 27.1971 76.063 27.6213C75.9549 27.7268 75.8738 27.7771 75.8173 27.7771C75.7411 27.7771 75.7018 27.7268 75.6895 27.6453C75.7141 27.13 75.7485 26.713 75.8026 26.4206C75.8173 26.3295 75.8247 26.2528 75.8247 26.1905C75.8247 26.0731 75.7534 26.0132 75.6109 26.0132C75.5691 26.0132 72.4413 27.1684 72.402 27.1827C72.2865 27.2235 72.2275 27.293 72.2275 27.3913C72.2275 27.5087 72.3086 27.5686 72.4732 27.5686C72.5371 27.5686 72.6256 27.5662 72.7411 27.559C72.8418 27.5518 72.9401 27.5494 73.0408 27.5494C73.434 27.5494 73.6895 27.6022 73.8123 27.7052C73.9475 27.8298 74.063 28.6591 74.063 28.6591C74.0703 28.8053 74.0753 28.9635 74.0753 29.1576V37.3781C74.0679 38.2337 74.0138 38.7849 73.9155 39.0294C73.8148 39.281 73.5986 39.4464 73.262 39.5303C72.9253 39.6141 72.7583 39.7052 72.7583 39.8011C72.7583 39.9329 72.8467 40 73.0261 40H77.5667C77.7313 40 77.8124 39.9377 77.8124 39.8131C77.8124 39.6884 77.7191 39.6141 77.5348 39.5926C76.8493 39.5087 76.3849 39.3865 76.1416 39.2259C75.8689 39.0246 75.7313 38.6052 75.7239 37.9724V35.6022C75.7239 35.42 75.7264 35.3194 75.7362 35.3002C75.7436 35.2235 75.7755 35.1851 75.832 35.1851C75.8763 35.1851 75.9672 35.2259 76.1097 35.3098C76.9942 35.8107 77.8296 36.0623 78.6159 36.0623C79.8076 36.0623 80.8715 35.6165 81.8076 34.725C82.9207 33.6657 83.4784 32.3188 83.4784 30.6842C83.4784 29.4092 83.0632 28.3235 82.2351 27.4248H82.2327ZM80.67 34.6411C80.0975 35.2475 79.4488 35.5494 78.7215 35.5494C78.2498 35.5494 77.8075 35.4272 77.3947 35.1827C76.8886 34.8904 76.4979 34.4973 76.2276 34.0036C75.8787 33.3709 75.7018 32.3883 75.7018 31.0581C75.7018 30.2289 75.7755 29.5506 75.9279 29.021C76.1121 28.3739 76.4389 27.873 76.9009 27.5159C77.3849 27.1396 77.9205 26.9527 78.5078 26.9527C79.3137 26.9527 79.9968 27.2594 80.552 27.8706C81.3948 28.8101 81.815 30.0084 81.815 31.4632C81.815 32.7645 81.4341 33.8238 80.67 34.6387V34.6411Z" fill="#581123"/>
<path d="M103.415 35.4871C102.752 35.4463 102.336 35.1923 102.174 34.7249C102.059 34.4038 102 33.7351 101.992 32.7189V30.2336C101.992 29.5937 101.946 29.0641 101.852 28.647C101.661 27.825 101.243 27.1875 100.599 26.7345C100.007 26.3247 99.3289 26.1186 98.5648 26.1186C97.3019 26.1186 96.2257 26.6267 95.3411 27.6428C95.1421 27.8657 95.0266 27.976 94.9996 27.976C94.9284 27.976 94.8915 27.9161 94.8915 27.7986C94.8915 27.7507 94.894 27.6692 94.9013 27.559C94.9259 27.0317 94.9628 26.6099 95.0144 26.3127C95.0291 26.2216 95.0365 26.1449 95.0365 26.0826C95.0365 25.9652 94.9652 25.9053 94.8227 25.9053C94.7809 25.9053 91.6531 27.0605 91.6138 27.0748C91.4983 27.1156 91.4393 27.1851 91.4393 27.2833C91.4393 27.4008 91.5204 27.4607 91.685 27.4607C91.7489 27.4607 91.8374 27.4583 91.9529 27.4511C92.0536 27.4439 92.1519 27.4415 92.2526 27.4415C92.6457 27.4415 92.9013 27.4943 93.0241 27.5973C93.1593 27.7219 93.2281 28.0503 93.2281 28.5799L93.2354 33.8262C93.2428 34.4182 93.2109 34.8256 93.1396 35.0485C93.0315 35.2929 92.8325 35.4415 92.5401 35.4966C92.3828 35.5326 92.3042 35.6021 92.3042 35.7052C92.3042 35.8178 92.3853 35.8729 92.5499 35.8729H96.4468C96.6753 35.8729 96.7883 35.8058 96.7883 35.674C96.7883 35.5494 96.6704 35.4895 96.4345 35.4966C95.8276 35.4966 95.4026 35.3169 95.1593 34.9526C95.0021 34.7081 94.9087 34.1785 94.8817 33.366V31.3289C94.8817 30.4877 94.9554 29.7591 95.1077 29.1455C95.2207 28.6518 95.4812 28.1989 95.8891 27.789C96.4468 27.2378 97.1053 26.9646 97.8695 26.9646C98.8695 26.9646 99.5673 27.4391 99.9678 28.3858C100.218 28.9706 100.344 29.807 100.344 30.8927V32.7213C100.336 33.5721 100.329 34.0515 100.322 34.1617C100.285 34.6986 100.204 35.0533 100.076 35.2282C99.9751 35.3672 99.7933 35.4607 99.5304 35.511C99.3658 35.5398 99.2847 35.6045 99.2847 35.7099C99.2847 35.8226 99.3584 35.8777 99.5108 35.8777H103.42C103.656 35.8777 103.774 35.8058 103.774 35.6572C103.774 35.547 103.656 35.4895 103.42 35.4895L103.415 35.4871Z" fill="#581123"/>
<path d="M111.774 26.3608H108.658C108.479 26.3608 108.391 26.416 108.391 26.5286C108.391 26.6412 108.472 26.7107 108.636 26.7371C108.985 26.7994 109.231 26.8689 109.376 26.9456C109.646 27.0918 109.784 27.3554 109.784 27.7389C109.784 28.2254 109.69 28.7311 109.506 29.2536L108.221 32.8366C108.029 33.2823 107.892 33.5052 107.813 33.5052C107.698 33.5052 107.521 33.2272 107.277 32.6688L105.843 29.3998C105.472 28.5634 105.26 28.0816 105.211 27.9474C105.125 27.703 105.083 27.5088 105.083 27.3626C105.083 27.0559 105.329 26.8498 105.823 26.7467C106.022 26.706 106.123 26.6365 106.123 26.5382C106.123 26.4208 106.044 26.3608 105.887 26.3608H102.076C101.862 26.3608 101.754 26.4208 101.754 26.5382C101.754 26.6484 101.847 26.7251 102.032 26.7683C102.417 26.8593 102.698 27.0127 102.877 27.2284C102.997 27.389 103.199 27.7677 103.476 28.3668L106.464 34.5909C106.7 35.0846 106.818 35.4921 106.818 35.8132C106.818 36.3501 106.597 36.9468 106.273 37.661C105.503 39.3507 102.351 39.5616 102 39.6239C101.835 39.6526 101.754 39.7221 101.754 39.8324C101.754 39.9426 101.842 40.0001 102.022 40.0001H106.017C106.189 40.0001 106.3 39.8947 106.349 39.6862C106.398 39.4992 106.712 38.5717 107.29 36.9085L110.278 29.2224C110.614 28.3812 110.87 27.7844 111.049 27.4369C111.241 27.0894 111.469 26.8593 111.735 26.7467C111.911 26.67 112.002 26.5933 112.002 26.5166C112.002 26.4112 111.929 26.3608 111.779 26.3608H111.774Z" fill="#581123"/>
<path d="M85.1739 27.257C84.6677 27.7699 84.3311 28.441 84.3286 29.1552C84.3286 29.1599 84.3286 29.1647 84.3286 29.1719C84.3286 29.5266 84.4392 29.704 84.6579 29.704C84.825 29.704 86.051 29.0569 86.051 28.8052C86.051 28.6998 86.0363 28.5608 86.0068 28.3882C85.9773 28.2085 85.9626 28.0551 85.9626 27.9281C85.9626 27.5806 86.0609 27.2115 86.3901 27.0389C86.4073 27.0293 86.4171 27.015 86.4368 27.0078C87.626 26.4997 88.5965 27.2834 89.0634 28.3882C89.1862 28.6758 89.3214 29.0305 89.3656 29.4428C89.3779 29.5578 89.3853 29.6776 89.3828 29.8022C89.3754 29.9652 89.2796 30.0851 89.2059 30.1498C89.0781 30.26 88.5843 30.3894 87.7587 30.5788C86.5744 30.8568 85.7783 31.1012 85.3704 31.3097C84.9331 31.5326 84.5915 31.8562 84.3458 32.2804C84.1026 32.7046 83.9797 33.1815 83.9797 33.7112C83.9797 34.2816 84.1222 34.7417 84.4073 35.0892C84.8594 35.6525 85.4859 35.9353 86.282 35.9353C86.9896 35.9353 87.6923 35.7339 88.3852 35.3289C88.6309 35.1851 88.9921 34.9718 89.373 34.5955C89.3853 34.5836 89.4246 34.5452 89.4246 34.5452C89.4467 34.9047 89.4835 35.1755 89.5376 35.3265C89.6457 35.6333 89.9037 35.8106 90.2968 35.8753H92.5131C92.749 35.8753 92.8669 35.8034 92.8669 35.6549C92.8669 35.5446 92.749 35.4871 92.5131 35.4871C91.8497 35.4463 91.4344 35.1923 91.2723 34.725C91.1568 34.4038 91.0978 33.7351 91.0905 32.719C91.0905 32.719 91.088 30.399 91.088 30.828C91.088 30.399 91.0806 30.0371 91.0708 29.7375C91.0536 29.4763 91.0266 29.1935 90.9995 28.9395C90.857 28.0647 90.4983 27.3816 89.9209 26.8903C89.3902 26.4398 88.7513 26.1977 88.024 26.1402C87.9209 26.133 87.8226 26.1162 87.7169 26.1162C87.309 26.1162 86.9208 26.1737 86.5523 26.2864C86.1198 26.4182 85.7439 26.6866 85.4319 27.003L85.1837 27.2522L85.1739 27.257ZM89.3877 32.8628C89.3877 33.1336 89.3681 33.3876 89.3337 33.6249C89.2821 33.9652 89.0732 34.2792 88.7096 34.5644C88.1272 35.015 87.4638 35.1851 86.7218 35.0749C86.6972 35.0725 86.6604 35.0557 86.6407 35.0437C86.1198 34.6842 85.8594 34.1761 85.8594 33.5218C85.8594 33.0689 85.9871 32.6375 86.2427 32.2277C86.4687 31.8658 86.798 31.5734 87.228 31.3505C87.8938 31.003 88.54 30.828 89.169 30.828C89.2477 30.828 89.3066 30.8496 89.3312 30.8975C89.4 31.0269 89.3877 32.8628 89.3877 32.8628Z" fill="#581123"/>
<path d="M73.1711 35.4993C72.665 35.4658 72.2964 35.2764 72.0679 34.9361C71.918 34.7276 71.8394 34.2435 71.8321 33.4838V30.162C71.8321 29.4598 71.7755 28.8942 71.6601 28.47C71.4881 27.8085 71.1342 27.2645 70.6011 26.8403C69.9942 26.3609 69.2497 26.1189 68.3627 26.1189C67.4757 26.1189 66.6673 26.3969 65.9744 26.9553C65.596 27.2621 65.2815 27.6767 65.0334 28.1991C64.913 27.878 64.7975 27.6287 64.6918 27.4466C64.5125 27.1326 64.252 26.8618 63.9105 26.6317C63.3822 26.2914 62.7753 26.1189 62.0898 26.1189C61.2544 26.1189 60.5222 26.3633 59.8957 26.8498C59.763 26.9649 59.6107 27.1255 59.2937 27.4706C59.1856 27.576 59.1045 27.6263 59.048 27.6263C58.9718 27.6263 58.9325 27.576 58.9202 27.4945V27.473C58.9202 27.3939 58.9251 27.322 58.93 27.2501C58.9522 26.9217 58.9816 26.6437 59.0185 26.4328C59.0332 26.3417 59.0406 26.2651 59.0406 26.2027C59.0406 26.0853 58.9694 26.0254 58.8268 26.0254C58.7851 26.0254 55.6572 27.1806 55.6179 27.195C55.5025 27.2357 55.4435 27.3052 55.4435 27.4035C55.4435 27.5209 55.5246 27.5808 55.6892 27.5808C55.7531 27.5808 55.8415 27.5784 55.957 27.5712C56.0577 27.564 56.156 27.5616 56.2568 27.5616C56.6499 27.5616 56.9054 27.6144 57.0283 27.7174C57.1413 27.8277 57.1683 27.9882 57.1683 27.9882C57.2027 28.1392 57.2199 28.3789 57.2199 28.7096V33.316C57.2199 33.8169 57.2027 34.2627 57.1659 34.6533C57.1241 35.1063 56.9447 35.3699 56.6302 35.4466C56.2887 35.5161 56.1167 35.6 56.1167 35.6982C56.1167 35.8157 56.2052 35.8756 56.3845 35.8756H60.4313C60.5812 35.8756 60.6549 35.8157 60.6549 35.6982C60.6549 35.5808 60.5664 35.5137 60.3871 35.4993C59.9743 35.4586 59.6672 35.3819 59.4657 35.2693C59.2003 35.1302 59.0308 34.8666 58.9522 34.476C58.8883 34.1836 58.8563 33.6611 58.8563 32.9086V30.6413C58.8563 29.1099 59.2445 28.0194 60.0234 27.3723C60.4731 27.0104 60.9522 26.8283 61.4584 26.8283C61.822 26.8283 62.1758 26.9217 62.5173 27.1063C62.8613 27.2908 63.1193 27.5329 63.2987 27.8325C63.5985 28.3118 63.7483 29.026 63.7483 29.9727V32.9086C63.7557 33.2848 63.741 33.7546 63.7066 34.3178C63.6697 34.7707 63.5862 35.0775 63.4486 35.2357C63.3478 35.3412 63.1734 35.4274 62.9228 35.4969C62.7655 35.5377 62.6869 35.6096 62.6869 35.7054C62.6869 35.8181 62.7729 35.8732 62.9449 35.8732H66.8737C67.0506 35.8732 67.1415 35.8109 67.1415 35.6863C67.1415 35.5688 67.0334 35.5065 66.8197 35.4993C66.628 35.4921 66.4093 35.4514 66.1661 35.3747C65.9032 35.298 65.7091 35.135 65.5887 34.8834C65.4756 34.6677 65.4118 34.0733 65.397 33.0979V29.9751C65.397 27.8924 66.1857 26.8522 67.7632 26.8522C68.2841 26.8522 68.7411 26.984 69.1342 27.2501C69.461 27.473 69.7116 27.7821 69.8836 28.18C70.0851 28.6593 70.1834 29.3208 70.1834 30.1644V33.4861C70.1834 33.7785 70.1809 34.1117 70.1735 34.4879C70.1588 34.7875 70.117 34.996 70.0458 35.1159C69.9033 35.3172 69.6846 35.4442 69.3922 35.4921C69.2153 35.5209 69.1244 35.5856 69.1244 35.6911C69.1244 35.8157 69.2128 35.878 69.3922 35.878H73.2375C73.38 35.878 73.4513 35.8109 73.4513 35.6791C73.4513 35.5736 73.3579 35.5161 73.1736 35.5017L73.1711 35.4993Z" fill="#581123"/>
</g>
<defs>
<clipPath id="clip0_350_2606">
<rect width="112" height="40" fill="white"/>
</clipPath>
</defs>
</svg>
