<svg width="397" height="45" viewBox="0 0 397 45" fill="none" xmlns="http://www.w3.org/2000/svg">
<g clip-path="url(#clip0_47_63)">
<path d="M189.494 0.000204463C190.58 0.000204463 191.871 0.330783 193.379 1.00571C193.895 1.23987 194.275 1.35007 194.52 1.35007C194.846 1.35007 195.131 1.14346 195.389 0.730232C195.552 0.440976 195.715 0.289461 195.906 0.289461C196.191 0.289461 196.299 0.551169 196.34 1.07458C196.571 3.82941 197.087 7.58974 197.087 7.89277C197.087 8.1958 196.952 8.36109 196.68 8.36109C196.422 8.36109 196.15 8.03051 195.878 7.36935C195.226 5.8542 194.629 4.71095 194.058 3.92582C192.863 2.28671 191.395 1.46026 189.657 1.46026C188.638 1.46026 187.823 1.85971 187.225 2.64483C186.614 3.44373 186.301 4.49056 186.301 5.77155C186.301 7.25916 186.749 8.78808 187.66 10.3583C188.434 11.6944 189.847 13.5264 191.884 15.868C192.917 17.0525 195.063 19.2564 198.324 22.4658C200.198 24.3391 201.299 25.4272 201.625 25.744C201.951 26.0608 202.168 26.2123 202.277 26.2123C202.535 26.2123 202.766 25.7991 202.983 24.9864C203.214 24.1049 203.323 23.1545 203.323 22.1352C203.323 20.9368 203.051 19.9176 202.494 19.0773C201.869 18.1269 201.013 17.452 199.94 17.0525C199.424 16.8597 199.125 16.722 199.044 16.6531C198.935 16.5567 198.867 16.4327 198.867 16.3087C198.867 16.047 199.057 15.9093 199.424 15.9093C199.736 15.9093 206.963 16.3087 207.29 16.3087C207.616 16.3087 207.806 16.4465 207.806 16.7082C207.806 16.9561 207.575 17.1627 207.099 17.328C206.339 17.6173 205.863 18.0167 205.673 18.5126C205.428 19.0773 205.252 20.0415 205.143 21.4465C205.034 22.7413 204.858 23.7743 204.627 24.5457C204.477 25.0829 204.219 25.7716 203.853 26.6118C203.744 26.8597 203.676 27.0663 203.676 27.2316C203.676 27.4933 203.948 27.8652 204.505 28.3335C206.855 30.3583 208.825 31.8184 210.4 32.7413C211.854 33.5815 213.674 34.0498 215.848 34.1462C216.215 34.1462 216.405 34.2564 216.405 34.463C216.405 34.6972 216.228 34.9038 215.875 35.0829C215.114 35.4823 213.987 35.6751 212.479 35.6751C208.879 35.6751 205.469 34.3528 202.222 31.7082C201.856 31.3914 201.584 31.2399 201.448 31.2399C201.285 31.2399 200.891 31.474 200.253 31.9561C197.047 34.3528 193.691 35.5512 190.2 35.5512C188.597 35.5512 187.008 35.2895 185.432 34.7523C183.856 34.2151 182.484 33.4851 181.316 32.5484C179.821 31.3638 178.707 29.8625 177.933 28.0443C177.254 26.4327 176.914 24.7247 176.914 22.8928C176.914 20.5236 177.593 18.4575 178.952 16.6806C180.039 15.2757 181.411 14.2151 183.082 13.5264C183.842 13.1958 184.223 12.9203 184.223 12.6862C184.223 12.6311 184.046 12.2867 183.693 11.6256C182.878 10.1379 182.484 8.59525 182.484 6.99745C182.484 4.94511 183.149 3.26467 184.494 1.94235C185.839 0.633813 187.497 -0.0273438 189.48 -0.0273438L189.494 0.000204463ZM184.97 14.4355C184.562 14.4355 184.046 14.6145 183.421 14.9864C182.796 15.3583 182.253 15.7853 181.777 16.2812C180.677 17.4795 180.12 18.9396 180.12 20.6614C180.12 23.1958 180.935 25.5236 182.579 27.6862C185.038 30.9368 188.23 32.5622 192.143 32.5622C194.724 32.5622 196.884 31.9561 198.65 30.744C199.356 30.2481 199.723 29.8762 199.723 29.6421C199.723 29.463 199.288 28.9809 198.432 28.1958C196.041 26.047 194.004 24.0773 192.333 22.2867C190.662 20.4961 188.774 18.2784 186.668 15.6063C186.057 14.8349 185.472 14.4492 184.943 14.4492L184.97 14.4355Z" fill="#581123"/>
<path d="M4.1841 28.4017V7.21708C4.1841 5.74325 3.9124 4.64132 3.3826 3.93885C2.86638 3.34656 1.96979 2.91956 0.706406 2.65785C0.23094 2.56143 0 2.38237 0 2.12066C0 1.80386 0.203771 1.65234 0.611313 1.65234H10.7591C11.1531 1.65234 11.3432 1.81763 11.3432 2.17576C11.3432 2.42369 11.0308 2.61653 10.4195 2.76805C9.65874 2.96088 9.11535 3.37411 8.78932 3.98017C8.47687 4.58623 8.32744 5.49532 8.32744 6.69367V26.0463C8.32744 29.1455 8.32744 31.2804 8.78932 32.2584C9.90326 34.6551 18.9779 33.7598 21.0835 32.589C21.9665 32.1069 24.0857 29.6827 24.4525 28.9802C24.5884 28.7322 24.7378 28.6083 24.9144 28.6083C25.2268 28.6083 25.3763 28.8424 25.3763 29.297C25.3763 30.7019 23.488 33.7185 22.7408 34.8479C22.5642 35.1234 22.2518 35.2887 21.9257 35.2887H1.75243C1.39923 35.2887 1.22263 35.1372 1.22263 34.8479C1.22263 34.6 1.4264 34.4072 1.83394 34.2832C2.486 34.0904 2.94789 33.87 3.21958 33.6496C3.69505 33.2226 3.96674 32.4237 4.07542 31.2667C4.15693 30.4953 4.19768 29.5449 4.19768 28.4292L4.1841 28.4017Z" fill="#581123"/>
<path d="M25.7983 35.2622C25.35 35.2622 25.1191 35.1107 25.1191 34.7939C25.1191 34.5597 25.3093 34.422 25.7033 34.3531C26.7085 34.2016 27.3606 33.8021 27.6459 33.141C27.8632 32.6313 27.9583 31.5432 27.9583 29.8903V18.3338C27.9583 17.0804 27.8089 16.309 27.4964 16.0198C27.2247 15.7718 26.6406 15.6479 25.744 15.6479C25.5131 15.6479 25.2957 15.6479 25.0648 15.6754C24.8067 15.6892 24.6029 15.703 24.4535 15.703C24.0867 15.703 23.8965 15.5652 23.8965 15.2898C23.8965 15.0556 24.0323 14.8903 24.2904 14.7939C24.3719 14.7663 31.4768 12.0391 31.5719 12.0391C31.8979 12.0391 32.0609 12.1768 32.0609 12.4523C32.0609 12.6038 32.0473 12.7829 32.0066 12.9895C31.83 14.0363 31.7213 15.703 31.6941 17.9619V29.8765C31.6941 31.1851 31.762 32.0804 31.9115 32.5625C32.1424 33.1961 32.6179 33.6782 33.3379 33.995C33.759 34.1327 34.4246 34.2567 35.3348 34.3944C35.7288 34.4495 35.919 34.5735 35.919 34.7939C35.919 35.1107 35.6609 35.2622 35.1446 35.2622" fill="#581123"/>
<path d="M58.5638 18.4997V6.9432C58.5638 5.68976 58.4144 4.91841 58.1019 4.62915C57.8302 4.38122 57.2461 4.25725 56.3495 4.25725C56.1185 4.25725 55.9012 4.25725 55.6702 4.2848C55.4121 4.29858 55.2084 4.31235 55.0589 4.31235C54.6921 4.31235 54.502 4.17461 54.502 3.89913C54.502 3.66497 54.6378 3.49968 54.8959 3.40326C54.9774 3.37571 62.0822 0.648438 62.1773 0.648438C62.5034 0.648438 62.6664 0.786179 62.6664 1.06166C62.6664 1.21318 62.6528 1.39224 62.612 1.59885C62.4354 2.64568 62.3268 4.31235 62.2996 6.5713V18.4859" fill="#581123"/>
<path d="M106.437 34.3552C104.929 34.2587 103.992 33.6527 103.625 32.5507C103.367 31.7932 103.231 30.2229 103.218 27.8262V21.9585C103.218 20.4433 103.109 19.2036 102.905 18.2119C102.47 16.2698 101.52 14.7684 100.066 13.7078C98.7211 12.7436 97.186 12.2615 95.4472 12.2615C92.5808 12.2615 90.1491 13.4598 88.1386 15.8565C87.6903 16.38 87.4322 16.6417 87.3642 16.6417C87.2012 16.6417 87.1197 16.5039 87.1197 16.2284C87.1197 16.1182 87.1197 15.9254 87.1469 15.6637C87.2012 14.424 87.2827 13.4185 87.405 12.716C87.4322 12.5094 87.4593 12.3166 87.4593 12.1788C87.4593 11.9034 87.2963 11.7656 86.9703 11.7656C86.8752 11.7656 79.784 14.4929 79.6889 14.5204C79.4308 14.6169 79.2949 14.7822 79.2949 15.0163C79.2949 15.2918 79.4851 15.4295 79.8519 15.4295C80.0013 15.4295 80.2051 15.4295 80.4632 15.402C80.6941 15.3882 80.9115 15.3744 81.1424 15.3744C82.039 15.3744 82.6096 15.4984 82.8949 15.7463C83.2073 16.0356 83.3568 16.8207 83.3568 18.0604V30.4295C83.3839 31.8207 83.316 32.7849 83.153 33.3083C82.9085 33.8868 82.4602 34.2312 81.7945 34.3689C81.4413 34.4516 81.2647 34.6169 81.2647 34.8648C81.2647 35.1265 81.4549 35.2642 81.8217 35.2642H90.6653C91.1816 35.2642 91.4397 35.1127 91.4397 34.7959C91.4397 34.5067 91.168 34.3552 90.6382 34.3827C89.2661 34.3827 88.3016 33.9557 87.7446 33.1017C87.3914 32.5232 87.1741 31.2835 87.1197 29.3552V24.548C87.1197 22.5645 87.2963 20.8428 87.6359 19.3965C87.8941 18.2257 88.4918 17.1651 89.4155 16.2009C90.6789 14.9061 92.1732 14.2587 93.9121 14.2587C96.1807 14.2587 97.7701 15.3744 98.6667 17.6058C99.2373 18.9833 99.5226 20.953 99.5226 23.5149V27.8262C99.509 29.8235 99.4954 30.9667 99.4682 31.2284C99.3867 32.4957 99.1965 33.3359 98.9113 33.7353C98.6803 34.0659 98.2728 34.2863 97.6751 34.3965C97.3083 34.4654 97.1181 34.6169 97.1181 34.8648C97.1181 35.1265 97.2947 35.2642 97.6343 35.2642H106.505C107.035 35.2642 107.307 35.099 107.307 34.7408C107.307 34.4791 107.035 34.3414 106.505 34.3414L106.437 34.3552Z" fill="#581123"/>
<path d="M172.662 34.3552C171.154 34.2587 170.217 33.6527 169.85 32.5507C169.592 31.7932 169.456 30.2229 169.442 27.8262V21.9585C169.442 20.4433 169.334 19.2036 169.13 18.2119C168.695 16.2698 167.744 14.7684 166.291 13.7078C164.946 12.7436 163.411 12.2615 161.672 12.2615C158.805 12.2615 156.374 13.4598 154.363 15.8565C153.915 16.38 153.657 16.6417 153.589 16.6417C153.426 16.6417 153.344 16.5039 153.344 16.2284C153.344 16.1182 153.344 15.9254 153.372 15.6637C153.426 14.424 153.507 13.4185 153.63 12.716C153.657 12.5094 153.684 12.3166 153.684 12.1788C153.684 11.9034 153.521 11.7656 153.195 11.7656C153.1 11.7656 146.009 14.4929 145.913 14.5204C145.655 14.6169 145.52 14.7822 145.52 15.0163C145.52 15.2918 145.71 15.4295 146.076 15.4295C146.226 15.4295 146.43 15.4295 146.688 15.402C146.919 15.3882 147.136 15.3744 147.367 15.3744C148.264 15.3744 148.834 15.4984 149.119 15.7463C149.432 16.0356 149.581 16.8207 149.581 18.0604V30.4295C149.609 31.8207 149.541 32.7849 149.378 33.3083C149.133 33.8868 148.685 34.2312 148.019 34.3689C147.666 34.4516 147.489 34.6169 147.489 34.8648C147.489 35.1265 147.68 35.2642 148.046 35.2642H156.89C157.406 35.2642 157.664 35.1127 157.664 34.7959C157.664 34.5067 157.393 34.3552 156.863 34.3827C155.491 34.3827 154.526 33.9557 153.969 33.1017C153.616 32.5232 153.399 31.2835 153.344 29.3552V24.548C153.344 22.5645 153.521 20.8428 153.861 19.3965C154.119 18.2257 154.716 17.1651 155.64 16.2009C156.904 14.9061 158.398 14.2587 160.137 14.2587C162.405 14.2587 163.995 15.3744 164.891 17.6058C165.462 18.9833 165.747 20.953 165.747 23.5149V27.8262C165.734 29.8235 165.72 30.9667 165.693 31.2284C165.611 32.4957 165.421 33.3359 165.136 33.7353C164.905 34.0659 164.497 34.2863 163.9 34.3965C163.533 34.4654 163.343 34.6169 163.343 34.8648C163.343 35.1265 163.519 35.2642 163.859 35.2642H172.73C173.26 35.2642 173.531 35.099 173.531 34.7408C173.531 34.4791 173.26 34.3414 172.73 34.3414L172.662 34.3552Z" fill="#581123"/>
<path d="M62.3124 7.28906V15.5948C62.3395 16.3662 62.4211 16.7519 62.5297 16.7519C62.6248 16.7519 62.8422 16.5728 63.1818 16.2147C64.3773 14.9061 65.4776 13.9557 66.4557 13.3772C67.7463 12.6334 69.1727 12.2753 70.7077 12.2753C72.6639 12.2753 74.3349 12.8813 75.7069 14.0935C77.0518 15.278 77.8805 16.9309 78.1793 19.0659C78.288 19.8648 78.3559 21.3111 78.3559 23.3772V30.278C78.3695 31.9585 78.7227 33.0742 79.4291 33.6527C79.9589 34.0797 80.7061 34.3001 81.6434 34.3139C82.1868 34.3276 82.4721 34.4791 82.4721 34.7546C82.4721 35.099 82.214 35.278 81.725 35.278H72.6096C72.2021 35.278 71.9983 35.1403 71.9983 34.8648C71.9983 34.6169 72.2156 34.4516 72.6504 34.369C73.2753 34.2312 73.6964 34.1072 73.8866 33.9695C74.2805 33.694 74.4979 33.1431 74.5658 32.3166C74.6201 31.807 74.6337 31.2698 74.6337 30.7188V23.8731C74.6337 21.0494 74.362 19.0384 73.8322 17.84C72.8405 15.6362 71.1696 14.5342 68.833 14.5342C67.3251 14.5342 65.9667 15.1403 64.7576 16.3386C63.1275 17.9364 62.2988 20.278 62.2988 23.3772V29.5893C62.2988 31.4488 62.5433 32.6747 63.0324 33.2808C63.5214 33.9695 64.3365 34.3414 65.4912 34.3827C66.1569 34.3827 66.4829 34.548 66.4829 34.8786C66.4829 35.1403 66.3063 35.278 65.9531 35.278H65.7357C64.581 35.2505 56.6611 35.278 56.4302 35.278C56.077 35.278 55.9004 35.1541 55.9004 34.8786C55.9004 34.672 56.077 34.4929 56.4302 34.3552C57.286 34.0797 57.8566 33.6389 58.1555 33.0191C58.4271 32.4268 58.563 31.2836 58.563 29.5756V7.9089" fill="#581123"/>
<path d="M120.62 14.1899L120.687 17.2615V17.8538C120.674 18.1844 120.538 18.3497 120.28 18.3497C120.063 18.3497 119.913 18.0742 119.791 17.5094C119.56 16.4764 119.112 15.6499 118.46 15.0163C117.386 14.0521 116.164 13.5701 114.765 13.5701C113.447 13.5701 112.428 13.942 111.708 14.6995C111.124 15.2918 110.839 16.0356 110.839 16.9172C110.839 17.7987 111.178 18.5563 111.857 19.1072C112.482 19.6031 113.365 20.0852 114.506 20.5811L117.4 21.8345C119.017 22.5232 120.198 23.3083 120.946 24.1761C121.788 25.1541 122.209 26.5039 122.209 28.1844C122.209 30.6637 121.38 32.5783 119.709 33.9282C118.283 35.1128 116.558 35.705 114.506 35.705C112.822 35.705 111.273 35.3745 109.86 34.6995C108.651 34.121 108.04 33.4461 108.067 32.661L108.122 28.7216C108.135 28.1844 108.312 27.9089 108.651 27.9089C108.828 27.9089 108.964 28.0191 109.045 28.2257C109.073 28.2808 109.154 28.5563 109.29 29.0935C109.684 30.5811 110.336 31.807 111.26 32.7436C112.387 33.8455 113.664 34.3965 115.077 34.3965C116.653 34.3965 117.875 33.8593 118.772 32.7712C119.438 31.986 119.764 31.0769 119.764 30.0439C119.764 29.0108 119.411 28.1017 118.718 27.3855C118.269 26.8896 117.468 26.38 116.34 25.829L113.352 24.3965C111.722 23.6114 110.58 22.8538 109.928 22.1375C109.005 21.1183 108.543 19.8924 108.543 18.4736C108.543 16.132 109.602 14.3965 111.722 13.2808C112.985 12.6196 114.357 12.2891 115.824 12.2891C117.291 12.2891 118.799 12.6196 120.117 13.2808C120.375 13.4185 120.538 13.5563 120.606 13.7216C120.62 13.818 120.633 13.9833 120.633 14.2174L120.62 14.1899Z" fill="#581123"/>
<path d="M135.426 12.2599C137.6 12.2599 139.638 12.8797 141.553 14.1056C143.374 15.2764 144.746 16.8053 145.683 18.7061C146.552 20.483 147.001 22.2323 147.001 23.9816C147.001 26.1166 146.349 28.1827 145.058 30.1938C143.795 32.1084 142.124 33.5822 140.059 34.6015C138.51 35.3453 136.799 35.7034 134.965 35.7034C131.772 35.7034 129.014 34.45 126.678 31.9293C124.667 29.7392 123.662 27.2599 123.662 24.4913C123.662 23.1414 123.879 21.7778 124.328 20.3728C124.776 18.9816 125.374 17.7833 126.135 16.8053C127.153 15.4555 128.43 14.3811 129.952 13.5822C131.609 12.7006 133.43 12.2461 135.44 12.2461L135.426 12.2599ZM134.476 13.5409C131.84 13.5409 129.83 14.8494 128.471 17.4527C127.765 18.7888 127.398 20.2902 127.398 21.9844C127.398 24.5739 128.023 26.9982 129.273 29.2433C130.142 30.8136 131.188 32.0395 132.411 32.8935C133.62 33.7475 134.91 34.1745 136.269 34.1745C137.98 34.1745 139.488 33.5409 140.765 32.2599C142.368 30.6345 143.17 28.3618 143.17 25.4417C143.17 22.5216 142.395 19.932 140.833 17.5353C139.977 16.2268 139.026 15.2213 137.994 14.5326C137.002 13.8714 135.834 13.5409 134.476 13.5409Z" fill="#581123"/>
<path d="M30.0765 2.89268C30.4297 2.89268 32.7255 5.61995 32.7255 5.89544C32.7255 6.22601 30.5655 9.39406 30.1037 9.39406C29.5331 9.39406 27.3867 6.4464 27.3867 5.96431C27.3867 5.60618 29.7097 2.87891 30.0765 2.87891V2.89268Z" fill="#581123"/>
<path d="M39.4084 14.9442C38.2536 16.1563 37.4929 17.7403 37.4929 19.4208C37.4929 19.4208 37.4929 19.4483 37.4929 19.4621C37.4929 20.3023 37.7374 20.7155 38.2401 20.7155C38.6204 20.7155 41.3917 19.1866 41.3917 18.5943C41.3917 18.3464 41.351 18.0158 41.2966 17.6026C41.2287 17.1756 41.2015 16.8175 41.2015 16.5144C41.2015 15.688 41.4325 14.8202 42.1661 14.4208C42.2068 14.3932 42.234 14.3657 42.2747 14.3519C44.9781 13.1535 47.1788 14.9993 48.2384 17.6026C48.5101 18.2775 48.8226 19.1177 48.9177 20.0957C48.9448 20.3712 48.9584 20.6467 48.9584 20.9359C48.9448 21.3216 48.7275 21.5971 48.5509 21.7486C48.2656 22.0103 47.1381 22.3133 45.2634 22.7541C42.5736 23.4152 40.7668 23.98 39.8431 24.4759C38.8514 24.9993 38.077 25.7706 37.5201 26.7624C36.9631 27.7679 36.6914 28.8836 36.6914 30.137C36.6914 31.4869 37.0174 32.5613 37.6559 33.3877C38.6884 34.7238 40.1012 35.3849 41.9079 35.3849C43.5109 35.3849 45.1004 34.9029 46.6762 33.9524C47.2332 33.6081 48.0482 33.1122 48.9177 32.2169C48.9448 32.1894 49.0399 32.0929 49.0399 32.0929C49.0943 32.9469 49.1758 33.5805 49.298 33.9387C49.5426 34.6549 50.1267 35.0819 51.0233 35.2334H56.0496C56.5794 35.2334 56.8511 35.0681 56.8511 34.71C56.8511 34.4483 56.5794 34.3106 56.0496 34.3106C54.5417 34.2141 53.6044 33.6081 53.2376 32.5062C52.9795 31.7486 52.8436 30.1783 52.8301 27.7816C52.8301 27.7816 52.8301 22.3133 52.8301 23.3188C52.8301 22.3133 52.8165 21.4593 52.7893 20.7431C52.7486 20.1232 52.6942 19.4621 52.6263 18.856C52.3003 16.7899 51.4852 15.1783 50.181 14.0213C48.972 12.9607 47.532 12.3822 45.8747 12.2582C45.6437 12.2444 45.4128 12.2031 45.1819 12.2031C44.2581 12.2031 43.3751 12.3409 42.5464 12.6026C41.5683 12.9194 40.7125 13.5392 40.0061 14.2968L39.4491 14.8891L39.4084 14.9442ZM48.9584 28.1673C48.9584 28.8147 48.9177 29.407 48.8362 29.9717C48.7139 30.7706 48.252 31.5144 47.4233 32.1894C46.1056 33.25 44.5977 33.6494 42.9132 33.3877C42.8589 33.3877 42.7774 33.3464 42.7366 33.3188C41.5547 32.4648 40.957 31.2665 40.957 29.7238C40.957 28.6632 41.2423 27.6439 41.8264 26.6659C42.3427 25.8119 43.0898 25.1232 44.0679 24.5998C45.5758 23.7734 47.043 23.3739 48.4694 23.3739C48.646 23.3739 48.7818 23.429 48.8362 23.5392C48.9856 23.8422 48.9584 28.1811 48.9584 28.1811V28.1673Z" fill="#581123"/>
<path d="M231.143 0.976562C233.982 0.976562 236.835 1.74791 239.715 3.29061C240.979 3.97932 241.794 4.32367 242.147 4.32367C242.5 4.32367 242.758 4.17215 242.975 3.85535C243.03 3.80025 243.166 3.57987 243.383 3.16665C243.519 2.96003 243.668 2.84984 243.845 2.84984C244.13 2.84984 244.28 3.00136 244.28 3.29061C244.28 3.44213 244.429 11.2796 244.429 11.4862C244.429 11.8306 244.239 12.0096 243.872 12.0096C243.614 12.0096 243.41 11.8719 243.261 11.5964C243.206 11.5413 243.057 11.1969 242.772 10.5633C241.78 8.40081 240.585 6.69282 239.172 5.46692C236.808 3.41458 234.186 2.38152 231.306 2.38152C228.426 2.38152 225.818 3.27684 223.563 5.06747C221.444 6.74791 219.881 8.97932 218.903 11.7892C218.143 13.9242 217.762 16.073 217.762 18.2217C217.762 21.6239 218.713 24.7507 220.629 27.6019C222.232 30.0124 224.324 31.7617 226.891 32.8498C228.63 33.5661 230.464 33.938 232.434 33.938C235.042 33.938 237.406 33.2493 239.525 31.8719C240.938 30.949 242.025 30.0124 242.799 29.0344C243.166 28.5799 243.492 28.3457 243.75 28.3457C244.089 28.3457 244.266 28.4835 244.266 28.7452C244.266 29.3788 243.736 30.2052 242.69 31.2107C240.856 32.9463 238.914 34.1997 236.862 34.9573C235.11 35.6184 233.086 35.949 230.763 35.949C228.046 35.949 225.614 35.4669 223.468 34.5027C221.321 33.5385 219.379 32.0372 217.654 30.0262C214.937 26.8443 213.578 23.0151 213.578 18.5523C213.578 14.9297 214.57 11.5964 216.567 8.55232C219.868 3.52477 224.731 1.01788 231.17 1.01788L231.143 0.976562Z" fill="#581123"/>
<path d="M257.633 12.256C259.807 12.256 261.845 12.8758 263.76 14.1017C265.58 15.2725 266.953 16.8014 267.89 18.7022C268.759 20.4791 269.194 22.2284 269.194 23.9777C269.194 26.1127 268.542 28.1788 267.251 30.1898C265.988 32.1044 264.317 33.5783 262.252 34.5976C260.704 35.3414 258.992 35.6995 257.158 35.6995C253.966 35.6995 251.208 34.446 248.871 31.9254C246.861 29.7353 245.855 27.256 245.855 24.4874C245.855 23.1375 246.073 21.7739 246.521 20.3689C246.969 18.9777 247.567 17.7794 248.328 16.8014C249.347 15.4516 250.624 14.3772 252.145 13.5783C253.803 12.6967 255.623 12.2422 257.633 12.2422V12.256ZM256.682 13.537C254.047 13.537 252.037 14.8455 250.678 17.4488C249.972 18.7849 249.605 20.2863 249.605 21.9805C249.605 24.57 250.23 26.9943 251.48 29.2394C252.349 30.8097 253.395 32.0356 254.618 32.8896C255.827 33.7436 257.117 34.1706 258.476 34.1706C260.187 34.1706 261.695 33.537 262.972 32.256C264.575 30.6306 265.377 28.3579 265.377 25.4378C265.377 22.5177 264.602 19.9281 263.04 17.5314C262.184 16.2229 261.233 15.2174 260.201 14.5287C259.209 13.8675 258.041 13.537 256.682 13.537Z" fill="#581123"/>
<path d="M329.47 15.343C327.649 13.2907 325.286 12.2576 322.378 12.2576C320.626 12.2576 319.091 12.7259 317.76 13.6626C317.135 14.0896 316.36 14.8058 315.477 15.8113C315.233 16.0593 315.043 16.1832 314.92 16.1832C314.744 16.1832 314.662 16.0593 314.635 15.8664C314.69 14.6543 314.771 13.6626 314.893 12.9739C314.92 12.7672 314.948 12.5744 314.948 12.4367C314.948 12.1612 314.785 12.0234 314.459 12.0234C314.363 12.0234 307.272 14.7507 307.177 14.7783C306.919 14.8747 306.783 15.04 306.783 15.2741C306.783 15.5496 306.973 15.6874 307.34 15.6874C307.49 15.6874 307.693 15.6874 307.951 15.6598C308.182 15.646 308.4 15.6323 308.631 15.6323C309.527 15.6323 310.098 15.7562 310.383 16.0042C310.696 16.2934 310.954 18.2493 310.954 18.2493C310.967 18.5937 310.981 18.9656 310.981 19.4201V38.8003C310.967 40.8251 310.845 42.1199 310.614 42.6984C310.383 43.2907 309.894 43.6901 309.133 43.8829C308.373 44.0758 307.992 44.2962 307.992 44.5303C307.992 44.8471 308.196 44.9986 308.604 44.9986H318.901C319.268 44.9986 319.458 44.8471 319.458 44.5579C319.458 44.2686 319.24 44.0896 318.833 44.0345C317.284 43.8416 316.225 43.5524 315.681 43.1667C315.07 42.6846 314.744 41.7066 314.73 40.2053V34.613C314.73 34.186 314.73 33.9518 314.757 33.8967C314.771 33.7177 314.853 33.6212 314.975 33.6212C315.07 33.6212 315.287 33.7177 315.6 33.9105C317.61 35.0951 319.499 35.6874 321.278 35.6874C323.981 35.6874 326.4 34.6405 328.519 32.5331C331.046 30.04 332.309 26.8582 332.309 23.0014C332.309 19.9986 331.372 17.4367 329.497 15.3154L329.47 15.343ZM325.924 32.3678C324.634 33.8003 323.153 34.5166 321.509 34.5166C320.436 34.5166 319.431 34.2273 318.493 33.6488C317.339 32.9601 316.456 32.0372 315.844 30.8664C315.056 29.3788 314.649 27.051 314.649 23.9243C314.649 21.9683 314.825 20.3705 315.165 19.1171C315.586 17.5882 316.32 16.4036 317.379 15.5634C318.48 14.6818 319.689 14.2273 321.02 14.2273C322.854 14.2273 324.403 14.9435 325.666 16.3898C327.581 18.6075 328.532 21.4312 328.532 24.8609C328.532 27.9325 327.663 30.4256 325.938 32.354L325.924 32.3678Z" fill="#581123"/>
<path d="M377.519 34.3513C376.011 34.2548 375.074 33.6488 374.707 32.5468C374.449 31.7893 374.313 30.219 374.3 27.8223V21.9546C374.3 20.4394 374.191 19.1997 373.987 18.208C373.552 16.2659 372.602 14.7645 371.148 13.7039C369.803 12.7397 368.268 12.2576 366.529 12.2576C363.663 12.2576 361.231 13.4559 359.221 15.8526C358.772 16.376 358.514 16.6378 358.446 16.6378C358.283 16.6378 358.202 16.5 358.202 16.2245C358.202 16.1143 358.202 15.9215 358.229 15.6598C358.283 14.4201 358.365 13.4146 358.487 12.7121C358.514 12.5055 358.541 12.3127 358.541 12.1749C358.541 11.8995 358.378 11.7617 358.052 11.7617C357.957 11.7617 350.866 14.489 350.771 14.5165C350.513 14.613 350.377 14.7782 350.377 15.0124C350.377 15.2879 350.567 15.4256 350.934 15.4256C351.083 15.4256 351.287 15.4256 351.545 15.3981C351.776 15.3843 351.994 15.3705 352.224 15.3705C353.121 15.3705 353.692 15.4945 353.977 15.7424C354.289 16.0317 354.439 16.8168 354.439 18.0565V30.4256C354.466 31.8168 354.398 32.781 354.235 33.3044C353.99 33.8829 353.542 34.2273 352.877 34.365C352.523 34.4477 352.347 34.613 352.347 34.8609C352.347 35.1226 352.537 35.2603 352.904 35.2603H361.747C362.264 35.2603 362.522 35.1088 362.522 34.792C362.522 34.5028 362.25 34.3512 361.72 34.3788C360.348 34.3788 359.384 33.9518 358.827 33.0978C358.473 32.5193 358.256 31.2796 358.202 29.3512V24.5441C358.202 22.5606 358.378 20.8389 358.718 19.3926C358.976 18.2218 359.574 17.1612 360.498 16.197C361.761 14.9022 363.255 14.2548 364.994 14.2548C367.263 14.2548 368.852 15.3705 369.749 17.6019C370.319 18.9793 370.605 20.949 370.605 23.511V27.8223C370.591 29.8196 370.577 30.9628 370.55 31.2245C370.469 32.4917 370.279 33.332 369.993 33.7314C369.762 34.062 369.355 34.2824 368.757 34.3926C368.39 34.4614 368.2 34.613 368.2 34.8609C368.2 35.1226 368.363 35.2603 368.716 35.2603H377.587C378.117 35.2603 378.389 35.0951 378.389 34.7369C378.389 34.4752 378.117 34.3375 377.587 34.3375L377.519 34.3513Z" fill="#581123"/>
<path d="M396.483 12.713H389.419C389.011 12.713 388.808 12.8507 388.808 13.1124C388.808 13.3742 388.998 13.5394 389.365 13.6083C390.152 13.7598 390.709 13.9251 391.035 14.1042C391.647 14.4485 391.959 15.0684 391.959 15.9775C391.959 17.1207 391.742 18.3191 391.334 19.5449L388.414 27.9885C387.979 29.0353 387.666 29.5587 387.49 29.5587C387.232 29.5587 386.824 28.8976 386.281 27.589L383.021 19.8755C382.178 17.9058 381.703 16.7626 381.581 16.4458C381.39 15.8673 381.295 15.4127 381.295 15.0684C381.295 14.3521 381.852 13.8562 382.966 13.6221C383.414 13.5257 383.645 13.3604 383.645 13.1262C383.645 12.8507 383.469 12.713 383.116 12.713H374.462C373.973 12.713 373.729 12.8507 373.729 13.1262C373.729 13.3879 373.946 13.567 374.367 13.6634C375.236 13.8838 375.875 14.2419 376.282 14.7516C376.554 15.1235 377.016 16.0188 377.641 17.4375L384.42 32.1207C384.95 33.2915 385.221 34.2419 385.221 34.9995C385.221 36.2667 384.719 37.6717 383.985 39.3521C382.233 43.3328 375.087 43.8287 374.299 43.9802C373.932 44.0491 373.742 44.2144 373.742 44.4761C373.742 44.7378 373.946 44.8755 374.353 44.8755H383.414C383.808 44.8755 384.053 44.6276 384.162 44.1317C384.27 43.691 384.99 41.5009 386.294 37.5753L393.073 19.4485C393.834 17.4651 394.418 16.0601 394.826 15.2337C395.26 14.4072 395.777 13.87 396.374 13.6083C396.782 13.4292 396.986 13.2502 396.986 13.0711C396.986 12.8232 396.809 12.6992 396.469 12.6992L396.483 12.713Z" fill="#581123"/>
<path d="M336.139 14.9442C334.984 16.1563 334.223 17.7403 334.223 19.4208C334.223 19.4208 334.223 19.4483 334.223 19.4621C334.223 20.3023 334.468 20.7155 334.971 20.7155C335.351 20.7155 338.122 19.1866 338.122 18.5943C338.122 18.3464 338.082 18.0158 338.027 17.6026C337.959 17.1756 337.932 16.8175 337.932 16.5144C337.932 15.688 338.163 14.8202 338.897 14.4208C338.937 14.3932 338.965 14.3657 339.005 14.3519C341.709 13.1535 343.909 14.9993 344.969 17.6026C345.241 18.2775 345.553 19.1177 345.648 20.0957C345.675 20.3712 345.689 20.6467 345.689 20.9359C345.675 21.3216 345.458 21.5971 345.295 21.7486C345.01 22.0103 343.882 22.3133 342.008 22.7541C339.318 23.4152 337.511 23.98 336.587 24.4759C335.596 24.9993 334.821 25.7706 334.264 26.7624C333.707 27.7679 333.436 28.8836 333.436 30.137C333.436 31.4869 333.762 32.5613 334.4 33.3877C335.433 34.7238 336.845 35.3849 338.652 35.3849C340.255 35.3849 341.845 34.9029 343.42 33.9524C343.977 33.6081 344.792 33.1122 345.662 32.2169C345.689 32.1894 345.784 32.0929 345.784 32.0929C345.838 32.9469 345.92 33.5805 346.042 33.9387C346.287 34.6549 346.871 35.0819 347.767 35.2334H352.794C353.324 35.2334 353.595 35.0681 353.595 34.71C353.595 34.4483 353.324 34.3106 352.794 34.3106C351.286 34.2141 350.349 33.6081 349.982 32.5062C349.724 31.7486 349.588 30.1783 349.574 27.7816C349.574 27.7816 349.574 22.3133 349.574 23.3188C349.574 22.3133 349.561 21.4593 349.533 20.7431C349.493 20.1232 349.438 19.4621 349.37 18.856C349.044 16.7899 348.243 15.1783 346.925 14.0213C345.716 12.9607 344.276 12.3822 342.619 12.2582C342.388 12.2444 342.157 12.2031 341.926 12.2031C341.002 12.2031 340.119 12.3409 339.291 12.6026C338.312 12.9194 337.457 13.5392 336.75 14.2968L336.193 14.8891L336.139 14.9442ZM345.689 28.1673C345.689 28.8147 345.648 29.407 345.567 29.9717C345.444 30.7706 344.983 31.5144 344.154 32.1894C342.836 33.25 341.328 33.6494 339.644 33.3877C339.589 33.3877 339.508 33.3464 339.467 33.3188C338.285 32.4648 337.688 31.2665 337.688 29.7238C337.688 28.6632 337.973 27.6439 338.557 26.6659C339.073 25.8119 339.82 25.1232 340.798 24.5998C342.306 23.7734 343.774 23.3739 345.2 23.3739C345.377 23.3739 345.512 23.429 345.567 23.5392C345.716 23.8422 345.689 28.1811 345.689 28.1811V28.1673Z" fill="#581123"/>
<path d="M308.916 34.3788C307.761 34.2962 306.932 33.8554 306.416 33.0427C306.077 32.5469 305.9 31.4036 305.886 29.613V21.7755C305.886 20.1226 305.751 18.7865 305.492 17.781C305.098 16.2245 304.297 14.9435 303.088 13.938C301.716 12.8086 300.018 12.2438 298.007 12.2438C295.997 12.2438 294.163 12.905 292.587 14.2135C291.731 14.9298 291.011 15.9077 290.454 17.1474C290.182 16.3898 289.924 15.7975 289.68 15.3705C289.272 14.6267 288.688 13.9931 287.9 13.4559C286.705 12.657 285.319 12.2438 283.77 12.2438C281.869 12.2438 280.211 12.8223 278.785 13.9656C278.486 14.2411 278.146 14.613 277.413 15.4256C277.168 15.6736 276.978 15.7975 276.856 15.7975C276.679 15.7975 276.598 15.6736 276.571 15.4807V15.4256C276.571 15.2466 276.571 15.0675 276.598 14.9022C276.652 14.1309 276.72 13.4697 276.801 12.9739C276.829 12.7672 276.856 12.5744 276.856 12.4367C276.856 12.1612 276.693 12.0234 276.367 12.0234C276.272 12.0234 269.18 14.7507 269.085 14.7783C268.827 14.8747 268.691 15.04 268.691 15.2741C268.691 15.5496 268.882 15.6874 269.248 15.6874C269.398 15.6874 269.602 15.6874 269.86 15.6598C270.091 15.646 270.308 15.6323 270.539 15.6323C271.436 15.6323 272.006 15.7562 272.291 16.0042C272.549 16.2659 272.604 16.6515 272.604 16.6515C272.685 17.0097 272.726 17.5744 272.726 18.3458V29.2135C272.726 30.3981 272.685 31.4449 272.604 32.3678C272.509 33.4422 272.101 34.062 271.395 34.2411C270.62 34.4064 270.226 34.5992 270.226 34.8334C270.226 35.1088 270.43 35.2466 270.838 35.2466H280.021C280.361 35.2466 280.537 35.1088 280.537 34.8334C280.537 34.5579 280.334 34.3926 279.926 34.365C278.989 34.2686 278.296 34.0896 277.834 33.8278C277.236 33.4973 276.842 32.8774 276.666 31.9546C276.516 31.2659 276.448 30.04 276.448 28.2631V22.9188C276.448 19.3099 277.331 16.7342 279.097 15.2053C280.116 14.3513 281.203 13.9243 282.358 13.9243C283.186 13.9243 283.988 14.1447 284.762 14.5716C285.536 15.0124 286.134 15.5772 286.542 16.2796C287.221 17.4091 287.561 19.0896 287.561 21.3347V28.2493C287.574 29.1309 287.547 30.2466 287.466 31.5689C287.384 32.6433 287.194 33.3595 286.881 33.7314C286.65 33.9794 286.256 34.186 285.686 34.3513C285.333 34.4477 285.156 34.613 285.156 34.8471C285.156 35.1088 285.346 35.2466 285.74 35.2466H294.652C295.059 35.2466 295.263 35.0951 295.263 34.8058C295.263 34.5303 295.019 34.3788 294.53 34.365C294.095 34.3513 293.592 34.2548 293.049 34.0758C292.451 33.8967 292.016 33.511 291.731 32.9188C291.473 32.4091 291.324 31.0042 291.296 28.7039V21.3347C291.296 16.4312 293.09 13.9656 296.662 13.9656C297.844 13.9656 298.877 14.2824 299.773 14.9022C300.52 15.4256 301.077 16.1557 301.471 17.0923C301.92 18.2218 302.151 19.7783 302.151 21.7755V29.613C302.151 30.3017 302.151 31.0868 302.123 31.9821C302.096 32.6846 301.988 33.1805 301.838 33.4559C301.512 33.938 301.023 34.2273 300.357 34.3375C299.95 34.4064 299.746 34.5579 299.746 34.8058C299.746 35.0951 299.95 35.2466 300.357 35.2466H309.079C309.405 35.2466 309.568 35.0951 309.568 34.7783C309.568 34.5303 309.35 34.3926 308.943 34.365L308.916 34.3788Z" fill="#581123"/>
</g>
<defs>
<clipPath id="clip0_47_63">
<rect width="397" height="45" fill="white"/>
</clipPath>
</defs>
</svg>
