<svg width="399" height="75" viewBox="0 0 399 75" fill="none" xmlns="http://www.w3.org/2000/svg">
<g clip-path="url(#clip0_33_7441)">
<path d="M190.448 0.394738C191.54 0.394738 192.837 0.725341 194.352 1.40032C194.871 1.6345 195.253 1.7447 195.499 1.7447C195.827 1.7447 196.114 1.53807 196.373 1.12482C196.537 0.835542 196.701 0.684015 196.892 0.684015C197.179 0.684015 197.288 0.945743 197.329 1.4692C197.561 4.22422 198.08 7.98483 198.08 8.28789C198.08 8.59094 197.943 8.75624 197.67 8.75624C197.411 8.75624 197.138 8.42564 196.865 7.76443C196.209 6.24917 195.608 5.10583 195.035 4.32065C193.834 2.68141 192.359 1.8549 190.611 1.8549C189.587 1.8549 188.768 2.25438 188.167 3.03956C187.553 3.83852 187.239 4.88543 187.239 6.16652C187.239 7.65423 187.69 9.18327 188.604 10.7536C189.383 12.0898 190.803 13.9219 192.85 16.2637C193.888 17.4483 196.045 19.6524 199.322 22.862C201.206 24.7354 202.312 25.8236 202.64 26.1405C202.967 26.4573 203.186 26.6088 203.295 26.6088C203.555 26.6088 203.787 26.1956 204.005 25.3828C204.237 24.5012 204.346 23.5507 204.346 22.5314C204.346 21.3329 204.073 20.3136 203.514 19.4733C202.886 18.5228 202.025 17.8478 200.947 17.4483C200.428 17.2555 200.128 17.1177 200.046 17.0489C199.936 16.9524 199.868 16.8285 199.868 16.7045C199.868 16.4428 200.059 16.305 200.428 16.305C200.742 16.305 208.005 16.7045 208.333 16.7045C208.661 16.7045 208.852 16.8422 208.852 17.104C208.852 17.3519 208.62 17.5585 208.142 17.7239C207.377 18.0131 206.9 18.4126 206.708 18.9085C206.463 19.4733 206.285 20.4376 206.176 21.8426C206.067 23.1375 205.889 24.1706 205.657 24.942C205.507 25.4792 205.248 26.168 204.879 27.0083C204.77 27.2562 204.701 27.4629 204.701 27.6282C204.701 27.8899 204.974 28.2618 205.534 28.7302C207.896 30.7551 209.876 32.2153 211.46 33.1382C212.921 33.9785 214.75 34.4469 216.935 34.5433C217.303 34.5433 217.494 34.6535 217.494 34.8601C217.494 35.0943 217.317 35.3009 216.962 35.48C216.197 35.8795 215.064 36.0723 213.549 36.0723C209.931 36.0723 206.504 34.7499 203.241 32.1051C202.872 31.7883 202.599 31.6367 202.462 31.6367C202.298 31.6367 201.903 31.8709 201.261 32.353C198.039 34.7499 194.666 35.9483 191.157 35.9483C189.546 35.9483 187.949 35.6866 186.365 35.1494C184.781 34.6122 183.402 33.8821 182.228 32.9454C180.726 31.7607 179.607 30.2592 178.829 28.4409C178.146 26.8292 177.805 25.1211 177.805 23.289C177.805 20.9197 178.487 18.8534 179.853 17.0764C180.945 15.6714 182.324 14.6107 184.003 13.9219C184.768 13.5913 185.15 13.3158 185.15 13.0816C185.15 13.0265 184.973 12.6822 184.618 12.0209C183.798 10.5332 183.402 8.99042 183.402 7.3925C183.402 5.34001 184.071 3.65944 185.423 2.33703C186.775 1.02839 188.441 0.367188 190.434 0.367188L190.448 0.394738ZM185.901 14.8311C185.491 14.8311 184.973 15.0102 184.345 15.3821C183.717 15.754 183.17 16.181 182.693 16.6769C181.587 17.8754 181.027 19.3355 181.027 21.0574C181.027 23.5921 181.846 25.9201 183.498 28.0827C185.969 31.3337 189.178 32.9591 193.11 32.9591C195.704 32.9591 197.875 32.353 199.65 31.1408C200.36 30.6449 200.728 30.273 200.728 30.0388C200.728 29.8597 200.291 29.3776 199.431 28.5924C197.028 26.4435 194.98 24.4737 193.301 22.6829C191.622 20.8921 189.724 18.6743 187.608 16.002C186.993 15.2306 186.406 14.8448 185.874 14.8448L185.901 14.8311Z" fill="white"/>
<path d="M4.20517 28.7982V7.61203C4.20517 6.13809 3.93211 5.03608 3.39964 4.33355C2.88082 3.74122 1.97971 3.31419 0.709964 3.05246C0.232104 2.95603 0 2.77696 0 2.51523C0 2.1984 0.204797 2.04688 0.614392 2.04688H10.8133C11.2092 2.04688 11.4004 2.21218 11.4004 2.57033C11.4004 2.81828 11.0864 3.01113 10.472 3.16266C9.7074 3.35551 9.16127 3.76877 8.8336 4.37487C8.51957 4.98098 8.36939 5.89014 8.36939 7.08857V26.4426C8.36939 29.542 8.36939 31.6772 8.8336 32.6552C9.95315 35.0521 19.0735 34.1567 21.1897 32.9858C22.0772 32.5037 24.2071 30.0793 24.5757 29.3767C24.7122 29.1288 24.8624 29.0048 25.0399 29.0048C25.3539 29.0048 25.5041 29.239 25.5041 29.6936C25.5041 31.0986 23.6063 34.1154 22.8554 35.2449C22.6779 35.5204 22.3639 35.6857 22.0362 35.6857H1.76126C1.40628 35.6857 1.22878 35.5342 1.22878 35.2449C1.22878 34.997 1.43358 34.8041 1.84318 34.6802C2.49853 34.4873 2.96274 34.2669 3.2358 34.0465C3.71366 33.6195 3.98672 32.8205 4.09595 31.6634C4.17787 30.892 4.21883 29.9415 4.21883 28.8257L4.20517 28.7982Z" fill="white"/>
<path d="M25.9271 35.6585C25.4765 35.6585 25.2444 35.5069 25.2444 35.1901C25.2444 34.9559 25.4356 34.8182 25.8315 34.7493C26.8418 34.5978 27.4972 34.1983 27.7839 33.5371C28.0023 33.0274 28.0979 31.9392 28.0979 30.2862V18.7288C28.0979 17.4753 27.9477 16.7039 27.6337 16.4146C27.3606 16.1667 26.7736 16.0427 25.8725 16.0427C25.6404 16.0427 25.4219 16.0427 25.1898 16.0702C24.9304 16.084 24.7256 16.0978 24.5754 16.0978C24.2068 16.0978 24.0156 15.96 24.0156 15.6845C24.0156 15.4503 24.1522 15.285 24.4116 15.1886C24.4935 15.1611 31.6341 12.4336 31.7297 12.4336C32.0573 12.4336 32.2212 12.5713 32.2212 12.8468C32.2212 12.9984 32.2075 13.1775 32.1666 13.3841C31.9891 14.431 31.8798 16.0978 31.8525 18.3569V30.2724C31.8525 31.581 31.9208 32.4764 32.071 32.9585C32.3031 33.5922 32.781 34.0743 33.5046 34.3912C33.9278 34.5289 34.5968 34.6529 35.5116 34.7906C35.9075 34.8457 36.0987 34.9697 36.0987 35.1901C36.0987 35.5069 35.8393 35.6585 35.3204 35.6585" fill="white"/>
<path d="M58.8596 18.8936V7.33625C58.8596 6.08271 58.7095 5.31131 58.3954 5.02203C58.1224 4.77408 57.5353 4.6501 56.6342 4.6501C56.4021 4.6501 56.1836 4.6501 55.9515 4.67765C55.6921 4.69142 55.4873 4.7052 55.3371 4.7052C54.9685 4.7052 54.7773 4.56745 54.7773 4.29195C54.7773 4.05777 54.9139 3.89247 55.1733 3.79604C55.2552 3.76849 62.3958 1.04102 62.4914 1.04102C62.8191 1.04102 62.9829 1.17877 62.9829 1.45427C62.9829 1.6058 62.9692 1.78487 62.9283 1.9915C62.7508 3.03841 62.6416 4.7052 62.6143 6.96432V18.8798" fill="white"/>
<path d="M106.972 34.7494C105.457 34.653 104.515 34.0469 104.146 32.9449C103.887 32.1872 103.75 30.6169 103.737 28.22V22.3518C103.737 20.8365 103.627 19.5968 103.423 18.605C102.986 16.6627 102.03 15.1612 100.569 14.1005C99.2174 13.1362 97.6746 12.6541 95.927 12.6541C93.0462 12.6541 90.6022 13.8525 88.5816 16.2494C88.131 16.7729 87.8716 17.0346 87.8033 17.0346C87.6395 17.0346 87.5576 16.8968 87.5576 16.6213C87.5576 16.5111 87.5576 16.3183 87.5849 16.0566C87.6395 14.8168 87.7214 13.8112 87.8443 13.1087C87.8716 12.9021 87.8989 12.7092 87.8989 12.5715C87.8989 12.296 87.7351 12.1582 87.4074 12.1582C87.3118 12.1582 80.1849 14.8857 80.0893 14.9132C79.8299 15.0097 79.6934 15.175 79.6934 15.4091C79.6934 15.6846 79.8845 15.8224 80.2531 15.8224C80.4033 15.8224 80.6081 15.8224 80.8675 15.7948C81.0996 15.7811 81.3181 15.7673 81.5502 15.7673C82.4513 15.7673 83.0247 15.8913 83.3114 16.1392C83.6255 16.4285 83.7757 17.2137 83.7757 18.4534V30.8235C83.803 32.2148 83.7347 33.1791 83.5709 33.7025C83.3251 34.2811 82.8745 34.6254 82.2055 34.7632C81.8506 34.8458 81.6731 35.0111 81.6731 35.2591C81.6731 35.5208 81.8642 35.6586 82.2328 35.6586H91.1211C91.6399 35.6586 91.8993 35.507 91.8993 35.1902C91.8993 34.9009 91.6262 34.7494 91.0938 34.777C89.7148 34.777 88.7454 34.3499 88.1856 33.4959C87.8306 32.9173 87.6122 31.6776 87.5576 29.749V24.9415C87.5576 22.9579 87.7351 21.236 88.0764 19.7896C88.3358 18.6187 88.9366 17.5581 89.865 16.5938C91.1347 15.2989 92.6366 14.6515 94.3842 14.6515C96.6642 14.6515 98.2617 15.7673 99.1628 17.9989C99.7362 19.3764 100.023 21.3462 100.023 23.9084V28.22C100.009 30.2174 99.9956 31.3607 99.9683 31.6225C99.8864 32.8898 99.6952 33.7301 99.4085 34.1295C99.1764 34.4601 98.7668 34.6805 98.1661 34.7907C97.7975 34.8596 97.6063 35.0111 97.6063 35.2591C97.6063 35.5208 97.7838 35.6586 98.1251 35.6586H107.041C107.573 35.6586 107.846 35.4933 107.846 35.1351C107.846 34.8734 107.573 34.7356 107.041 34.7356L106.972 34.7494Z" fill="white"/>
<path d="M173.531 34.7494C172.015 34.653 171.073 34.0469 170.705 32.9449C170.445 32.1872 170.309 30.6169 170.295 28.22V22.3518C170.295 20.8365 170.186 19.5968 169.981 18.605C169.544 16.6627 168.589 15.1612 167.128 14.1005C165.776 13.1362 164.233 12.6541 162.486 12.6541C159.605 12.6541 157.161 13.8525 155.14 16.2494C154.69 16.7729 154.43 17.0346 154.362 17.0346C154.198 17.0346 154.116 16.8968 154.116 16.6213C154.116 16.5111 154.116 16.3183 154.143 16.0566C154.198 14.8168 154.28 13.8112 154.403 13.1087C154.43 12.9021 154.457 12.7092 154.457 12.5715C154.457 12.296 154.294 12.1582 153.966 12.1582C153.87 12.1582 146.743 14.8857 146.648 14.9132C146.388 15.0097 146.252 15.175 146.252 15.4091C146.252 15.6846 146.443 15.8224 146.812 15.8224C146.962 15.8224 147.167 15.8224 147.426 15.7948C147.658 15.7811 147.877 15.7673 148.109 15.7673C149.01 15.7673 149.583 15.8913 149.87 16.1392C150.184 16.4285 150.334 17.2137 150.334 18.4534V30.8235C150.362 32.2148 150.293 33.1791 150.129 33.7025C149.884 34.2811 149.433 34.6254 148.764 34.7632C148.409 34.8458 148.232 35.0111 148.232 35.2591C148.232 35.5208 148.423 35.6586 148.791 35.6586H157.68C158.198 35.6586 158.458 35.507 158.458 35.1902C158.458 34.9009 158.185 34.7494 157.652 34.777C156.273 34.777 155.304 34.3499 154.744 33.4959C154.389 32.9173 154.171 31.6776 154.116 29.749V24.9415C154.116 22.9579 154.294 21.236 154.635 19.7896C154.894 18.6187 155.495 17.5581 156.424 16.5938C157.693 15.2989 159.195 14.6515 160.943 14.6515C163.223 14.6515 164.82 15.7673 165.721 17.9989C166.295 19.3764 166.582 21.3462 166.582 23.9084V28.22C166.568 30.2174 166.554 31.3607 166.527 31.6225C166.445 32.8898 166.254 33.7301 165.967 34.1295C165.735 34.4601 165.325 34.6805 164.725 34.7907C164.356 34.8596 164.165 35.0111 164.165 35.2591C164.165 35.5208 164.342 35.6586 164.684 35.6586H173.599C174.132 35.6586 174.405 35.4933 174.405 35.1351C174.405 34.8734 174.132 34.7356 173.599 34.7356L173.531 34.7494Z" fill="white"/>
<path d="M62.6279 7.68164V15.988C62.6552 16.7595 62.7371 17.1452 62.8463 17.1452C62.9419 17.1452 63.1604 16.9661 63.5017 16.6079C64.7032 15.2993 65.8091 14.3488 66.7921 13.7702C68.0891 13.0264 69.5227 12.6682 71.0655 12.6682C73.0316 12.6682 74.7109 13.2743 76.0899 14.4866C77.4416 15.6712 78.2744 17.3242 78.5748 19.4594C78.684 20.2583 78.7523 21.7047 78.7523 23.771V30.6723C78.7659 32.3529 79.1209 33.4687 79.8309 34.0472C80.3633 34.4743 81.1143 34.6947 82.0563 34.7084C82.6025 34.7222 82.8892 34.8737 82.8892 35.1492C82.8892 35.4936 82.6298 35.6727 82.1383 35.6727H72.977C72.5674 35.6727 72.3626 35.535 72.3626 35.2595C72.3626 35.0115 72.581 34.8462 73.0179 34.7635C73.646 34.6258 74.0692 34.5018 74.2604 34.3641C74.6563 34.0886 74.8748 33.5376 74.943 32.7111C74.9976 32.2014 75.0113 31.6641 75.0113 31.1131V24.2669C75.0113 21.443 74.7382 19.4318 74.2058 18.2334C73.2091 16.0294 71.5297 14.9274 69.1814 14.9274C67.6659 14.9274 66.3006 15.5335 65.0855 16.7319C63.4471 18.3298 62.6142 20.6716 62.6142 23.771V29.9836C62.6142 31.8432 62.86 33.0692 63.3515 33.6753C63.843 34.3641 64.6622 34.736 65.8227 34.7773C66.4917 34.7773 66.8194 34.9426 66.8194 35.2732C66.8194 35.535 66.6419 35.6727 66.2869 35.6727H66.0685C64.908 35.6452 56.9482 35.6727 56.7161 35.6727C56.3611 35.6727 56.1836 35.5487 56.1836 35.2732C56.1836 35.0666 56.3611 34.8875 56.7161 34.7498C57.5762 34.4743 58.1496 34.0335 58.45 33.4136C58.7231 32.8213 58.8596 31.6779 58.8596 29.9698V8.30152" fill="white"/>
<path d="M121.226 14.5826L121.294 17.6545V18.2468C121.28 18.5774 121.144 18.7427 120.884 18.7427C120.666 18.7427 120.516 18.4672 120.393 17.9024C120.161 16.8693 119.71 16.0428 119.055 15.4091C117.976 14.4449 116.748 13.9627 115.341 13.9627C114.017 13.9627 112.993 14.3347 112.269 15.0923C111.682 15.6846 111.395 16.4285 111.395 17.3101C111.395 18.1917 111.737 18.9493 112.419 19.5003C113.048 19.9962 113.935 20.4784 115.082 20.9743L117.99 22.2278C119.615 22.9166 120.803 23.7017 121.553 24.5696C122.4 25.5476 122.823 26.8976 122.823 28.5781C122.823 31.0577 121.99 32.9724 120.311 34.3224C118.877 35.507 117.143 36.0994 115.082 36.0994C113.389 36.0994 111.832 35.7688 110.412 35.0938C109.197 34.5152 108.583 33.8402 108.61 33.0551L108.665 29.1154C108.679 28.5781 108.856 28.3026 109.197 28.3026C109.375 28.3026 109.511 28.4128 109.593 28.6195C109.621 28.6746 109.702 28.9501 109.839 29.4873C110.235 30.975 110.89 32.201 111.819 33.1377C112.952 34.2397 114.235 34.7907 115.655 34.7907C117.239 34.7907 118.468 34.2535 119.369 33.1653C120.038 32.3801 120.366 31.4709 120.366 30.4378C120.366 29.4046 120.011 28.4955 119.314 27.7792C118.864 27.2833 118.058 26.7736 116.925 26.2226L113.921 24.79C112.283 24.0048 111.136 23.2472 110.481 22.5309C109.552 21.5115 109.088 20.2855 109.088 18.8667C109.088 16.5249 110.153 14.7892 112.283 13.6735C113.553 13.0122 114.932 12.6816 116.406 12.6816C117.881 12.6816 119.396 13.0122 120.721 13.6735C120.98 13.8112 121.144 13.949 121.212 14.1143C121.226 14.2107 121.239 14.376 121.239 14.6102L121.226 14.5826Z" fill="white"/>
<path d="M136.109 12.6544C138.293 12.6544 140.341 13.2743 142.266 14.5003C144.096 15.6712 145.475 17.2002 146.417 19.1012C147.291 20.8782 147.741 22.6276 147.741 24.377C147.741 26.5122 147.086 28.5785 145.789 30.5896C144.519 32.5044 142.84 33.9783 140.765 34.9977C139.208 35.7415 137.488 36.0997 135.645 36.0997C132.436 36.0997 129.665 34.8461 127.316 32.3253C125.295 30.135 124.285 27.6555 124.285 24.8867C124.285 23.5368 124.504 22.173 124.954 20.768C125.405 19.3767 126.005 18.1782 126.77 17.2002C127.794 15.8502 129.077 14.7758 130.607 13.9768C132.272 13.0952 134.102 12.6406 136.122 12.6406L136.109 12.6544ZM135.153 13.9355C132.504 13.9355 130.484 15.2441 129.118 17.8476C128.408 19.1838 128.04 20.6853 128.04 22.3796C128.04 24.9694 128.668 27.3938 129.924 29.6391C130.798 31.2095 131.849 32.4355 133.078 33.2895C134.293 34.1436 135.59 34.5706 136.955 34.5706C138.676 34.5706 140.191 33.937 141.474 32.6559C143.086 31.0304 143.891 28.7575 143.891 25.8372C143.891 22.9169 143.113 20.3271 141.543 17.9303C140.683 16.6216 139.727 15.6161 138.689 14.9273C137.693 14.2661 136.518 13.9355 135.153 13.9355Z" fill="white"/>
<path d="M30.2287 3.28721C30.5837 3.28721 32.8911 6.01469 32.8911 6.29019C32.8911 6.62079 30.7202 9.78907 30.256 9.78907C29.6826 9.78907 27.5254 6.8412 27.5254 6.35907C27.5254 6.00091 29.8601 3.27344 30.2287 3.27344V3.28721Z" fill="white"/>
<path d="M39.6076 15.3409C38.4471 16.5531 37.6825 18.1372 37.6825 19.8178C37.6825 19.8178 37.6825 19.8453 37.6825 19.8591C37.6825 20.6994 37.9282 21.1126 38.4334 21.1126C38.8157 21.1126 41.6009 19.5836 41.6009 18.9913C41.6009 18.7433 41.56 18.4127 41.5054 17.9995C41.4371 17.5724 41.4098 17.2143 41.4098 16.9112C41.4098 16.0847 41.6419 15.2169 42.3792 14.8174C42.4201 14.7899 42.4474 14.7623 42.4884 14.7485C45.2054 13.5501 47.4172 15.396 48.4821 17.9995C48.7552 18.6744 49.0692 19.5147 49.1648 20.4928C49.1921 20.7683 49.2058 21.0438 49.2058 21.333C49.1921 21.7187 48.9737 21.9942 48.7962 22.1458C48.5094 22.4075 47.3762 22.7106 45.4921 23.1514C42.7888 23.8126 40.9729 24.3773 40.0445 24.8733C39.0478 25.3967 38.2696 26.1681 37.7098 27.1599C37.15 28.1655 36.877 29.2813 36.877 30.5348C36.877 31.8848 37.2046 32.9593 37.8463 33.7858C38.884 35.1219 40.3039 35.7832 42.1198 35.7832C43.7308 35.7832 45.3283 35.301 46.912 34.3505C47.4718 34.0062 48.291 33.5103 49.1648 32.6149C49.1921 32.5873 49.2877 32.4909 49.2877 32.4909C49.3423 33.345 49.4242 33.9786 49.5471 34.3368C49.7928 35.0531 50.3799 35.4801 51.281 35.6316H56.3327C56.8652 35.6316 57.1382 35.4663 57.1382 35.1082C57.1382 34.8464 56.8652 34.7087 56.3327 34.7087C54.8172 34.6123 53.8751 34.0062 53.5065 32.9042C53.2471 32.1465 53.1106 30.5762 53.0969 28.1793C53.0969 28.1793 53.0969 22.7106 53.0969 23.7161C53.0969 22.7106 53.0833 21.8565 53.056 21.1402C53.015 20.5203 52.9604 19.8591 52.8921 19.253C52.5644 17.1867 51.7452 15.575 50.4345 14.4179C49.2194 13.3572 47.7722 12.7787 46.1065 12.6547C45.8744 12.6409 45.6423 12.5996 45.4102 12.5996C44.4818 12.5996 43.5943 12.7374 42.7615 12.9991C41.7784 13.3159 40.9183 13.9358 40.2083 14.6934L39.6485 15.2858L39.6076 15.3409ZM49.2058 28.565C49.2058 29.2124 49.1648 29.8047 49.0829 30.3695C48.96 31.1685 48.4958 31.9123 47.663 32.5873C46.3386 33.648 44.8231 34.0475 43.1301 33.7858C43.0755 33.7858 42.9936 33.7444 42.9526 33.7169C41.7648 32.8628 41.164 31.6644 41.164 30.1216C41.164 29.0609 41.4508 28.0415 42.0378 27.0635C42.5567 26.2094 43.3076 25.5207 44.2906 24.9972C45.8061 24.1707 47.2807 23.7712 48.7142 23.7712C48.8917 23.7712 49.0283 23.8263 49.0829 23.9365C49.2331 24.2396 49.2058 28.5788 49.2058 28.5788V28.565Z" fill="white"/>
<path d="M232.308 1.37305C235.161 1.37305 238.029 2.14445 240.923 3.68727C242.193 4.37603 243.012 4.7204 243.367 4.7204C243.722 4.7204 243.981 4.56888 244.2 4.25205C244.254 4.19695 244.391 3.97655 244.609 3.56329C244.746 3.35667 244.896 3.24646 245.074 3.24646C245.36 3.24646 245.51 3.39799 245.51 3.68727C245.51 3.8388 245.661 11.6768 245.661 11.8835C245.661 12.2278 245.469 12.4069 245.101 12.4069C244.841 12.4069 244.637 12.2692 244.486 11.9937C244.432 11.9386 244.282 11.5942 243.995 10.9605C242.998 8.79784 241.797 7.08973 240.377 5.86374C238.001 3.81124 235.366 2.77811 232.472 2.77811C229.577 2.77811 226.956 3.67349 224.689 5.46426C222.559 7.14483 220.989 9.3764 220.006 12.1865C219.242 14.3217 218.859 16.4706 218.859 18.6195C218.859 22.022 219.815 25.1489 221.74 28.0004C223.351 30.411 225.454 32.1605 228.034 33.2487C229.782 33.965 231.625 34.3369 233.605 34.3369C236.226 34.3369 238.602 33.6482 240.732 32.2707C242.152 31.3477 243.244 30.411 244.022 29.433C244.391 28.9784 244.719 28.7442 244.978 28.7442C245.319 28.7442 245.497 28.882 245.497 29.1437C245.497 29.7774 244.964 30.6039 243.913 31.6095C242.07 33.3451 240.117 34.5987 238.056 35.3563C236.295 36.0175 234.26 36.3481 231.926 36.3481C229.195 36.3481 226.751 35.866 224.594 34.9017C222.437 33.9375 220.484 32.436 218.75 30.4248C216.02 27.2427 214.654 23.4133 214.654 18.9501C214.654 15.3273 215.651 11.9937 217.658 8.94937C220.976 3.92145 225.864 1.41437 232.335 1.41437L232.308 1.37305Z" fill="white"/>
<path d="M258.933 12.6544C261.117 12.6544 263.165 13.2743 265.091 14.5003C266.92 15.6712 268.299 17.2002 269.241 19.1012C270.115 20.8782 270.552 22.6276 270.552 24.377C270.552 26.5122 269.896 28.5785 268.599 30.5896C267.33 32.5044 265.65 33.9783 263.575 34.9977C262.019 35.7415 260.298 36.0997 258.455 36.0997C255.247 36.0997 252.475 34.8461 250.127 32.3253C248.106 30.135 247.096 27.6555 247.096 24.8867C247.096 23.5368 247.314 22.173 247.765 20.768C248.215 19.3767 248.816 18.1782 249.581 17.2002C250.605 15.8502 251.888 14.7758 253.417 13.9768C255.083 13.0952 256.912 12.6406 258.933 12.6406V12.6544ZM257.977 13.9355C255.329 13.9355 253.308 15.2441 251.943 17.8476C251.233 19.1838 250.864 20.6853 250.864 22.3796C250.864 24.9694 251.492 27.3938 252.748 29.6391C253.622 31.2095 254.673 32.4355 255.902 33.2895C257.117 34.1436 258.414 34.5706 259.78 34.5706C261.5 34.5706 263.015 33.937 264.299 32.6559C265.91 31.0304 266.715 28.7575 266.715 25.8372C266.715 22.9169 265.937 20.3271 264.367 17.9303C263.507 16.6216 262.551 15.6161 261.513 14.9273C260.517 14.2661 259.343 13.9355 257.977 13.9355Z" fill="white"/>
<path d="M331.131 15.7397C329.301 13.6872 326.926 12.6541 324.004 12.6541C322.243 12.6541 320.7 13.1225 319.362 14.0592C318.734 14.4862 317.956 15.2025 317.068 16.2081C316.822 16.456 316.631 16.58 316.508 16.58C316.331 16.58 316.249 16.456 316.222 16.2632C316.276 15.051 316.358 14.0592 316.481 13.3704C316.508 13.1638 316.536 12.9709 316.536 12.8332C316.536 12.5577 316.372 12.4199 316.044 12.4199C315.949 12.4199 308.822 15.1474 308.726 15.1749C308.467 15.2714 308.33 15.4367 308.33 15.6709C308.33 15.9464 308.521 16.0841 308.89 16.0841C309.04 16.0841 309.245 16.0841 309.504 16.0566C309.736 16.0428 309.955 16.029 310.187 16.029C311.088 16.029 311.661 16.153 311.948 16.4009C312.262 16.6902 312.522 18.6463 312.522 18.6463C312.535 18.9907 312.549 19.3626 312.549 19.8172V39.1988C312.535 41.2237 312.412 42.5186 312.18 43.0971C311.948 43.6895 311.457 44.0889 310.692 44.2818C309.927 44.4746 309.545 44.6951 309.545 44.9292C309.545 45.2461 309.75 45.3976 310.16 45.3976H320.509C320.877 45.3976 321.068 45.2461 321.068 44.9568C321.068 44.6675 320.85 44.4884 320.44 44.4333C318.884 44.2405 317.819 43.9512 317.273 43.5655C316.659 43.0834 316.331 42.1053 316.317 40.6038V35.0111C316.317 34.5841 316.317 34.3499 316.344 34.2948C316.358 34.1158 316.44 34.0193 316.563 34.0193C316.659 34.0193 316.877 34.1158 317.191 34.3086C319.212 35.4933 321.109 36.0856 322.898 36.0856C325.615 36.0856 328.045 35.0387 330.175 32.9311C332.715 30.4378 333.984 27.2557 333.984 23.3987C333.984 20.3957 333.042 17.8335 331.158 15.7122L331.131 15.7397ZM327.567 32.7658C326.27 34.1984 324.782 34.9147 323.13 34.9147C322.052 34.9147 321.041 34.6254 320.099 34.0469C318.939 33.3581 318.051 32.4352 317.437 31.2643C316.645 29.7766 316.235 27.4486 316.235 24.3216C316.235 22.3656 316.413 20.7677 316.754 19.5141C317.177 17.9851 317.915 16.8004 318.98 15.9601C320.085 15.0785 321.301 14.6239 322.639 14.6239C324.482 14.6239 326.038 15.3402 327.308 16.7866C329.233 19.0044 330.189 21.8283 330.189 25.2583C330.189 28.3302 329.315 30.8235 327.581 32.752L327.567 32.7658Z" fill="white"/>
<path d="M379.422 34.7494C377.906 34.653 376.964 34.0469 376.595 32.9449C376.336 32.1872 376.199 30.6169 376.186 28.22V22.3518C376.186 20.8365 376.077 19.5968 375.872 18.605C375.435 16.6627 374.479 15.1612 373.018 14.1005C371.667 13.1362 370.124 12.6541 368.376 12.6541C365.495 12.6541 363.051 13.8525 361.031 16.2494C360.58 16.7729 360.321 17.0346 360.253 17.0346C360.089 17.0346 360.007 16.8968 360.007 16.6213C360.007 16.5111 360.007 16.3183 360.034 16.0566C360.089 14.8168 360.171 13.8112 360.294 13.1087C360.321 12.9021 360.348 12.7092 360.348 12.5715C360.348 12.296 360.184 12.1582 359.857 12.1582C359.761 12.1582 352.634 14.8857 352.538 14.9132C352.279 15.0097 352.143 15.175 352.143 15.4091C352.143 15.6846 352.334 15.8224 352.702 15.8224C352.853 15.8224 353.057 15.8224 353.317 15.7948C353.549 15.7811 353.767 15.7673 353.999 15.7673C354.9 15.7673 355.474 15.8913 355.761 16.1392C356.075 16.4285 356.225 17.2137 356.225 18.4534V30.8235C356.252 32.2148 356.184 33.1791 356.02 33.7025C355.774 34.2811 355.324 34.6254 354.655 34.7632C354.3 34.8458 354.122 35.0111 354.122 35.2591C354.122 35.5208 354.313 35.6586 354.682 35.6586H363.57C364.089 35.6586 364.348 35.507 364.348 35.1902C364.348 34.9009 364.075 34.7494 363.543 34.777C362.164 34.777 361.195 34.3499 360.635 33.4959C360.28 32.9173 360.061 31.6776 360.007 29.749V24.9415C360.007 22.9579 360.184 21.236 360.526 19.7896C360.785 18.6187 361.386 17.5581 362.314 16.5938C363.584 15.2989 365.086 14.6515 366.833 14.6515C369.113 14.6515 370.711 15.7673 371.612 17.9989C372.185 19.3764 372.472 21.3462 372.472 23.9084V28.22C372.458 30.2174 372.445 31.3607 372.417 31.6225C372.336 32.8898 372.144 33.7301 371.858 34.1295C371.626 34.4601 371.216 34.6805 370.615 34.7907C370.247 34.8596 370.056 35.0111 370.056 35.2591C370.056 35.5208 370.219 35.6586 370.574 35.6586H379.49C380.022 35.6586 380.295 35.4933 380.295 35.1351C380.295 34.8734 380.022 34.7356 379.49 34.7356L379.422 34.7494Z" fill="white"/>
<path d="M398.48 13.1095H391.381C390.971 13.1095 390.766 13.2472 390.766 13.509C390.766 13.7707 390.957 13.936 391.326 14.0049C392.118 14.1564 392.678 14.3217 393.005 14.5008C393.62 14.8451 393.934 15.465 393.934 16.3742C393.934 17.5175 393.715 18.716 393.306 19.9419L390.37 28.3861C389.934 29.433 389.619 29.9565 389.442 29.9565C389.183 29.9565 388.773 29.2953 388.227 27.9866L384.95 20.2725C384.104 18.3027 383.626 17.1594 383.503 16.8425C383.312 16.264 383.216 15.8094 383.216 15.465C383.216 14.7487 383.776 14.2528 384.896 14.0186C385.346 13.9222 385.578 13.7569 385.578 13.5227C385.578 13.2472 385.401 13.1095 385.046 13.1095H376.349C375.857 13.1095 375.611 13.2472 375.611 13.5227C375.611 13.7845 375.83 13.9635 376.253 14.06C377.127 14.2804 377.769 14.6385 378.178 15.1482C378.451 15.5201 378.915 16.4155 379.543 17.8343L386.356 32.5186C386.889 33.6895 387.162 34.64 387.162 35.3976C387.162 36.6649 386.657 38.07 385.919 39.7506C384.158 43.7316 376.977 44.2275 376.185 44.379C375.816 44.4479 375.625 44.6132 375.625 44.8749C375.625 45.1367 375.83 45.2744 376.239 45.2744H385.346C385.742 45.2744 385.988 45.0265 386.097 44.5305C386.206 44.0897 386.93 41.8995 388.241 37.9736L395.053 19.8455C395.818 17.8619 396.405 16.4568 396.815 15.6303C397.252 14.8038 397.77 14.2666 398.371 14.0049C398.781 13.8258 398.986 13.6467 398.986 13.4676C398.986 13.2197 398.808 13.0957 398.467 13.0957L398.48 13.1095Z" fill="white"/>
<path d="M337.834 15.3409C336.674 16.5531 335.909 18.1372 335.909 19.8178C335.909 19.8178 335.909 19.8453 335.909 19.8591C335.909 20.6994 336.155 21.1126 336.66 21.1126C337.042 21.1126 339.828 19.5836 339.828 18.9913C339.828 18.7433 339.787 18.4127 339.732 17.9995C339.664 17.5724 339.636 17.2143 339.636 16.9112C339.636 16.0847 339.868 15.2169 340.606 14.8174C340.647 14.7899 340.674 14.7623 340.715 14.7485C343.432 13.5501 345.644 15.396 346.709 17.9995C346.982 18.6744 347.296 19.5147 347.391 20.4928C347.419 20.7683 347.432 21.0438 347.432 21.333C347.419 21.7187 347.2 21.9942 347.036 22.1458C346.75 22.4075 345.616 22.7106 343.732 23.1514C341.029 23.8126 339.213 24.3773 338.285 24.8733C337.288 25.3967 336.51 26.1681 335.95 27.1599C335.39 28.1655 335.117 29.2813 335.117 30.5348C335.117 31.8848 335.445 32.9593 336.087 33.7858C337.124 35.1219 338.544 35.7832 340.36 35.7832C341.971 35.7832 343.569 35.301 345.152 34.3505C345.712 34.0062 346.531 33.5103 347.405 32.6149C347.432 32.5873 347.528 32.4909 347.528 32.4909C347.583 33.345 347.664 33.9786 347.787 34.3368C348.033 35.0531 348.62 35.4801 349.521 35.6316H354.573C355.105 35.6316 355.378 35.4663 355.378 35.1082C355.378 34.8464 355.105 34.7087 354.573 34.7087C353.057 34.6123 352.115 34.0062 351.747 32.9042C351.487 32.1465 351.351 30.5762 351.337 28.1793C351.337 28.1793 351.337 22.7106 351.337 23.7161C351.337 22.7106 351.323 21.8565 351.296 21.1402C351.255 20.5203 351.201 19.8591 351.132 19.253C350.805 17.1867 349.999 15.575 348.675 14.4179C347.46 13.3572 346.012 12.7787 344.347 12.6547C344.115 12.6409 343.883 12.5996 343.65 12.5996C342.722 12.5996 341.835 12.7374 341.002 12.9991C340.019 13.3159 339.159 13.9358 338.449 14.6934L337.889 15.2858L337.834 15.3409ZM347.432 28.565C347.432 29.2124 347.391 29.8047 347.309 30.3695C347.187 31.1685 346.722 31.9123 345.89 32.5873C344.565 33.648 343.05 34.0475 341.357 33.7858C341.302 33.7858 341.22 33.7444 341.179 33.7169C339.991 32.8628 339.391 31.6644 339.391 30.1216C339.391 29.0609 339.677 28.0415 340.264 27.0635C340.783 26.2094 341.534 25.5207 342.517 24.9972C344.033 24.1707 345.507 23.7712 346.941 23.7712C347.118 23.7712 347.255 23.8263 347.309 23.9365C347.46 24.2396 347.432 28.5788 347.432 28.5788V28.565Z" fill="white"/>
<path d="M310.474 34.777C309.313 34.6943 308.481 34.2535 307.962 33.4408C307.62 32.9449 307.443 31.8015 307.429 30.0108V22.1727C307.429 20.5197 307.293 19.1835 307.033 18.1779C306.637 16.6213 305.832 15.3402 304.617 14.3347C303.238 13.2051 301.531 12.6403 299.51 12.6403C297.49 12.6403 295.647 13.3015 294.063 14.6102C293.203 15.3265 292.479 16.3045 291.919 17.5443C291.646 16.7866 291.387 16.1943 291.141 15.7673C290.731 15.0234 290.144 14.3898 289.352 13.8525C288.151 13.0536 286.758 12.6403 285.202 12.6403C283.29 12.6403 281.625 13.2189 280.191 14.3622C279.891 14.6377 279.549 15.0096 278.812 15.8224C278.566 16.0703 278.375 16.1943 278.252 16.1943C278.075 16.1943 277.993 16.0703 277.966 15.8775V15.8224C277.966 15.6433 277.966 15.4642 277.993 15.2989C278.048 14.5275 278.116 13.8663 278.198 13.3704C278.225 13.1638 278.252 12.9709 278.252 12.8332C278.252 12.5577 278.089 12.4199 277.761 12.4199C277.665 12.4199 270.538 15.1474 270.443 15.1749C270.183 15.2714 270.047 15.4367 270.047 15.6709C270.047 15.9464 270.238 16.0841 270.607 16.0841C270.757 16.0841 270.962 16.0841 271.221 16.0566C271.453 16.0428 271.672 16.029 271.904 16.029C272.805 16.029 273.378 16.153 273.665 16.4009C273.924 16.6627 273.979 17.0484 273.979 17.0484C274.061 17.4065 274.102 17.9713 274.102 18.7427V29.6113C274.102 30.7959 274.061 31.8429 273.979 32.7658C273.883 33.8402 273.474 34.4601 272.764 34.6392C271.986 34.8045 271.59 34.9974 271.59 35.2315C271.59 35.507 271.794 35.6448 272.204 35.6448H281.434C281.775 35.6448 281.952 35.507 281.952 35.2315C281.952 34.956 281.748 34.7907 281.338 34.7632C280.396 34.6668 279.7 34.4877 279.235 34.226C278.635 33.8953 278.239 33.2755 278.061 32.3525C277.911 31.6638 277.843 30.4378 277.843 28.6608V23.316C277.843 19.707 278.73 17.131 280.505 15.602C281.529 14.7479 282.621 14.3209 283.782 14.3209C284.615 14.3209 285.42 14.5413 286.199 14.9683C286.977 15.4091 287.578 15.9739 287.987 16.6764C288.67 17.806 289.011 19.4866 289.011 21.7319V28.647C289.025 29.5286 288.997 30.6444 288.916 31.9668C288.834 33.0413 288.642 33.7576 288.328 34.1295C288.096 34.3775 287.7 34.5841 287.127 34.7494C286.772 34.8458 286.595 35.0111 286.595 35.2453C286.595 35.507 286.786 35.6448 287.182 35.6448H296.138C296.548 35.6448 296.752 35.4933 296.752 35.204C296.752 34.9285 296.507 34.777 296.015 34.7632C295.578 34.7494 295.073 34.653 294.527 34.4739C293.926 34.2948 293.489 33.9091 293.203 33.3168C292.943 32.8071 292.793 31.4021 292.766 29.1016V21.7319C292.766 16.828 294.568 14.3622 298.159 14.3622C299.347 14.3622 300.384 14.679 301.285 15.2989C302.036 15.8224 302.596 16.5525 302.992 17.4892C303.443 18.6187 303.675 20.1753 303.675 22.1727V30.0108C303.675 30.6995 303.675 31.4847 303.647 32.3801C303.62 33.0826 303.511 33.5785 303.361 33.854C303.033 34.3362 302.541 34.6254 301.872 34.7356C301.463 34.8045 301.258 34.956 301.258 35.204C301.258 35.4933 301.463 35.6448 301.872 35.6448H310.638C310.965 35.6448 311.129 35.4933 311.129 35.1764C311.129 34.9285 310.911 34.7907 310.501 34.7632L310.474 34.777Z" fill="white"/>
<path d="M107.819 65.1096L102.494 65.082C102.371 65.2198 102.357 65.2473 102.234 65.3851L106.112 73.4986H111.805C111.887 73.3609 111.914 73.3196 112.01 73.1818L107.832 65.1096H107.819Z" fill="white"/>
<path d="M102.795 54.2969H95.709V73.4719H101.006V55.6193C103.355 55.9499 104.57 57.0519 105.048 58.9391C105.389 60.3028 105.239 62.314 104.324 63.5675L104.679 64.0497C108.379 64.0221 110.441 61.9696 110.304 59.1457C110.154 55.8535 107.178 54.3106 102.809 54.3106L102.795 54.2969Z" fill="white"/>
<path d="M157.516 73.4858V59.628H161.898L161.967 61.5428C161.967 61.5428 163.264 59.6969 164.875 59.3939C166.663 59.0633 168.315 59.9311 168.575 61.5428C168.575 61.5428 169.776 59.6556 171.742 59.3939C173.517 59.1597 175.278 60.1102 175.278 62.5208V73.4996H170.786V63.4851C170.786 62.755 170.432 62.2178 169.858 62.2315C169.162 62.2315 168.643 63.1958 168.643 63.1958V73.5134H164.137V63.3473C164.137 62.6172 163.714 62.2315 163.154 62.2453C162.499 62.2453 162.008 63.058 162.008 63.058V73.5134H157.516V73.4858Z" fill="white"/>
<path d="M124.857 73.4858V59.628H129.24L129.308 61.5428C129.308 61.5428 130.605 59.6969 132.216 59.3939C134.005 59.0633 135.657 59.9311 135.916 61.5428C135.916 61.5428 137.118 59.6556 139.084 59.3939C140.859 59.1597 142.62 60.1102 142.62 62.5208V73.4996H138.128V63.4851C138.128 62.755 137.773 62.2178 137.2 62.2315C136.504 62.2315 135.985 63.1958 135.985 63.1958V73.5134H131.479V63.3473C131.479 62.6172 131.056 62.2315 130.496 62.2453C129.841 62.2453 129.349 63.058 129.349 63.058V73.5134H124.857V73.4858Z" fill="white"/>
<path d="M210.012 62.0792C209.903 62.3685 209.603 63.3189 209.603 63.3189H209.452V59.6272H204.715V73.485H209.616V66.7076C209.616 65.3577 210.108 64.4898 211.337 64.0903C212.183 63.8148 214.613 63.925 214.613 63.925V59.2966C212.265 59.2553 210.75 59.9716 209.999 62.0792H210.012Z" fill="white"/>
<path d="M185.519 59.3113C184.141 59.2562 183.144 59.9312 182.748 60.5786V61.1434C185.383 61.4465 185.479 65.3862 185.479 66.557C185.479 68.2514 185.246 70.111 184.386 71.3232C183.553 72.5079 182.434 72.563 181.724 72.439V54.7655C181.574 54.6553 181.519 54.614 181.383 54.5176L176.945 56.0191V73.2104C178.529 73.6099 181.273 74.2022 183.826 73.913C187.854 73.4584 190.23 70.5932 190.23 66.1162C190.23 62.5898 188.769 59.4766 185.519 59.3389V59.3113Z" fill="white"/>
<path d="M117.527 60.7433C118.687 60.7846 119.247 62.1759 119.069 63.636C118.933 64.7381 118.1 65.7161 117.281 66.0605V66.7905H123.643C123.971 61.8315 120.762 59.2969 117.69 59.2969C113.786 59.2969 110.959 62.0381 111.178 66.8594C111.355 70.7991 113.813 73.3475 116.899 73.8434C119.411 74.2429 122.182 73.2924 123.466 70.3859L123.111 69.89C121.841 70.5925 119.807 70.7027 118.523 70.1655C116.953 69.5043 115.929 67.9063 115.642 66.2671C115.11 63.2228 115.888 60.7157 117.54 60.757L117.527 60.7433Z" fill="white"/>
<path d="M150.171 60.7433C151.332 60.7846 151.891 62.1759 151.714 63.636C151.577 64.7381 150.745 65.7161 149.925 66.0605V66.7905H156.288C156.615 61.8315 153.407 59.2969 150.335 59.2969C146.43 59.2969 143.604 62.0381 143.822 66.8594C144 70.7991 146.457 73.3475 149.543 73.8434C152.055 74.2429 154.827 73.2924 156.11 70.3859L155.755 69.89C154.486 70.5925 152.451 70.7027 151.168 70.1655C149.598 69.5043 148.574 67.9063 148.287 66.2671C147.755 63.2228 148.533 60.7157 150.185 60.757L150.171 60.7433Z" fill="white"/>
<path d="M197.493 60.7433C198.654 60.7846 199.214 62.1759 199.036 63.636C198.9 64.7381 198.067 65.7161 197.248 66.0605V66.7905H203.61C203.938 61.8315 200.729 59.2969 197.657 59.2969C193.752 59.2969 190.926 62.0381 191.145 66.8594C191.322 70.7991 193.78 73.3475 196.865 73.8434C199.378 74.2429 202.149 73.2924 203.433 70.3859L203.078 69.89C201.808 70.5925 199.773 70.7027 198.49 70.1655C196.92 69.5043 195.896 67.9063 195.609 66.2671C195.077 63.2228 195.855 60.7157 197.507 60.757L197.493 60.7433Z" fill="white"/>
<path d="M3.89062 62.0517H5.25594V63.4706H5.41978C5.72015 62.9884 6.26628 61.9277 7.98657 61.9277C10.2257 61.9277 11.7685 63.7047 11.7685 66.5562C11.7685 69.4076 10.2257 71.2122 8.00023 71.1984C6.30724 71.1984 5.72015 70.1377 5.40613 69.6418H5.2969V74.3805H3.89062V62.0379V62.0517ZM7.80908 69.9311C9.50207 69.9311 10.3622 68.4296 10.3622 66.5286C10.3622 64.6277 9.51573 63.2088 7.80908 63.2088C6.10244 63.2088 5.28325 64.545 5.26959 66.5286C5.26959 68.5398 6.1707 69.9311 7.80908 69.9311Z" fill="white"/>
<path d="M12.8477 66.5836C12.8477 63.7873 14.486 61.9414 16.9026 61.9414C19.3193 61.9414 20.944 63.7873 20.9303 66.5836C20.9303 69.3662 19.3193 71.2121 16.9026 71.2121C14.4724 71.2121 12.8477 69.3662 12.8477 66.5836ZM16.9026 69.9585C18.6912 69.9585 19.5241 68.3744 19.5241 66.5836C19.5241 64.7929 18.6912 63.1949 16.9026 63.1949C15.1141 63.1949 14.2539 64.7929 14.2539 66.5836C14.2539 68.3744 15.1004 69.9585 16.9026 69.9585Z" fill="white"/>
<path d="M21.4629 62.0527H22.9511L24.8489 68.8852H24.9308L26.8149 62.0527H28.3168L30.1736 68.8577H30.2692L32.167 62.0527H33.6415L30.9382 71.0203H29.5455L27.6068 64.1741H27.4703L25.5588 71.0203H24.1525L21.4492 62.0527H21.4629Z" fill="white"/>
<path d="M34.1601 66.6112C34.1601 63.8561 35.7712 61.9414 38.1878 61.9414C40.0583 61.9414 42.0244 63.0985 42.0244 66.4183V67.0107H35.5664C35.6347 68.9116 36.7406 69.9448 38.3107 69.9448C39.3756 69.9448 40.0446 69.4764 40.3723 68.9254H41.8742C41.4509 70.2891 40.1402 71.2121 38.3107 71.1983C35.7439 71.1983 34.1465 69.3524 34.1465 66.6112H34.1601ZM40.5908 65.7984C40.5908 64.297 39.6487 63.1812 38.1878 63.1812C36.645 63.1812 35.6756 64.4072 35.5801 65.7984H40.6044H40.5908Z" fill="white"/>
<path d="M43.5254 62.0518H44.8907V63.4293H44.9863C45.3003 62.5202 46.2287 61.9141 47.28 61.9141C47.4985 61.9141 47.8534 61.9278 48.0173 61.9416V63.3742C47.9081 63.3467 47.5394 63.2778 47.1708 63.2778C45.8874 63.2778 44.9453 64.1732 44.9453 65.3716V71.0194H43.539V62.0518H43.5254Z" fill="white"/>
<path d="M48.3594 66.6112C48.3594 63.8561 49.9704 61.9414 52.387 61.9414C54.2575 61.9414 56.2236 63.0985 56.2236 66.4183V67.0107H49.7656C49.8339 68.9116 50.9398 69.9448 52.5099 69.9448C53.5749 69.9448 54.2439 69.4764 54.5715 68.9254H56.0734C55.6501 70.2891 54.3394 71.2121 52.5099 71.1983C49.9431 71.1983 48.3457 69.3524 48.3457 66.6112H48.3594ZM54.79 65.7984C54.79 64.297 53.8479 63.1812 52.387 63.1812C50.8442 63.1812 49.8749 64.4072 49.7793 65.7984H54.8036H54.79Z" fill="white"/>
<path d="M57.289 66.5698C57.289 63.7322 58.8591 61.9414 61.0846 61.9414C62.8186 61.9414 63.351 63.0021 63.6514 63.4842H63.747V59.0762H65.1669V71.033H63.7879V69.6555H63.6377C63.3237 70.1514 62.7503 71.2121 61.0436 71.2121C58.8318 71.2121 57.2617 69.4213 57.2617 66.5698H57.289ZM61.2621 69.9448C62.8868 69.9448 63.7879 68.5535 63.8016 66.5423C63.8016 64.5449 62.9141 63.2225 61.2621 63.2225C59.6101 63.2225 58.709 64.6689 58.709 66.5423C58.709 68.4157 59.5828 69.9448 61.2621 69.9448Z" fill="white"/>
<path d="M71.3652 59.0625H72.7715V63.4705H72.8807C73.1811 62.9884 73.7135 61.9277 75.4475 61.9277C77.673 61.9277 79.2431 63.7047 79.2431 66.5562C79.2431 69.4076 77.673 71.2122 75.4611 71.1984C73.7545 71.1984 73.1811 70.1377 72.867 69.6418H72.7032V71.0193H71.3379V59.0625H71.3652ZM75.2563 69.9311C76.9493 69.9311 77.8231 68.4296 77.8231 66.5286C77.8231 64.6552 76.9766 63.2088 75.2563 63.2088C73.536 63.2088 72.7305 64.545 72.7305 66.5286C72.7305 68.5122 73.6316 69.9311 75.2563 69.9311Z" fill="white"/>
<path d="M80.5536 74.3676V73.1003C80.7037 73.1141 81.0178 73.1278 81.2362 73.1278C81.8097 73.1278 82.2875 73.0865 82.7654 71.7779L83.0248 71.1029L79.7344 62.0664H81.2772L83.6938 69.1881H83.7894L86.206 62.0664H87.7488L83.9805 72.3289C83.4617 73.7477 82.5879 74.3951 81.3318 74.4089C81.0314 74.4089 80.7311 74.3951 80.5399 74.3814L80.5536 74.3676Z" fill="white"/>
</g>
<defs>
<clipPath id="clip0_33_7441">
<rect width="399" height="74" fill="white" transform="translate(0 0.394531)"/>
</clipPath>
</defs>
</svg>
