<svg width="77" height="82" viewBox="0 0 77 82" fill="none" xmlns="http://www.w3.org/2000/svg">
<g clip-path="url(#clip0_835_14236)">
<path d="M15.3734 40.3286H23.5229C24.4949 40.3286 25.2986 39.5258 25.2986 38.5549C25.2986 37.5841 24.4949 36.7812 23.5229 36.7812H15.3734C14.4014 36.7812 13.5977 37.5841 13.5977 38.5549C13.5977 39.5258 14.4014 40.3286 15.3734 40.3286Z" fill="#C1C1C1"/>
<path d="M34.0843 40.3286H42.2338C43.2058 40.3286 44.0095 39.5258 44.0095 38.5736C44.0469 38.1442 43.9161 37.7148 43.5983 37.3787C43.2619 37.0053 42.7385 36.7812 42.2338 36.7812H34.0843C33.1123 36.7812 32.3086 37.5841 32.3086 38.5549C32.3086 39.5258 33.1123 40.3286 34.0843 40.3286Z" fill="#C1C1C1"/>
<path d="M52.889 40.3286H61.0385C62.0105 40.3286 62.8142 39.5258 62.8142 38.5549C62.8142 37.5841 62.0105 36.7812 61.0385 36.7812H52.889C51.917 36.7812 51.1133 37.5841 51.1133 38.5549C51.1133 39.5258 51.917 40.3286 52.889 40.3286Z" fill="#C1C1C1"/>
<path d="M15.3734 54.2192H23.5229C24.4949 54.2192 25.2986 53.4164 25.2986 52.4456C25.2986 51.4747 24.4949 50.6719 23.5229 50.6719H15.3734C14.4014 50.6719 13.5977 51.4747 13.5977 52.4456C13.5977 53.4164 14.4014 54.2192 15.3734 54.2192Z" fill="#C1C1C1"/>
<path d="M34.0843 54.2192H42.2338C43.2058 54.2192 44.0095 53.4164 44.0095 52.4456C44.0095 51.4747 43.2058 50.6719 42.2338 50.6719H34.0843C33.1123 50.6719 32.3086 51.4747 32.3086 52.4456C32.3086 53.4164 33.1123 54.2192 34.0843 54.2192Z" fill="#C1C1C1"/>
<path d="M52.889 54.2192H61.0385C62.0105 54.2192 62.8142 53.4164 62.8142 52.4456C62.8142 51.4747 62.0105 50.6719 61.0385 50.6719H52.889C51.917 50.6719 51.1133 51.4747 51.1133 52.4456C51.1133 53.4164 51.917 54.2192 52.889 54.2192Z" fill="#C1C1C1"/>
<path d="M15.3734 68.2036H23.5229C24.4949 68.2036 25.2986 67.4008 25.2986 66.4299C25.2986 65.4591 24.4949 64.6562 23.5229 64.6562H15.3734C14.4014 64.6562 13.5977 65.4591 13.5977 66.4299C13.5977 67.4008 14.4014 68.2036 15.3734 68.2036Z" fill="#C1C1C1"/>
<path d="M34.0843 68.2036H42.2338C43.2058 68.2036 44.0095 67.4008 44.0095 66.4299C44.0095 65.4591 43.2058 64.6562 42.2338 64.6562H34.0843C33.1123 64.6562 32.3086 65.4591 32.3086 66.4299C32.3086 67.4008 33.1123 68.2036 34.0843 68.2036Z" fill="#C1C1C1"/>
<path d="M52.889 68.2036H61.0385C62.0105 68.2036 62.8142 67.4008 62.8142 66.4299C62.8142 65.4591 62.0105 64.6562 61.0385 64.6562H52.889C51.917 64.6562 51.1133 65.4591 51.1133 66.4299C51.1133 67.4008 51.917 68.2036 52.889 68.2036Z" fill="#C1C1C1"/>
<path d="M67.9903 7.63616H62.9061V5.9745C62.9061 2.66985 60.2146 0 56.9248 0C53.6351 0 50.9435 2.68852 50.9435 5.9745V7.71084H44.1211V5.9745C44.1211 2.66985 41.4295 0 38.1398 0C34.8501 0 32.1585 2.68852 32.1585 5.9745V7.71084H25.336V5.9745C25.336 2.66985 22.6445 0 19.3547 0C16.065 0 13.3734 2.68852 13.3734 5.9745V7.71084H8.28932C3.76595 7.71084 0.121094 11.3515 0.121094 15.8324V73.8784C0.121094 78.3593 3.76595 82 8.25194 82H67.9903C72.4762 82 76.1211 78.3593 76.1211 73.8784V15.7577C76.1211 11.2769 72.4762 7.63616 67.9903 7.63616ZM3.85941 26.6985H72.4762V73.8037C72.5136 74.98 72.0837 76.1002 71.28 76.9404C70.4575 77.7992 69.28 78.2846 68.0837 78.2846H8.34539C5.91549 78.2846 3.85941 76.2309 3.85941 73.8037V26.6985ZM40.551 13.0879C40.551 14.3761 39.5043 15.4217 38.2146 15.4217C36.9248 15.4217 35.8781 14.3201 35.8781 13.0879V5.9745C35.8781 4.68625 36.9248 3.64071 38.2146 3.64071C39.5043 3.64071 40.551 4.74226 40.551 5.9745V13.0879ZM19.4108 19.0624C22.7192 19.0624 25.3921 16.3739 25.3921 13.0879V11.3515H32.2146V13.0879C32.2146 16.3925 34.9061 19.0624 38.1959 19.0624C41.4856 19.0624 44.1772 16.3739 44.1772 13.0879V11.3515H50.9996V13.0879C50.9996 16.3925 53.6912 19.0624 56.9809 19.0624C60.2706 19.0624 62.9622 16.3739 62.9622 13.0879V11.3515H68.0463C70.4762 11.3515 72.5323 13.4053 72.5323 15.8324V23.1512H3.85941V15.8324C3.85941 13.4053 5.91549 11.3515 8.34539 11.3515H13.4295V13.0879C13.4295 16.3925 16.1211 19.0624 19.4108 19.0624ZM54.5697 13.0879V5.9745C54.5697 4.68625 55.6164 3.64071 56.9061 3.64071C58.1959 3.64071 59.2426 4.68625 59.2426 5.9745V13.0879C59.2426 14.3761 58.1959 15.4217 56.9061 15.4217C55.6164 15.4217 54.5697 14.3761 54.5697 13.0879ZM21.7473 13.0879C21.7473 14.3761 20.7005 15.4217 19.4108 15.4217C18.1211 15.4217 17.0744 14.3761 17.0744 13.0879V5.9745C17.0744 4.68625 18.1211 3.64071 19.4108 3.64071C20.7005 3.64071 21.7473 4.68625 21.7473 5.9745V13.0879Z" fill="#C1C1C1"/>
</g>
<defs>
<clipPath id="clip0_835_14236">
<rect width="76" height="82" fill="white" transform="translate(0.121094)"/>
</clipPath>
</defs>
</svg>
