<svg width="224" height="140" viewBox="0 0 224 140" fill="none" xmlns="http://www.w3.org/2000/svg">
<g clip-path="url(#clip0_139_546)">
<path d="M213.202 0.941406H106.31C100.759 0.941406 96.2627 5.43387 96.2627 10.9804V83.2028C96.2627 88.7494 100.759 93.2418 106.31 93.2418H187.523L208.17 114.056L207.282 93.2418H213.202C218.752 93.2418 223.249 88.7494 223.249 83.2028V10.9804C223.249 5.43387 218.752 0.941406 213.202 0.941406Z" stroke="#FF85A4" stroke-width="3" stroke-miterlimit="10"/>
<path d="M69.2364 44.5273C31.3592 44.5273 0.657227 62.4554 0.657227 84.5663C0.657227 98.9305 13.6262 111.521 33.0923 118.59L30.5471 138.074L46.3293 122.305C53.4961 123.785 61.1988 124.597 69.2364 124.597C107.114 124.597 137.816 106.669 137.816 84.5663C137.816 62.4637 107.114 44.5357 69.2364 44.5357V44.5273Z" stroke="white" stroke-width="3" stroke-miterlimit="10"/>
</g>
<defs>
<clipPath id="clip0_139_546">
<rect width="223.429" height="138.706" fill="white" transform="translate(0.238281 0.523438)"/>
</clipPath>
</defs>
</svg>
