<svg width="71" height="223" viewBox="0 0 71 223" fill="none" xmlns="http://www.w3.org/2000/svg">
<g clip-path="url(#clip0_139_553)">
<path d="M51.118 4.60938H4.93487C2.95964 4.60938 1.3584 6.23545 1.3584 8.24132V55.1407C1.3584 57.1466 2.95964 58.7727 4.93487 58.7727H51.118C53.0932 58.7727 54.6945 57.1466 54.6945 55.1407V8.24132C54.6945 6.23545 53.0932 4.60938 51.118 4.60938Z" stroke="white" stroke-width="3" stroke-miterlimit="10"/>
<path d="M11.7305 28.4747L27.756 44.7488L70.2712 1.57422" stroke="#FF85A4" stroke-width="3" stroke-miterlimit="10"/>
<path d="M51.118 86.1758H4.93487C2.95964 86.1758 1.3584 87.8019 1.3584 89.8077V136.707C1.3584 138.713 2.95964 140.339 4.93487 140.339H51.118C53.0932 140.339 54.6945 138.713 54.6945 136.707V89.8077C54.6945 87.8019 53.0932 86.1758 51.118 86.1758Z" stroke="white" stroke-width="3" stroke-miterlimit="10"/>
<path d="M11.7305 110.041L27.756 126.315L70.2712 83.1406" stroke="#FF85A4" stroke-width="3" stroke-miterlimit="10"/>
<path d="M51.118 167.742H4.93487C2.95964 167.742 1.3584 169.368 1.3584 171.374V218.274C1.3584 220.279 2.95964 221.905 4.93487 221.905H51.118C53.0932 221.905 54.6945 220.279 54.6945 218.274V171.374C54.6945 169.368 53.0932 167.742 51.118 167.742Z" stroke="white" stroke-width="3" stroke-miterlimit="10"/>
</g>
<defs>
<clipPath id="clip0_139_553">
<rect width="70.4775" height="221.929" fill="white" transform="translate(0.443359 0.914062)"/>
</clipPath>
</defs>
</svg>
