<svg width="55" height="39" viewBox="0 0 55 39" fill="none" xmlns="http://www.w3.org/2000/svg">
<g clip-path="url(#clip0_350_2815)">
<path d="M51.0973 0H18.7987C16.6459 0 14.8959 1.7918 14.8959 3.996V26.358C14.8959 28.5622 16.6459 30.354 18.7987 30.354H42.9723L48.9584 36.54C49.1181 36.7035 49.3473 36.803 49.5764 36.803C49.6945 36.803 49.8125 36.7746 49.9236 36.7319C50.257 36.5826 50.4584 36.2484 50.4445 35.8787L50.2153 30.3611H51.0973C53.25 30.3611 55 28.5693 55 26.3651V3.996C55 1.7918 53.25 0 51.0973 0ZM51.0973 28.5764H49.3056C49.0695 28.5764 48.8403 28.6759 48.6806 28.8537C48.5209 29.0243 48.4306 29.2661 48.4375 29.5078L48.6111 33.6603L43.9514 28.8466C43.7917 28.683 43.5625 28.5835 43.3334 28.5835H18.7987C17.6042 28.5835 16.632 27.5881 16.632 26.3651V3.996C16.632 2.77303 17.6042 1.77758 18.7987 1.77758H51.0973C52.2917 1.77758 53.2639 2.77303 53.2639 3.996V26.358C53.2639 27.5809 52.2917 28.5764 51.0973 28.5764Z" fill="#581123"/>
<path d="M20.7222 10.5375C9.27778 10.5375 0 16.0906 0 22.9379C0 27.3889 3.91667 31.2854 9.79861 33.4683L9.15278 38.5593C9.11111 38.865 9.47917 39.0499 9.6875 38.8295L13.7986 34.6201C15.9653 35.0823 18.2917 35.3312 20.7222 35.3312C32.1667 35.3312 41.4444 29.7851 41.4444 22.9379C41.4444 16.0906 32.1667 10.5446 20.7222 10.5446V10.5375Z" fill="#F383A3"/>
</g>
<defs>
<clipPath id="clip0_350_2815">
<rect width="55" height="38.9219" fill="white"/>
</clipPath>
</defs>
</svg>
