<svg width="117" height="69" viewBox="0 0 117 69" fill="none" xmlns="http://www.w3.org/2000/svg">
<g clip-path="url(#clip0_835_14275)">
<path d="M115.909 33.6179L102.869 2.51348C102.454 1.50043 101.663 0.731262 100.645 0.299778C99.6278 -0.112947 98.5161 -0.112947 97.4985 0.299778L85.646 5.21495C83.6486 6.05916 82.6499 8.31038 83.3471 10.3365C76.5635 9.39847 69.2146 8.51674 61.4699 7.71006C60.2828 7.55997 59.0957 7.74758 58.0027 8.23534C57.6824 8.38542 57.3621 8.51674 57.0417 8.66683C49.8435 7.48493 41.8539 8.27286 33.2613 11.0494C33.5252 9.22963 32.5265 7.44741 30.774 6.71576L18.9404 1.81935C16.8676 0.956384 14.4556 1.93192 13.57 4.0143L0.549197 35.1187C0.134643 36.1317 0.134643 37.2386 0.549197 38.2329C0.963752 39.2272 1.75518 40.0526 2.77272 40.4466L14.6252 45.3618C15.134 45.5681 15.6616 45.6807 16.1892 45.6807C17.5271 45.6807 18.7708 45.0428 19.5433 43.9548L24.5745 46.8251L23.7643 48.2133C22.1814 50.9523 23.1236 54.4605 25.8747 56.0363C27.0053 56.6929 28.3432 56.9368 29.6246 56.7304C29.6811 58.4001 30.3406 59.976 31.5089 61.1766C32.7526 62.4523 34.4296 63.1652 36.2009 63.184H36.2951C36.8793 63.184 37.4823 63.1089 38.0664 62.9588C38.6506 62.79 39.2159 62.5649 39.7435 62.2459C40.6291 64.197 42.5511 65.4539 44.737 65.4539C45.2269 65.4539 45.7168 65.3977 46.1879 65.2663C46.5083 65.1725 46.8286 65.06 47.1301 64.9099C47.9404 66.4107 49.5232 67.3675 51.2191 67.3675C52.7454 67.3675 54.1587 66.6358 55.0255 65.4164L59.661 68.0804C60.6597 68.6619 61.8091 68.9809 62.9774 68.9809C63.5615 68.9809 64.1457 68.9058 64.7298 68.7557C66.4446 68.3055 67.9144 67.1799 68.8 65.6415C69.1769 65.0037 69.4218 64.2908 69.5726 63.5779L69.9306 63.7843C71.5323 64.7035 73.5109 64.9474 75.2821 64.4784C77.0723 64.0094 78.6363 62.8088 79.5596 61.2141C79.8611 60.6889 80.106 60.126 80.2568 59.5257C80.5583 59.5632 80.8598 59.582 81.1613 59.582C83.7617 59.582 86.2113 58.175 87.5303 55.9425C88.1145 54.9482 88.4348 53.8039 88.5102 52.6595C90.4134 52.3593 92.0904 51.3838 93.2587 49.8642C94.4836 48.2884 95.0112 46.3373 94.7474 44.3862C94.672 43.8047 94.5213 43.2231 94.314 42.6791C95.1054 42.4539 95.878 42.2101 96.6317 41.9286C97.0651 42.8104 97.8188 43.5045 98.7422 43.8797C99.7409 44.2924 100.89 44.2924 101.889 43.8797L113.742 38.9645C114.74 38.5518 115.55 37.7451 115.946 36.7508C116.361 35.7378 116.361 34.6309 115.946 33.6179H115.909ZM87.9638 7.71006L98.6856 3.24513H98.7422C99.2133 3.03877 99.7409 3.24513 99.9482 3.73289L112.988 34.8185C113.082 35.0437 113.082 35.3063 112.988 35.5314C112.894 35.7565 112.724 35.9441 112.479 36.0192L100.627 40.9531C100.4 41.0469 100.155 41.0469 99.9293 40.9531C99.7032 40.8593 99.5148 40.6905 99.4394 40.4654L86.4186 9.41723V9.36095L86.3809 9.32343C86.3055 9.09831 86.3055 8.87319 86.3809 8.66683C86.4751 8.4417 86.6636 8.2541 86.8897 8.1603L87.9826 7.71006H87.9638ZM72.2672 43.1856C72.0034 43.5233 71.9092 43.936 71.9657 44.3675C72.0222 44.7802 72.2484 45.1554 72.5875 45.3993C72.8325 45.5869 73.0963 45.7557 73.3601 45.9058L83.5732 51.7778C84.1197 52.0967 84.7038 52.3406 85.3068 52.5094C85.2315 54.2916 83.9878 55.83 82.2542 56.299C81.199 56.5804 80.0495 56.4303 79.0885 55.8862L69.2334 50.2207C68.4797 49.7892 67.4998 50.0518 67.0664 50.8022C66.633 51.5526 66.8968 52.5282 67.6506 52.9596L77.2418 58.4751C77.1665 58.8879 77.0157 59.2818 76.8084 59.657C75.7344 61.4955 73.3601 62.1146 71.5135 61.0641L62.7136 56.0176C62.3556 55.8112 61.9222 55.7549 61.5076 55.8675C61.0931 55.98 60.7539 56.2427 60.5466 56.5991C60.1132 57.3495 60.377 58.3251 61.1307 58.7565L66.4634 61.8145C66.7272 63.5592 65.6343 65.2663 63.9007 65.7166C63.0151 65.9605 62.0352 65.8291 61.225 65.3601L60.8669 65.1538L56.6083 62.715L58.3042 59.7884C59.5856 57.5747 58.813 54.7231 56.5895 53.4474C55.8357 53.0159 54.9878 52.7908 54.1022 52.8283C54.0645 52.4906 54.0079 52.1717 53.9326 51.8528C53.2354 49.2451 50.7669 47.5567 48.11 47.8194C48.1476 44.2737 45.3777 41.272 41.7786 41.0657C40.5349 40.9906 39.3289 41.272 38.2549 41.8349C37.1431 39.0208 33.9962 37.52 31.0567 38.4955C29.7188 38.9458 28.607 39.8463 27.9098 41.0657L26.1385 44.1236L20.8435 41.0844L31.8104 14.9327C38.1983 12.4564 44.8877 11.2745 51.7279 11.3871C47.8085 13.5445 44.3036 16.321 41.3263 19.6791C38.1795 23.4311 37.0866 27.6146 35.9183 32.0233L35.8429 32.3047C35.711 32.83 35.5791 33.3552 35.4283 33.8805C35.3153 34.2933 35.3718 34.7247 35.5979 35.0812C35.8241 35.4376 36.1632 35.7003 36.5589 35.8128H36.6155C45.0385 37.7076 48.9956 36.582 52.312 31.3479L52.3874 31.2353C53.4049 29.622 54.0456 28.684 55.2139 28.4213C58.0216 27.8022 60.8858 27.7835 63.7123 28.3838C64.6168 28.5526 65.4082 29.0592 65.9358 29.8096C72.5875 38.927 80.0495 43.542 88.0956 43.542C89.0944 43.542 90.1119 43.467 91.0918 43.3357C91.6005 44.2924 91.7324 45.3993 91.4309 46.4499C91.1294 47.5567 90.4134 48.476 89.4147 49.0388C88.0957 49.7892 86.4374 49.7892 85.1184 49.0388L74.9053 43.1668C74.7545 43.073 74.6038 42.9792 74.453 42.8667C73.7558 42.3414 72.7571 42.4915 72.2295 43.1856H72.2672ZM50.4088 64.0094H50.3712C49.7116 63.5967 49.4855 62.715 49.8812 62.0208L52.9527 56.7117C53.3673 56.0176 54.2717 55.7737 54.9689 56.1676C55.685 56.5804 55.9111 57.4809 55.5154 58.1937L52.4439 63.4841C52.0294 64.1782 51.1437 64.4221 50.4277 64.0282L50.39 63.9906L50.4088 64.0094ZM26.4777 49.8267L30.6421 42.6415C30.9813 42.0412 31.5466 41.6285 32.2061 41.4409C32.8656 41.2533 33.5628 41.3471 34.1658 41.7035C34.7688 42.0412 35.1834 42.604 35.3718 43.2606C35.5414 43.9172 35.466 44.6114 35.108 45.2117L30.9436 52.3968C30.2652 53.5787 28.7578 54.0102 27.5518 53.4099L27.4199 53.3349C26.1951 52.622 25.7617 51.0461 26.4777 49.8267ZM33.2237 54.7981L33.6194 54.104L38.3302 45.9809C38.8013 45.1742 39.555 44.5926 40.4784 44.3487C41.3829 44.1048 42.3439 44.2362 43.1541 44.7052C44.8312 45.6807 45.4153 47.8194 44.4355 49.5078L39.3289 58.3251C38.8578 59.1318 38.1041 59.7133 37.1808 59.9572L37.0677 59.9947C36.1821 60.2011 35.2588 60.0698 34.4862 59.6195C33.6759 59.1505 33.0918 58.3813 32.8468 57.4809C32.6018 56.5804 32.7337 55.6236 33.2048 54.8169L33.2237 54.7981ZM42.6831 58.8691L46.6025 52.1154C47.0359 51.365 47.8273 50.9523 48.6187 50.9523C49.0144 50.9523 49.4101 51.0461 49.7682 51.2525C50.8611 51.8903 51.238 53.3161 50.6161 54.4229L47.1301 60.445L46.6967 61.1766C46.3952 61.7019 45.8864 62.0959 45.2834 62.2459L45.1704 62.2835C44.6051 62.396 44.0209 62.3022 43.531 62.0208C42.4192 61.383 42.0424 59.9572 42.6642 58.8691H42.6831ZM64.3341 25.2884C62.7324 24.9507 61.1307 24.7818 59.5291 24.7818C57.9274 24.7818 56.1749 24.9694 54.4979 25.3259C52.0105 25.8887 50.7857 27.8022 49.6928 29.5282L49.6174 29.6407C47.5446 32.905 45.4153 34.2745 38.9144 33.0551C38.9332 32.9613 38.9521 32.8862 38.9897 32.7924V32.7362C40.0638 28.684 41.0625 24.8756 43.7383 21.6676C47.0547 17.728 52.2743 14.2011 59.2652 11.1432L59.3783 11.0869C59.9248 10.8618 60.5278 10.7867 61.1119 10.8618C69.5349 11.7435 77.4868 12.7003 84.7415 13.7508L95.3315 39.0021C85.3634 42.6415 76.5823 39.0396 68.4797 27.9523C67.481 26.5453 65.9923 25.6073 64.3153 25.2884H64.3341ZM16.9995 41.9849C16.7922 42.4352 16.2646 42.6603 15.8124 42.4727L3.95985 37.5575C3.48877 37.3699 3.26265 36.8259 3.45108 36.3569L16.5284 5.23371C16.6791 4.89603 16.9995 4.6709 17.3764 4.6709C17.5083 4.6709 17.6025 4.68966 17.7155 4.74594L29.568 9.67988C29.7942 9.77368 29.9826 9.96128 30.058 10.1864C30.1522 10.4115 30.1522 10.6554 30.058 10.8993L17.4706 40.9156V40.6342L17.0183 42.0037L16.9995 41.9849Z" fill="#C1C1C1"/>
</g>
<defs>
<clipPath id="clip0_835_14275">
<rect width="116" height="69" fill="white" transform="translate(0.230469)"/>
</clipPath>
</defs>
</svg>
