<svg width="86" height="82" viewBox="0 0 86 82" fill="none" xmlns="http://www.w3.org/2000/svg">
<g clip-path="url(#clip0_835_14261)">
<path d="M83.2409 82.0009H1.78255C0.81145 82.0009 0.0117188 81.2048 0.0117188 80.2381V75.196C0.0117188 72.3717 2.31571 70.0781 5.15285 70.0781H79.8515C82.6887 70.0781 84.9927 72.3717 84.9927 75.196V80.2381C84.9927 81.2048 84.1929 82.0009 83.2218 82.0009H83.2409ZM3.55339 78.4753H81.47V75.196C81.47 74.3241 80.7465 73.6038 79.8706 73.6038H5.15285C4.27695 73.6038 3.55339 74.3241 3.55339 75.196V78.4753Z" fill="#C1C1C1"/>
<path d="M22.5737 73.6035H7.93099C6.95989 73.6035 6.16016 72.8074 6.16016 71.8406V27.296C6.16016 26.3293 6.95989 25.5332 7.93099 25.5332H22.5737C23.5448 25.5332 24.3445 26.3293 24.3445 27.296V71.8406C24.3445 72.8074 23.5448 73.6035 22.5737 73.6035ZM9.70182 70.0778H20.8029V29.0589H9.70182V70.0778Z" fill="#C1C1C1"/>
<path d="M22.5737 29.0576H7.93099C6.95989 29.0576 6.16016 28.2614 6.16016 27.2947V18.8976C6.16016 17.9309 6.95989 17.1348 7.93099 17.1348H22.5737C23.5448 17.1348 24.3445 17.9309 24.3445 18.8976V27.2947C24.3445 28.2614 23.5448 29.0576 22.5737 29.0576ZM9.70182 25.5319H20.8029V20.6604H9.70182V25.5319Z" fill="#C1C1C1"/>
<path d="M77.0905 73.6025H22.5755C21.6044 73.6025 20.8047 72.8064 20.8047 71.8396V48.6575C20.8047 48.1457 21.0332 47.6718 21.414 47.3306L35.1237 35.3699C35.6378 34.915 36.3804 34.8013 37.0278 35.0856C37.6562 35.3699 38.0751 35.9954 38.0751 36.6968V43.35L48.8524 35.2752C49.3856 34.8771 50.1091 34.8013 50.6994 35.1046C51.3087 35.4078 51.6705 36.0144 51.6705 36.6778V43.3311L62.4478 35.2562C62.981 34.8581 63.7046 34.7823 64.2948 35.0856C64.9041 35.3889 65.2659 35.9954 65.2659 36.6589V43.3121L76.0433 35.2372C76.5764 34.8392 77.3 34.7634 77.8903 35.0666C78.4996 35.3699 78.8614 35.9765 78.8614 36.6399V71.7828C78.8614 72.7495 78.0616 73.5456 77.0905 73.5456V73.6025ZM24.3273 70.0768H75.3197V40.2224L64.5424 48.2973C64.0092 48.6954 63.2856 48.7712 62.6954 48.4679C62.086 48.1647 61.7243 47.5581 61.7243 46.8947V40.2414L50.9469 48.3163C50.4138 48.7144 49.6902 48.7902 49.0999 48.4869C48.4906 48.1836 48.1288 47.577 48.1288 46.9136V40.2604L37.3515 48.3353C36.8184 48.7333 36.0948 48.8091 35.5045 48.5058C34.8952 48.2026 34.5334 47.596 34.5334 46.9326V40.6395L24.3654 49.5105V70.1337L24.3273 70.0768Z" fill="#C1C1C1"/>
<path d="M15.2435 13.951C14.2724 13.951 13.4727 13.1549 13.4727 12.1882V5.11789C13.4727 2.29357 15.7766 0 18.6138 0H47.804C48.7751 0 49.5748 0.796117 49.5748 1.76283C49.5748 2.72954 48.7751 3.52566 47.804 3.52566H18.6138C17.7379 3.52566 17.0143 4.24595 17.0143 5.11789V12.1882C17.0143 13.1549 16.2146 13.951 15.2435 13.951Z" fill="#C1C1C1"/>
<path d="M47.1784 52.998H43.6367V56.5237H47.1784V52.998Z" fill="#C1C1C1"/>
<path d="M38.3229 52.998H34.7812V56.5237H38.3229V52.998Z" fill="#C1C1C1"/>
<path d="M56.0299 52.998H52.4883V56.5237H56.0299V52.998Z" fill="#C1C1C1"/>
<path d="M64.8854 52.998H61.3438V56.5237H64.8854V52.998Z" fill="#C1C1C1"/>
<path d="M47.1784 61.8125H43.6367V65.3382H47.1784V61.8125Z" fill="#C1C1C1"/>
<path d="M38.3229 61.8125H34.7812V65.3382H38.3229V61.8125Z" fill="#C1C1C1"/>
<path d="M56.0299 61.8125H52.4883V65.3382H56.0299V61.8125Z" fill="#C1C1C1"/>
<path d="M64.8854 61.8125H61.3438V65.3382H64.8854V61.8125Z" fill="#C1C1C1"/>
</g>
<defs>
<clipPath id="clip0_835_14261">
<rect width="85" height="82" fill="white" transform="translate(0.0117188)"/>
</clipPath>
</defs>
</svg>
