<svg width="67" height="65" viewBox="0 0 67 65" fill="none" xmlns="http://www.w3.org/2000/svg">
<path d="M17.2711 9.35048C17.2711 12.8784 14.5735 15.7366 10.3598 15.7366C6.14597 15.7366 3.61944 12.8784 3.70319 9.35048C3.61944 5.6538 6.31522 2.88086 10.4453 2.88086C14.5753 2.88086 17.1873 5.6538 17.2711 9.35048ZM4.03995 61.8625V20.778H16.8488V61.8642H4.03995V61.8625Z" fill="#292929"/>
<path d="M24.5145 33.8835C24.5145 28.7586 24.3452 24.3887 24.1777 20.7773H35.3011L35.8909 26.4066H36.1421C37.8276 23.8024 42.0414 19.8535 48.8672 19.8535C57.2948 19.8535 63.6146 25.3994 63.6146 37.4967V61.8635H50.8058V39.0936C50.8058 33.8017 48.951 30.1886 44.3167 30.1886C40.7764 30.1886 38.6704 32.6258 37.8276 34.9777C37.4909 35.7345 37.3216 36.9939 37.3216 38.1717V61.8652H24.5127V33.8852L24.5145 33.8835Z" fill="#292929"/>
</svg>
