<svg width="109" height="71" viewBox="0 0 109 71" fill="none" xmlns="http://www.w3.org/2000/svg">
<g clip-path="url(#clip0_835_14284)">
<path d="M89.8291 10.1484C83.0495 10.1484 77.5312 15.5911 77.5312 22.3052C77.5312 29.0193 83.0495 34.4397 89.8291 34.4397C96.6086 34.4397 102.127 28.997 102.127 22.3052C102.127 15.6134 96.6086 10.1484 89.8291 10.1484ZM89.8291 29.7108C85.5946 29.7108 82.2837 26.4541 82.2837 22.2829C82.2837 18.1117 85.5946 14.855 89.8291 14.855C94.0635 14.855 97.3744 18.1117 97.3744 22.2829C97.3744 26.4541 94.0635 29.7108 89.8291 29.7108Z" fill="#C1C1C1"/>
<path d="M18.6337 10.1484C11.8542 10.1484 6.33594 15.5911 6.33594 22.3052C6.33594 29.0193 11.8542 34.4397 18.6337 34.4397C25.4133 34.4397 30.9541 28.997 30.9541 22.3052C30.9541 15.6134 25.4358 10.1484 18.6337 10.1484ZM18.6337 29.7108C14.3993 29.7108 11.0884 26.4541 11.0884 22.2829C11.0884 18.1117 14.3993 14.855 18.6337 14.855C22.8682 14.855 26.2016 18.1117 26.2016 22.2829C26.2016 26.4541 22.8907 29.7108 18.6337 29.7108Z" fill="#C1C1C1"/>
<path d="M107.531 70.3084C107.981 69.8623 108.229 69.2601 108.229 68.6355V55.9434C108.229 45.9503 99.9855 37.8086 89.8274 37.8086C86.8093 37.8086 83.8137 38.5447 81.1784 39.9277C79.9847 40.5076 79.4891 41.9352 80.0522 43.0951C80.3225 43.6528 80.818 44.0766 81.4262 44.2996C82.0343 44.5004 82.665 44.4558 83.2506 44.1881C85.3903 43.0728 87.5525 42.5375 89.8274 42.5375C97.4854 42.5375 103.477 48.4262 103.477 55.9657V66.3157H85.075C85.075 66.3157 85.0299 66.3157 85.0074 66.3157C84.3767 66.3157 83.7911 66.5387 83.3407 66.9625C82.8902 67.4087 82.6199 67.9886 82.5974 68.6132C82.5749 69.2377 82.8226 69.84 83.2506 70.2861C83.6785 70.7323 84.2866 70.9999 84.9173 71.0222H105.797C106.427 71.0222 107.035 70.7769 107.463 70.3307L107.531 70.3084Z" fill="#C1C1C1"/>
<path d="M27.1911 39.8607C24.5333 38.5001 21.6052 37.8086 18.6096 37.8086C8.47406 37.8086 0.230469 45.928 0.230469 55.9434V68.6355C0.230469 69.2601 0.478227 69.8623 0.928696 70.3084C1.37917 70.7546 1.96478 70.9999 2.61796 70.9999H23.4071C24.7135 70.9999 25.8396 69.9962 25.8622 68.7024C25.8622 68.0778 25.6369 67.4756 25.209 67.0295C24.781 66.5833 24.1729 66.3157 23.5423 66.2934H4.98292V55.9434C4.98292 48.4039 10.9742 42.5152 18.6096 42.5152C20.8394 42.5152 22.9792 43.0282 24.9162 44.032C26.0874 44.6565 27.5289 44.2104 28.1596 43.0728C28.7902 41.9129 28.3397 40.4853 27.1685 39.883L27.1911 39.8607Z" fill="#C1C1C1"/>
<path d="M54.2434 0C46.2476 0 39.7383 6.37952 39.7383 14.2089C39.7383 22.0383 46.2476 28.4402 54.2434 28.4402C62.2392 28.4402 68.7485 22.0606 68.7485 14.2089C68.7485 6.35721 62.2392 0 54.2434 0ZM54.2434 23.7336C48.8603 23.7336 44.4907 19.4731 44.4907 14.2089C44.4907 8.94471 48.7702 4.72887 54.2434 4.72887C59.7166 4.72887 63.996 8.90009 63.996 14.2089C63.996 19.5178 59.6265 23.7336 54.2434 23.7336Z" fill="#C1C1C1"/>
<path d="M32.2812 68.6347C32.2812 69.2592 32.529 69.8615 32.9795 70.3076C33.4299 70.7537 34.0156 70.9991 34.6687 70.9991H73.8596C74.4902 70.9991 75.0983 70.7537 75.5488 70.3076C75.9993 69.8615 76.247 69.2592 76.247 68.6347V53.2658C76.247 41.4213 66.4043 31.7852 54.2867 31.7852C42.1691 31.7852 32.3263 41.4213 32.3263 53.2658V68.6347H32.2812ZM37.0337 53.2658C37.0337 43.875 44.5791 36.514 54.2416 36.514C63.9042 36.514 71.4496 43.875 71.4496 53.2658V66.2925H37.0562V53.2658H37.0337Z" fill="#C1C1C1"/>
</g>
<defs>
<clipPath id="clip0_835_14284">
<rect width="108" height="71" fill="white" transform="translate(0.230469)"/>
</clipPath>
</defs>
</svg>
