<svg width="91" height="73" viewBox="0 0 91 73" fill="none" xmlns="http://www.w3.org/2000/svg">
<g clip-path="url(#clip0_835_14291)">
<path d="M18.6525 10.4355C11.8648 10.4355 6.33984 16.0315 6.33984 22.9348C6.33984 29.838 11.8648 35.411 18.6525 35.411C25.4403 35.411 30.9878 29.8151 30.9878 22.9348C30.9878 16.0545 25.4629 10.4355 18.6525 10.4355ZM18.6525 30.549C14.413 30.549 11.0981 27.2005 11.0981 22.9118C11.0981 18.6231 14.413 15.2747 18.6525 15.2747C22.8921 15.2747 26.2296 18.6231 26.2296 22.9118C26.2296 27.2005 22.9146 30.549 18.6525 30.549Z" fill="#C1C1C1"/>
<path d="M27.2237 40.983C24.5627 39.584 21.6311 38.873 18.6319 38.873C8.48404 38.873 0.230469 47.2211 0.230469 57.5187V70.5683C0.230469 71.2105 0.478527 71.8297 0.929542 72.2884C1.38056 72.7471 1.96688 72.9993 2.62085 72.9993H23.4352C24.7431 72.9993 25.8707 71.9673 25.8932 70.6371C25.8932 69.9949 25.6677 69.3757 25.2392 68.917C24.8108 68.4583 24.2019 68.1831 23.5705 68.1602H4.98867V57.5187C4.98867 49.7669 10.9872 43.7122 18.6319 43.7122C20.8644 43.7122 23.0067 44.2397 24.9461 45.2717C26.1187 45.9139 27.562 45.4552 28.1934 44.2855C28.8248 43.093 28.3738 41.6252 27.2012 41.0059L27.2237 40.983Z" fill="#C1C1C1"/>
<path d="M54.3078 0C46.3023 0 39.7852 6.55922 39.7852 14.6092C39.7852 22.6591 46.3023 29.2413 54.3078 29.2413C62.3133 29.2413 68.8305 22.6821 68.8305 14.6092C68.8305 6.53629 62.3133 0 54.3078 0ZM54.3078 24.4021C48.9182 24.4021 44.5434 20.0217 44.5434 14.6092C44.5434 9.19667 48.828 4.86208 54.3078 4.86208C59.7877 4.86208 64.0723 9.1508 64.0723 14.6092C64.0723 20.0675 59.6975 24.4021 54.3078 24.4021Z" fill="#C1C1C1"/>
<path d="M73.97 26.627C64.9948 26.627 57.7109 33.9659 57.7109 42.9791C57.7109 51.9923 65.0174 59.3543 73.97 59.3543C82.9227 59.3543 90.2291 52.0153 90.2291 42.9791C90.2291 33.943 82.9227 26.627 73.97 26.627ZM82.1785 44.9974H75.9319V51.3502C75.9319 52.451 75.0525 53.3684 73.9475 53.3684C72.8425 53.3684 71.963 52.4739 71.963 51.3502V44.9974H65.7165C64.634 44.9974 63.732 44.1029 63.732 42.9791C63.732 41.8554 64.6115 40.9609 65.7165 40.9609H71.963V34.6081C71.963 33.5073 72.8425 32.5899 73.9475 32.5899C75.0525 32.5899 75.9319 33.4843 75.9319 34.6081V40.9609H82.1785C83.2609 40.9609 84.163 41.8554 84.163 42.9791C84.163 44.1029 83.2835 44.9974 82.1785 44.9974Z" fill="#C1C1C1"/>
<path d="M75.9325 51.3273C75.9325 52.4281 75.0531 53.3455 73.9481 53.3455C72.8431 53.3455 71.9636 52.451 71.9636 51.3273V44.9744H68.4683C70.3625 47.7495 71.4901 51.075 71.4901 54.7445V68.1381H37.0551V54.7445C37.0551 45.0891 44.6096 37.5208 54.2838 37.5208C58.343 37.5208 62.0187 38.8739 64.9278 41.1673C65.1758 41.0527 65.4465 40.9839 65.7396 40.9839H71.3773C67.3407 35.9383 61.2069 32.6816 54.2838 32.6816C42.1515 32.6816 32.2969 42.5893 32.2969 54.7674V70.5692C32.2969 71.2113 32.5449 71.8306 32.9959 72.2892C33.447 72.7479 34.0333 73.0002 34.6873 73.0002H73.9255C74.557 73.0002 75.1658 72.7479 75.6168 72.2892C76.0679 71.8306 76.3159 71.2113 76.3159 70.5692V54.7674C76.3159 53.4601 76.1806 52.1758 75.9551 50.9144V51.3502L75.9325 51.3273Z" fill="#C1C1C1"/>
</g>
<defs>
<clipPath id="clip0_835_14291">
<rect width="90" height="73" fill="white" transform="translate(0.230469)"/>
</clipPath>
</defs>
</svg>
