<svg width="80" height="84" viewBox="0 0 80 84" fill="none" xmlns="http://www.w3.org/2000/svg">
<g clip-path="url(#clip0_835_14221)">
<path fill-rule="evenodd" clip-rule="evenodd" d="M18.2816 13.6789H53.6662C54.7492 13.6789 55.6353 12.7897 55.6353 11.7028C55.6353 10.6158 54.7492 9.72656 53.6662 9.72656H18.2816C17.1986 9.72656 16.3125 10.6158 16.3125 11.7028C16.3125 12.7897 17.1986 13.6789 18.2816 13.6789Z" fill="#C1C1C1"/>
<path fill-rule="evenodd" clip-rule="evenodd" d="M77.7087 37.8685V20.1223C77.7087 18.5611 77.0786 17.0394 75.9759 15.9328C74.8732 14.8261 73.357 14.1937 71.8014 14.1937H67.2922V6.70396C67.2922 5.12301 66.6621 3.6211 65.5594 2.51444C64.4567 1.40777 62.9405 0.775391 61.3849 0.775391H11.2321C9.65683 0.775391 8.16032 1.40777 7.05763 2.51444C5.95494 3.6211 5.32483 5.12301 5.32483 6.70396V18.8575C2.7847 19.5294 0.914062 21.8416 0.914062 24.5885V77.8468C0.914062 81.1273 3.55265 83.7754 6.82134 83.7754H74.0068C75.5821 83.7754 77.0786 83.143 78.1813 82.0363C79.284 80.9297 79.9141 79.408 79.9141 77.8468V42.4928C79.9141 40.9118 79.284 39.4099 78.1813 38.3032C78.0237 38.1452 77.8662 38.0068 77.7087 37.8685ZM30.3126 40.5166H74.0068C74.5384 40.5166 75.0307 40.7142 75.4048 41.0897C75.779 41.4652 75.9759 41.9592 75.9759 42.4928V77.8468C75.9759 78.3606 75.7593 78.8744 75.4048 79.2499C75.0307 79.6254 74.5384 79.823 74.0068 79.823H6.82134C5.73834 79.823 4.85225 78.9337 4.85225 77.8468V24.5885C4.85225 23.5016 5.73834 22.6123 6.82134 22.6123H22.4953C23.027 22.6123 23.5192 22.8297 23.8934 23.1854C24.2675 23.5609 24.4644 24.0747 24.4644 24.5885L24.4053 34.5287C24.4053 36.1097 25.0158 37.6313 26.1185 38.738C27.2211 39.8644 28.7373 40.4968 30.3126 40.4968V40.5166ZM63.354 36.5642V6.70396C63.354 6.19015 63.1374 5.67634 62.783 5.30087C62.4088 4.92539 61.9166 4.72777 61.3849 4.72777H11.2321C10.7005 4.72777 10.2082 4.92539 9.83405 5.30087C9.45993 5.67634 9.26301 6.17039 9.26301 6.70396V18.6599H53.6464C54.7294 18.6599 55.6155 19.5492 55.6155 20.6361C55.6155 21.723 54.7294 22.6123 53.6464 22.6123H28.0482C28.2648 23.2447 28.3829 23.9363 28.3829 24.628V27.6121H53.6464C54.7294 27.6121 55.6155 28.5013 55.6155 29.5882C55.6155 30.6752 54.7294 31.5644 53.6464 31.5644H28.3435V34.5682C28.3238 35.1018 28.5207 35.5959 28.8949 35.9713C29.269 36.3468 29.7613 36.5444 30.2929 36.5444H63.3343L63.354 36.5642ZM67.2922 18.1461V36.5642H73.7705V20.1223C73.7705 19.6085 73.5539 19.0947 73.1995 18.7192C72.8253 18.3437 72.3331 18.1461 71.8014 18.1461H67.2922Z" fill="#C1C1C1"/>
<path fill-rule="evenodd" clip-rule="evenodd" d="M10.6605 31.5637H19.482C20.565 31.5637 21.4511 30.6744 21.4511 29.5875C21.4511 28.5006 20.565 27.6113 19.482 27.6113H10.6605C9.5775 27.6113 8.69141 28.5006 8.69141 29.5875C8.69141 30.6744 9.5775 31.5637 10.6605 31.5637Z" fill="#C1C1C1"/>
</g>
<defs>
<clipPath id="clip0_835_14221">
<rect width="79" height="83" fill="white" transform="translate(0.914062 0.775391)"/>
</clipPath>
</defs>
</svg>
