<svg width="250" height="42" viewBox="0 0 250 42" fill="none" xmlns="http://www.w3.org/2000/svg">
<g clip-path="url(#clip0_47_203)">
<path d="M25.4423 23.0488L14.2482 23C14.0015 23.2868 13.9557 23.34 13.709 23.6253L21.8508 40.5385H33.8131C33.9963 40.2532 34.0524 40.1645 34.2356 39.8792L25.4423 23.0488Z" fill="white"/>
<path d="M14.9038 0.486328H0V40.4575H11.1246V3.22538C16.0502 3.91273 18.6149 6.22606 19.6255 10.1491C20.3553 12.9783 20.0288 17.1837 18.1008 19.8104L18.8395 20.8082C26.6164 20.7373 30.9481 16.486 30.6688 10.5734C30.3423 3.69987 24.0827 0.486328 14.9038 0.486328Z" fill="white"/>
<path d="M129.939 40.4898V11.599H139.149L139.288 15.5767C139.288 15.5767 142.029 11.7143 145.409 11.0861C149.173 10.3869 152.632 12.2006 153.201 15.5767C153.201 15.5767 155.74 11.6345 159.861 11.0861C163.599 10.5894 167.298 12.5775 167.298 17.6063V40.4898H157.857V19.6092C157.857 18.0867 157.1 16.9795 155.901 16.9928C154.433 17.0091 153.338 18.9928 153.338 18.9928V40.4898H143.867V19.2988C143.867 17.7763 142.989 16.9692 141.789 16.9914C140.413 17.018 139.378 18.6824 139.378 18.6824V40.4898H129.939Z" fill="white"/>
<path d="M61.2852 40.4898V11.599H70.4951L70.634 15.5767C70.634 15.5767 73.3745 11.7143 76.7548 11.0861C80.5191 10.3869 83.9776 12.2006 84.5464 15.5767C84.5464 15.5767 87.086 11.6345 91.2064 11.0861C94.9442 10.5894 98.6436 12.5775 98.6436 17.6063V40.4898H89.2031V19.6092C89.2031 18.0867 88.4452 16.9795 87.2471 16.9928C85.7786 17.0091 84.6838 18.9928 84.6838 18.9928V40.4898H75.2124V19.2988C75.2124 17.7763 74.3348 16.9692 73.1352 16.9914C71.7583 17.018 70.7241 18.6824 70.7241 18.6824V40.4898H61.2852Z" fill="white"/>
<path d="M240.287 16.7124C240.071 17.3126 239.439 19.2948 239.439 19.2948H239.135V11.5994H229.176V40.4917H239.48V26.3663C239.48 23.546 240.506 21.7515 243.107 20.906C244.886 20.328 250.001 20.566 250.001 20.566V10.9165C245.065 10.819 241.865 12.3311 240.287 16.7124Z" fill="white"/>
<path d="M188.804 10.9362C185.897 10.815 183.815 12.2325 182.982 13.5806V14.7454C188.526 15.3795 188.723 23.5849 188.723 26.0224C188.723 29.5434 188.225 33.4383 186.43 35.969C184.67 38.4508 182.317 38.5513 180.847 38.2867V1.42857C180.54 1.20685 180.424 1.12407 180.117 0.902344L170.795 4.0198V39.8684C174.134 40.6917 179.89 41.9245 185.255 41.3318C193.736 40.3946 198.706 34.408 198.706 25.0734C198.706 17.7077 195.647 11.2229 188.804 10.9362Z" fill="white"/>
<path d="M45.8582 13.9414C48.2855 14.0153 49.4674 16.9243 49.0907 19.9708C48.8055 22.2679 47.0563 24.3004 45.3189 25.0395V26.5472H58.6907C59.3776 16.203 52.6423 10.9362 46.164 10.9141C37.9646 10.9141 32.0226 16.6228 32.4776 26.6787C32.8499 34.8885 38.0251 40.1966 44.5093 41.2372C49.788 42.0828 55.6148 40.0976 58.3169 34.0252L57.5723 32.9861C54.8909 34.4377 50.6286 34.6889 47.9324 33.5552C44.6393 32.1716 42.4765 28.8487 41.8693 25.4164C40.745 19.0691 42.376 13.8349 45.8582 13.9414Z" fill="white"/>
<path d="M114.487 13.9414C116.914 14.0153 118.096 16.9243 117.72 19.9708C117.434 22.2679 115.685 24.3004 113.948 25.0395V26.5472H127.32C128.007 16.203 121.271 10.9362 114.793 10.9141C106.593 10.9141 100.651 16.6228 101.106 26.6787C101.479 34.8885 106.654 40.1966 113.138 41.2372C118.417 42.0828 124.244 40.0976 126.946 34.0252L126.201 32.9861C123.52 34.4377 119.258 34.6889 116.561 33.5552C113.268 32.1716 111.105 28.8487 110.498 25.4164C109.374 19.0691 111.003 13.8349 114.487 13.9414Z" fill="white"/>
<path d="M213.973 13.9414C216.401 14.0153 217.583 16.9243 217.206 19.9708C216.921 22.2679 215.172 24.3004 213.434 25.0395V26.5472H226.806C227.493 16.203 220.758 10.9362 214.279 10.9141C206.08 10.9141 200.138 16.6228 200.593 26.6787C200.965 34.8885 206.14 40.1966 212.625 41.2372C217.903 42.0828 223.73 40.0976 226.432 34.0252L225.688 32.9861C223.006 34.4377 218.744 34.6889 216.048 33.5552C212.755 32.1716 210.592 28.8487 209.984 25.4164C208.86 19.0691 210.491 13.8349 213.973 13.9414Z" fill="white"/>
</g>
<defs>
<clipPath id="clip0_47_203">
<rect width="250" height="41" fill="white" transform="translate(0 0.486328)"/>
</clipPath>
</defs>
</svg>
