<svg width="278" height="47" viewBox="0 0 278 47" fill="none" xmlns="http://www.w3.org/2000/svg">
<g clip-path="url(#clip0_302_1530)">
<path d="M28.2916 25.5235L15.8438 25.4688C15.5694 25.7905 15.5185 25.8502 15.2441 26.1703L24.2978 45.1461H37.5999C37.8036 44.826 37.8661 44.7265 38.0698 44.4064L28.2916 25.5235Z" fill="#292929"/>
<path d="M16.573 0.210938H0V45.0567H12.3706V3.28402C17.8478 4.05519 20.6998 6.65064 21.8235 11.0521C22.6351 14.2264 22.272 18.9446 20.1281 21.8917L20.9495 23.0111C29.5974 22.9315 34.4142 18.1618 34.1037 11.5281C33.7407 3.81637 26.78 0.210938 16.573 0.210938Z" fill="#292929"/>
<path d="M144.493 45.0938V12.6797H154.734L154.889 17.1425C154.889 17.1425 157.936 12.809 161.695 12.1042C165.881 11.3197 169.727 13.3546 170.359 17.1425C170.359 17.1425 173.183 12.7195 177.765 12.1042C181.922 11.547 186.035 13.7775 186.035 19.4195V45.0938H175.537V21.6667C175.537 19.9585 174.695 18.7164 173.362 18.7313C171.729 18.7495 170.512 20.9752 170.512 20.9752V45.0938H159.98V21.3184C159.98 19.6103 159.004 18.7048 157.67 18.7296C156.139 18.7595 154.989 20.6269 154.989 20.6269V45.0938H144.493Z" fill="#292929"/>
<path d="M68.1499 45.0938V12.6797H78.3914L78.5458 17.1425C78.5458 17.1425 81.5933 12.809 85.3521 12.1042C89.5381 11.3197 93.384 13.3546 94.0165 17.1425C94.0165 17.1425 96.8405 12.7195 101.422 12.1042C105.579 11.547 109.692 13.7775 109.692 19.4195V45.0938H99.1947V21.6667C99.1947 19.9585 98.3519 18.7164 97.0196 18.7313C95.3866 18.7495 94.1692 20.9752 94.1692 20.9752V45.0938H83.637V21.3184C83.637 19.6103 82.6611 18.7048 81.3271 18.7296C79.796 18.7595 78.646 20.6269 78.646 20.6269V45.0938H68.1499Z" fill="#292929"/>
<path d="M267.198 18.4139C266.958 19.0872 266.255 21.3112 266.255 21.3112H265.917V12.6774H254.842V45.0931H266.301V29.2451C266.301 26.0809 267.441 24.0675 270.334 23.1189C272.312 22.4704 278 22.7374 278 22.7374V11.9112C272.511 11.8017 268.953 13.4983 267.198 18.4139Z" fill="#292929"/>
<path d="M209.95 11.9332C206.717 11.7972 204.402 13.3877 203.476 14.9002V16.207C209.641 16.9185 209.86 26.1245 209.86 28.8592C209.86 32.8096 209.306 37.1796 207.31 40.0188C205.353 42.8033 202.736 42.9161 201.102 42.6193V1.26618C200.76 1.01742 200.632 0.924546 200.29 0.675781L189.924 4.17342V44.3938C193.637 45.3175 200.037 46.7007 206.004 46.0356C215.434 44.9842 220.96 38.2675 220.96 27.7945C220.96 19.5305 217.56 12.255 209.95 11.9332Z" fill="#292929"/>
<path d="M50.9938 15.3066C53.693 15.3896 55.0073 18.6534 54.5884 22.0714C54.2713 24.6486 52.3262 26.9289 50.3942 27.7582V29.4498H65.2635C66.0275 17.844 58.5377 11.935 51.3339 11.9102C42.2161 11.9102 35.6086 18.315 36.1146 29.5974C36.5286 38.8083 42.2835 44.7637 49.4939 45.9313C55.3638 46.8799 61.8431 44.6526 64.8479 37.8398L64.0199 36.6739C61.0382 38.3025 56.2986 38.5844 53.3004 37.3124C49.6385 35.7601 47.2334 32.0319 46.5581 28.1811C45.3079 21.0597 47.1216 15.1872 50.9938 15.3066Z" fill="#292929"/>
<path d="M127.309 15.3066C130.008 15.3896 131.322 18.6534 130.903 22.0714C130.586 24.6486 128.641 26.9289 126.709 27.7582V29.4498H141.578C142.342 17.844 134.853 11.935 127.649 11.9102C118.531 11.9102 111.924 18.315 112.43 29.5974C112.844 38.8083 118.598 44.7637 125.809 45.9313C131.679 46.8799 138.158 44.6526 141.163 37.8398L140.335 36.6739C137.353 38.3025 132.613 38.5844 129.615 37.3124C125.953 35.7601 123.548 32.0319 122.873 28.1811C121.623 21.0597 123.435 15.1872 127.309 15.3066Z" fill="#292929"/>
<path d="M237.939 15.3066C240.638 15.3896 241.953 18.6534 241.534 22.0714C241.217 24.6486 239.271 26.9289 237.339 27.7582V29.4498H252.209C252.973 17.844 245.483 11.935 238.279 11.9102C229.161 11.9102 222.554 18.315 223.06 29.5974C223.474 38.8083 229.229 44.7637 236.439 45.9313C242.309 46.8799 248.788 44.6526 251.793 37.8398L250.965 36.6739C247.983 38.3025 243.244 38.5844 240.246 37.3124C236.584 35.7601 234.179 32.0319 233.503 28.1811C232.253 21.0597 234.067 15.1872 237.939 15.3066Z" fill="#292929"/>
</g>
<defs>
<clipPath id="clip0_302_1530">
<rect width="278" height="46" fill="white" transform="translate(0 0.210938)"/>
</clipPath>
</defs>
</svg>
