<svg width="50" height="58" viewBox="0 0 50 58" fill="none" xmlns="http://www.w3.org/2000/svg">
<g clip-path="url(#clip0_350_2781)">
<path d="M25.0022 8.42888C27.304 8.42888 29.17 6.54201 29.17 4.21444C29.17 1.88687 27.304 0 25.0022 0C22.7004 0 20.8345 1.88687 20.8345 4.21444C20.8345 6.54201 22.7004 8.42888 25.0022 8.42888Z" fill="#F383A3"/>
<path d="M25.0022 57.3542C27.304 57.3542 29.17 55.4673 29.17 53.1397C29.17 50.8122 27.304 48.9253 25.0022 48.9253C22.7004 48.9253 20.8345 50.8122 20.8345 53.1397C20.8345 55.4673 22.7004 57.3542 25.0022 57.3542Z" fill="#F383A3"/>
<path d="M45.8323 20.4526C48.1341 20.4526 50.0001 18.5657 50.0001 16.2381C50.0001 13.9106 48.1341 12.0237 45.8323 12.0237C43.5305 12.0237 41.6646 13.9106 41.6646 16.2381C41.6646 18.5657 43.5305 20.4526 45.8323 20.4526Z" fill="#F7AEBA"/>
<path d="M4.16775 45.3305C6.46954 45.3305 8.33551 43.4436 8.33551 41.1161C8.33551 38.7885 6.46954 36.9016 4.16775 36.9016C1.86597 36.9016 0 38.7885 0 41.1161C0 43.4436 1.86597 45.3305 4.16775 45.3305Z" fill="#F7AEBA"/>
<path d="M4.16775 20.4526C6.46954 20.4526 8.33551 18.5657 8.33551 16.2381C8.33551 13.9106 6.46954 12.0237 4.16775 12.0237C1.86597 12.0237 0 13.9106 0 16.2381C0 18.5657 1.86597 20.4526 4.16775 20.4526Z" fill="#FAC4C5"/>
<path d="M45.8323 45.3305C48.1341 45.3305 50.0001 43.4436 50.0001 41.1161C50.0001 38.7885 48.1341 36.9016 45.8323 36.9016C43.5305 36.9016 41.6646 38.7885 41.6646 41.1161C41.6646 43.4436 43.5305 45.3305 45.8323 45.3305Z" fill="#FAC4C5"/>
<path d="M34.4862 28.7843L32.2744 37.7964C32.2743 37.7967 32.2743 37.797 32.2742 37.7972C32.1286 38.3836 31.8773 38.7389 31.6117 38.9491C31.3447 39.1605 31.0269 39.2538 30.6997 39.2538C30.3738 39.2538 30.0573 39.1602 29.7911 38.9438C29.5255 38.728 29.2718 38.359 29.1267 37.7417C29.1266 37.7415 29.1265 37.7412 29.1265 37.741L27.067 28.7913L26.9778 28.4034H26.5798H23.668H23.2771L23.1828 28.7827L20.9403 37.7961L20.9402 37.7964C20.7957 38.3788 20.5394 38.7343 20.2662 38.9461C19.9904 39.1599 19.6632 39.2538 19.3351 39.2538C19.0074 39.2538 18.6814 39.1591 18.4106 38.9441C18.1429 38.7316 17.893 38.3728 17.7636 37.7796L17.7638 37.7795L17.7606 37.7665L15.5485 28.7839L15.4548 28.4034H15.063H12.0904C11.9434 28.4034 11.875 28.3529 11.8276 28.2884C11.7657 28.2044 11.7125 28.0515 11.7125 27.8312C11.7125 27.5908 11.7677 27.4299 11.8303 27.3432C11.8775 27.2779 11.9442 27.2281 12.0904 27.2281H14.5459H15.1827L15.0316 26.6095L13.3326 19.6541C13.3326 19.6538 13.3325 19.6536 13.3325 19.6534C13.2213 19.1927 13.2943 18.8657 13.4395 18.6437C13.5873 18.4175 13.8542 18.2329 14.2557 18.1464L14.2557 18.1465L14.2657 18.1441C14.6431 18.0547 14.9772 18.08 15.2247 18.204C15.4543 18.3191 15.6746 18.5512 15.7834 19.0244C15.7836 19.025 15.7837 19.0255 15.7838 19.0261L17.5127 26.8405L17.5994 27.2325H18.0009H21.3038H21.6945L21.789 26.8533L23.6056 19.5583L23.6057 19.5578C23.757 18.9478 23.9807 18.5978 24.2214 18.3969C24.4568 18.2005 24.7639 18.1005 25.1804 18.1005C25.5603 18.1005 25.8732 18.1985 26.1222 18.4019C26.3734 18.6071 26.6081 18.9596 26.7548 19.5567L26.8382 19.8964L28.457 26.8459L28.547 27.2325H28.9439H32.1252H32.5266L32.6134 26.8405L34.3431 19.0225L34.3431 19.0222C34.4341 18.6098 34.6467 18.3751 34.8933 18.2465C35.1534 18.1109 35.492 18.0738 35.8396 18.1463C36.2217 18.2318 36.4817 18.4139 36.6275 18.6406C36.7711 18.8639 36.8438 19.1924 36.7329 19.6527C36.7328 19.6532 36.7327 19.6536 36.7326 19.6541L35.0037 26.6075L34.8494 27.2281H35.4889H37.914C38.0602 27.2281 38.1268 27.2779 38.174 27.3432C38.2366 27.4299 38.2918 27.5908 38.2918 27.8312C38.2918 28.0715 38.2367 28.2201 38.1796 28.2961C38.138 28.3516 38.0724 28.4034 37.914 28.4034H34.9718H34.5796L34.4862 28.7843ZM19.0553 33.8577L20.0287 33.8722L21.2412 29.0293L21.3968 28.4078H20.7562H18.4833H17.8619L17.9948 29.0148L19.0553 33.8577ZM23.7263 26.6108L23.5703 27.2325H24.2112H26.0582H26.6846L26.5458 26.6217L25.6679 22.7588L24.6954 22.748L23.7263 26.6108ZM30.0911 33.8334L31.0663 33.8276L32.1267 29.0154L32.2606 28.4078H31.6384H29.4568H28.8269L28.9698 29.0213L30.0911 33.8334Z" fill="#581123" stroke="#581123"/>
</g>
<defs>
<clipPath id="clip0_350_2781">
<rect width="50" height="57.3586" fill="white"/>
</clipPath>
</defs>
</svg>
