<svg width="168" height="73" viewBox="0 0 168 73" fill="none" xmlns="http://www.w3.org/2000/svg">
<g opacity="0.7" clip-path="url(#clip0_62_1172)">
<path d="M84.0001 71.7313C130.009 71.7313 167.306 55.9216 167.306 36.4193C167.306 16.9171 130.009 1.10742 84.0001 1.10742C37.9916 1.10742 0.694336 16.9171 0.694336 36.4193C0.694336 55.9216 37.9916 71.7313 84.0001 71.7313Z" stroke="white" stroke-width="1.5" stroke-miterlimit="10"/>
<path d="M83.9999 71.7313C103.676 71.7313 119.627 55.9216 119.627 36.4193C119.627 16.9171 103.676 1.10742 83.9999 1.10742C64.3236 1.10742 48.3728 16.9171 48.3728 36.4193C48.3728 55.9216 64.3236 71.7313 83.9999 71.7313Z" stroke="white" stroke-width="1.5" stroke-miterlimit="10"/>
<path d="M84.0001 49.4252C91.2464 49.4252 97.1207 43.6028 97.1207 36.4206C97.1207 29.2384 91.2464 23.416 84.0001 23.416C76.7537 23.416 70.8794 29.2384 70.8794 36.4206C70.8794 43.6028 76.7537 49.4252 84.0001 49.4252Z" stroke="white" stroke-width="1.5" stroke-miterlimit="10"/>
</g>
<defs>
<clipPath id="clip0_62_1172">
<rect width="168" height="72" fill="white" transform="translate(0 0.419922)"/>
</clipPath>
</defs>
</svg>
